Medium.ufo
<glyph name="exclam" format="1">
  <advance width="253"/>
  <unicode hex="0021"/>
  <outline>
    <contour>
      <point x="88" y="-3.5" type="curve"/>
      <point x="31.5458" y="36.2059"/>
      <point x="121.601" y="105.873"/>
      <point x="163.5" y="61.5" type="curve"/>
      <point x="223.928" y="18.9183"/>
      <point x="130.317" y="-47.1928"/>
    </contour>
    <contour>
      <point x="157" y="616" type="curve" smooth="yes"/>
      <point x="157" y="197" type="line" smooth="yes"/>
      <point x="157" y="171.667"/>
      <point x="146.667" y="159"/>
      <point x="126" y="159" type="curve" smooth="yes"/>
      <point x="105.333" y="159"/>
      <point x="95" y="171.667"/>
      <point x="95" y="197" type="curve" smooth="yes"/>
      <point x="95" y="616" type="line" smooth="yes"/>
      <point x="95" y="641.333"/>
      <point x="105.333" y="654"/>
      <point x="126" y="654" type="curve" smooth="yes"/>
      <point x="146.667" y="654"/>
      <point x="157" y="641.333"/>
    </contour>
  </outline>
</glyph>
<glyph name="quotedbl" format="1">
  <advance width="305"/>
  <unicode hex="0022"/>
  <outline>
    <contour>
      <point x="172" y="466" type="curve" smooth="yes"/>
      <point x="172" y="615" type="line" smooth="yes"/>
      <point x="172" y="640.333"/>
      <point x="182.333" y="653"/>
      <point x="203" y="653" type="curve" smooth="yes"/>
      <point x="223.667" y="653"/>
      <point x="234" y="640.333"/>
      <point x="234" y="615" type="curve" smooth="yes"/>
      <point x="234" y="466" type="line" smooth="yes"/>
      <point x="234" y="440.667"/>
      <point x="223.667" y="428"/>
      <point x="203" y="428" type="curve" smooth="yes"/>
      <point x="182.333" y="428"/>
      <point x="172" y="440.667"/>
    </contour>
    <contour>
      <point x="71" y="466" type="curve"/>
      <point x="71" y="615" type="line"/>
      <point x="71.6667" y="640.333"/>
      <point x="82" y="653"/>
      <point x="102" y="653" type="curve" smooth="yes"/>
      <point x="122" y="653"/>
      <point x="132" y="640.333"/>
      <point x="132" y="615" type="curve" smooth="yes"/>
      <point x="132" y="466" type="line" smooth="yes"/>
      <point x="132" y="440.667"/>
      <point x="122" y="428"/>
      <point x="102" y="428" type="curve" smooth="yes"/>
      <point x="82" y="428"/>
      <point x="71.6667" y="440.667"/>
    </contour>
  </outline>
</glyph>
<glyph name="numbersign" format="1">
  <advance width="613"/>
  <unicode hex="0023"/>
  <outline>
    <contour>
      <point x="350" y="587" type="curve" smooth="yes"/>
      <point x="295" y="441" type="line"/>
      <point x="409" y="441" type="line"/>
      <point x="469" y="608" type="line"/>
      <point x="483.667" y="644"/>
      <point x="512.167" y="638.167"/>
      <point x="523.5" y="625.5" type="curve" smooth="yes"/>
      <point x="534.833" y="612.833"/>
      <point x="533" y="599.333"/>
      <point x="529" y="586" type="curve"/>
      <point x="475" y="441" type="line"/>
      <point x="531" y="441" type="line" smooth="yes"/>
      <point x="556.333" y="441"/>
      <point x="569" y="430.667"/>
      <point x="569" y="410" type="curve" smooth="yes"/>
      <point x="569" y="389.333"/>
      <point x="556.333" y="379"/>
      <point x="531" y="379" type="curve" smooth="yes"/>
      <point x="453" y="379" type="line"/>
      <point x="408" y="257" type="line"/>
      <point x="500" y="257" type="line" smooth="yes"/>
      <point x="525.333" y="257"/>
      <point x="538" y="246.667"/>
      <point x="538" y="226" type="curve" smooth="yes"/>
      <point x="538" y="205.333"/>
      <point x="525.333" y="195"/>
      <point x="500" y="195" type="curve" smooth="yes"/>
      <point x="385" y="195" type="line"/>
      <point x="325" y="28" type="line" smooth="yes"/>
      <point x="318.333" y="10"/>
      <point x="307.667" y="1"/>
      <point x="293" y="1" type="curve" smooth="yes"/>
      <point x="272.333" y="1"/>
      <point x="262" y="11.3333"/>
      <point x="262" y="32" type="curve" smooth="yes"/>
      <point x="262" y="37.3333"/>
      <point x="263" y="43.3333"/>
      <point x="265" y="50" type="curve" smooth="yes"/>
      <point x="320" y="195" type="line"/>
      <point x="206" y="195" type="line"/>
      <point x="146" y="28" type="line" smooth="yes"/>
      <point x="139.333" y="10"/>
      <point x="130" y="1"/>
      <point x="118" y="1" type="curve" smooth="yes"/>
      <point x="95.3333" y="1"/>
      <point x="84" y="11"/>
      <point x="84" y="31" type="curve" smooth="yes"/>
      <point x="84" y="37"/>
      <point x="85" y="43"/>
      <point x="87" y="49" type="curve" smooth="yes"/>
      <point x="141" y="195" type="line"/>
      <point x="82" y="195" type="line" smooth="yes"/>
      <point x="56.6667" y="195"/>
      <point x="44" y="205.333"/>
      <point x="44" y="226" type="curve" smooth="yes"/>
      <point x="44" y="246.667"/>
      <point x="56.6667" y="257"/>
      <point x="82" y="257" type="curve" smooth="yes"/>
      <point x="163" y="257" type="line"/>
      <point x="208" y="379" type="line"/>
      <point x="112" y="379" type="line" smooth="yes"/>
      <point x="87.3333" y="379"/>
      <point x="75" y="389.333"/>
      <point x="75" y="410" type="curve" smooth="yes"/>
      <point x="75" y="430.667"/>
      <point x="87.3333" y="441"/>
      <point x="112" y="441" type="curve" smooth="yes"/>
      <point x="231" y="441" type="line"/>
      <point x="291" y="608" type="line"/>
      <point x="299.667" y="626"/>
      <point x="309.333" y="635"/>
      <point x="320" y="635" type="curve" smooth="yes"/>
      <point x="342" y="635"/>
      <point x="353" y="625"/>
      <point x="353" y="605" type="curve" smooth="yes"/>
      <point x="353" y="597.667"/>
      <point x="352" y="591.667"/>
    </contour>
    <contour>
      <point x="274" y="379" type="line"/>
      <point x="229" y="257" type="line"/>
      <point x="341" y="257" type="line"/>
      <point x="386" y="379" type="line"/>
    </contour>
  </outline>
</glyph>
<glyph name="dollar" format="1">
  <advance width="608"/>
  <unicode hex="0024"/>
  <outline>
    <contour>
      <point x="166" y="87" type="line" smooth="yes"/>
      <point x="82" y="87"/>
      <point x="61" y="131.333"/>
      <point x="61" y="202" type="curve" smooth="yes"/>
      <point x="61" y="227.333"/>
      <point x="71.3333" y="240"/>
      <point x="92" y="240" type="curve" smooth="yes"/>
      <point x="112.667" y="240"/>
      <point x="123" y="228.667"/>
      <point x="123" y="206" type="curve" smooth="yes"/>
      <point x="123" y="160.667"/>
      <point x="135.667" y="149"/>
      <point x="173" y="149" type="curve" smooth="yes"/>
      <point x="278" y="149" type="line"/>
      <point x="278" y="296" type="line"/>
      <point x="195" y="296" type="line" smooth="yes"/>
      <point x="105.667" y="296"/>
      <point x="61" y="340.667"/>
      <point x="61" y="430" type="curve" smooth="yes"/>
      <point x="61" y="510"/>
      <point x="97.6667" y="554"/>
      <point x="195" y="554" type="curve" smooth="yes"/>
      <point x="278" y="554" type="line"/>
      <point x="278" y="606" type="line" smooth="yes"/>
      <point x="278" y="630.667"/>
      <point x="288.333" y="643"/>
      <point x="309" y="643" type="curve" smooth="yes"/>
      <point x="329.667" y="643"/>
      <point x="340" y="631"/>
      <point x="340" y="607" type="curve" smooth="yes"/>
      <point x="340" y="554" type="line"/>
      <point x="442" y="554" type="line" smooth="yes"/>
      <point x="526" y="554"/>
      <point x="547" y="511.333"/>
      <point x="547" y="442" type="curve" smooth="yes"/>
      <point x="547" y="416"/>
      <point x="536.667" y="403"/>
      <point x="516" y="403" type="curve"/>
      <point x="495.333" y="403.667"/>
      <point x="485" y="415.333"/>
      <point x="485" y="438" type="curve" smooth="yes"/>
      <point x="485" y="483.333"/>
      <point x="473.667" y="492"/>
      <point x="435" y="492" type="curve" smooth="yes"/>
      <point x="340" y="492" type="line"/>
      <point x="340" y="358" type="line"/>
      <point x="416" y="358" type="line" smooth="yes"/>
      <point x="503.333" y="358"/>
      <point x="547" y="311.333"/>
      <point x="547" y="218" type="curve" smooth="yes"/>
      <point x="547" y="130.667"/>
      <point x="502.667" y="87"/>
      <point x="414" y="87" type="curve" smooth="yes"/>
      <point x="340" y="87" type="line"/>
      <point x="340" y="30" type="line" smooth="yes"/>
      <point x="340" y="5.33333"/>
      <point x="329" y="-7"/>
      <point x="307" y="-7" type="curve" smooth="yes"/>
      <point x="287.667" y="-7"/>
      <point x="278" y="4.66667"/>
      <point x="278" y="28" type="curve" smooth="yes"/>
      <point x="278" y="87" type="line"/>
    </contour>
    <contour>
      <point x="431" y="296" type="curve" smooth="yes"/>
      <point x="340" y="296" type="line"/>
      <point x="340" y="149" type="line"/>
      <point x="431" y="149" type="line" smooth="yes"/>
      <point x="467" y="149"/>
      <point x="485" y="170.667"/>
      <point x="485" y="214" type="curve" smooth="yes"/>
      <point x="485" y="262"/>
      <point x="463" y="296"/>
    </contour>
    <contour>
      <point x="177" y="358" type="curve" smooth="yes"/>
      <point x="278" y="358" type="line"/>
      <point x="278" y="492" type="line"/>
      <point x="177" y="492" type="line" smooth="yes"/>
      <point x="141" y="492"/>
      <point x="123" y="480"/>
      <point x="123" y="432" type="curve" smooth="yes"/>
      <point x="123" y="384"/>
      <point x="145" y="358"/>
    </contour>
  </outline>
</glyph>
<glyph name="percent" format="1">
  <advance width="578"/>
  <unicode hex="0025"/>
  <outline>
    <contour>
      <point x="393.5" y="200.5" type="curve" smooth="yes"/>
      <point x="370.755" y="177.755"/>
      <point x="405.755" y="142.755"/>
      <point x="428.5" y="165.5" type="curve" smooth="yes"/>
      <point x="451.794" y="188.794"/>
      <point x="416.794" y="223.794"/>
    </contour>
    <contour>
      <point x="345" y="121.5" type="curve" smooth="yes"/>
      <point x="307.667" y="155.5"/>
      <point x="307.667" y="210.5"/>
      <point x="345" y="244.5" type="curve" smooth="yes"/>
      <point x="382.333" y="278.5"/>
      <point x="438.5" y="278.5"/>
      <point x="472.5" y="244.5" type="curve" smooth="yes"/>
      <point x="506.5" y="210.5"/>
      <point x="506.5" y="155.5"/>
      <point x="472.5" y="121.5" type="curve" smooth="yes"/>
      <point x="438.5" y="87.5"/>
      <point x="382.333" y="87.5"/>
    </contour>
    <contour>
      <point x="150.5" y="478.5" type="curve" smooth="yes"/>
      <point x="127.724" y="455.724"/>
      <point x="161.379" y="423.099"/>
      <point x="184.5" y="443.5" type="curve" smooth="yes"/>
      <point x="209.928" y="465.936"/>
      <point x="171.708" y="499.708"/>
    </contour>
    <contour>
      <point x="105.5" y="399.5" type="curve" smooth="yes"/>
      <point x="71.5" y="433.5"/>
      <point x="71.5" y="488.5"/>
      <point x="105.5" y="522.5" type="curve" smooth="yes"/>
      <point x="139.5" y="556.5"/>
      <point x="196.833" y="556.5"/>
      <point x="233.5" y="522.5" type="curve" smooth="yes"/>
      <point x="270.167" y="488.5"/>
      <point x="270.167" y="433.5"/>
      <point x="233.5" y="399.5" type="curve" smooth="yes"/>
      <point x="196.833" y="365.5"/>
      <point x="139.5" y="365.5"/>
    </contour>
    <contour>
      <point x="453" y="515" type="line"/>
      <point x="489.669" y="544.794"/>
      <point x="530.073" y="511.706"/>
      <point x="497" y="471" type="curve"/>
      <point x="126" y="124" type="line" smooth="yes"/>
      <point x="91.3419" y="91.8175"/>
      <point x="44.3307" y="131.331"/>
      <point x="82" y="169" type="curve"/>
    </contour>
  </outline>
</glyph>
<glyph name="ampersand" format="1">
  <advance width="520"/>
  <unicode hex="0026"/>
  <outline>
    <contour>
      <point x="358" y="85" type="curve"/>
      <point x="162" y="312" type="line"/>
      <point x="122" y="284.667"/>
      <point x="102" y="244"/>
      <point x="102" y="190" type="curve" smooth="yes"/>
      <point x="102" y="136"/>
      <point x="117.5" y="98"/>
      <point x="148.5" y="76" type="curve" smooth="yes"/>
      <point x="210.5" y="32"/>
      <point x="294" y="29"/>
    </contour>
    <contour>
      <point x="248" y="595" type="curve" smooth="yes"/>
      <point x="188" y="595"/>
      <point x="129" y="548"/>
      <point x="129" y="476" type="curve" smooth="yes"/>
      <point x="129" y="453.333"/>
      <point x="141.333" y="428"/>
      <point x="166" y="400" type="curve" smooth="yes"/>
      <point x="397" y="133" type="line"/>
      <point x="413.667" y="160.333"/>
      <point x="422" y="191.667"/>
      <point x="422" y="227" type="curve" smooth="yes"/>
      <point x="422" y="254.333"/>
      <point x="432.667" y="268"/>
      <point x="454" y="268" type="curve" smooth="yes"/>
      <point x="473.333" y="268"/>
      <point x="483" y="254.333"/>
      <point x="483" y="227" type="curve" smooth="yes"/>
      <point x="483" y="174.333"/>
      <point x="468.333" y="126.667"/>
      <point x="439" y="84" type="curve"/>
      <point x="483" y="35" type="line" smooth="yes"/>
      <point x="508.588" y="6.21379"/>
      <point x="471.502" y="-45.6897"/>
      <point x="430" y="1" type="curve" smooth="yes"/>
      <point x="398" y="38" type="line"/>
      <point x="354" y="0"/>
      <point x="306" y="-19"/>
      <point x="254" y="-19" type="curve" smooth="yes"/>
      <point x="206" y="-19"/>
      <point x="160" y="-4.33333"/>
      <point x="116" y="25" type="curve" smooth="yes"/>
      <point x="25.0592" y="83.8441"/>
      <point x="4.58341" y="271.335"/>
      <point x="122" y="358" type="curve"/>
      <point x="114" y="367" type="line" smooth="yes"/>
      <point x="81.3333" y="406.333"/>
      <point x="65" y="442.667"/>
      <point x="65" y="476" type="curve" smooth="yes"/>
      <point x="65" y="581.333"/>
      <point x="157.333" y="657"/>
      <point x="248" y="657" type="curve" smooth="yes"/>
      <point x="305.333" y="657"/>
      <point x="359.667" y="607.667"/>
      <point x="381" y="569" type="curve" smooth="yes"/>
      <point x="402.333" y="530.333"/>
      <point x="400" y="519"/>
      <point x="388" y="507" type="curve" smooth="yes"/>
      <point x="376" y="495"/>
      <point x="357.167" y="493"/>
      <point x="340.5" y="513" type="curve" smooth="yes"/>
      <point x="317.839" y="540.193"/>
      <point x="302.596" y="595"/>
    </contour>
  </outline>
</glyph>
<glyph name="quotesingle" format="1">
  <advance width="203"/>
  <unicode hex="0027"/>
  <outline>
    <contour>
      <point x="71" y="466" type="curve"/>
      <point x="71" y="615" type="line"/>
      <point x="71.6667" y="640.333"/>
      <point x="82" y="653"/>
      <point x="102" y="653" type="curve" smooth="yes"/>
      <point x="122" y="653"/>
      <point x="132" y="640.333"/>
      <point x="132" y="615" type="curve" smooth="yes"/>
      <point x="132" y="466" type="line" smooth="yes"/>
      <point x="132" y="440.667"/>
      <point x="122" y="428"/>
      <point x="102" y="428" type="curve" smooth="yes"/>
      <point x="82" y="428"/>
      <point x="71.6667" y="440.667"/>
    </contour>
  </outline>
</glyph>
<glyph name="parenleft" format="1">
  <advance width="260"/>
  <unicode hex="0028"/>
  <outline>
    <contour>
      <point x="135" y="133" type="line" smooth="yes"/>
      <point x="135" y="10.5844"/>
      <point x="138.766" y="10"/>
      <point x="213" y="10" type="curve"/>
      <point x="213" y="-52" type="line"/>
      <point x="162.567" y="-52"/>
      <point x="118.499" y="-50.9985"/>
      <point x="97" y="-8" type="curve" smooth="yes"/>
      <point x="81" y="23.3333"/>
      <point x="73" y="70.3333"/>
      <point x="73" y="133" type="curve" smooth="yes"/>
      <point x="73" y="503" type="line" smooth="yes"/>
      <point x="73" y="566.333"/>
      <point x="81" y="613.333"/>
      <point x="97" y="644" type="curve" smooth="yes"/>
      <point x="118.499" y="686.998"/>
      <point x="162.567" y="688"/>
      <point x="213" y="688" type="curve"/>
      <point x="213" y="626" type="line"/>
      <point x="138.766" y="626"/>
      <point x="135" y="625.416"/>
      <point x="135" y="503" type="curve" smooth="yes"/>
    </contour>
  </outline>
</glyph>
<glyph name="parenright" format="1">
  <advance width="260"/>
  <unicode hex="0029"/>
  <outline>
    <contour>
      <point x="125" y="133" type="curve" smooth="yes"/>
      <point x="125" y="503" type="line" smooth="yes"/>
      <point x="125" y="625.416"/>
      <point x="121.234" y="626"/>
      <point x="47" y="626" type="curve"/>
      <point x="47" y="688" type="line"/>
      <point x="97.4327" y="688"/>
      <point x="141.501" y="686.998"/>
      <point x="163" y="644" type="curve" smooth="yes"/>
      <point x="179" y="612.667"/>
      <point x="187" y="565.667"/>
      <point x="187" y="503" type="curve" smooth="yes"/>
      <point x="187" y="133" type="line" smooth="yes"/>
      <point x="187" y="69.6667"/>
      <point x="179" y="22.6667"/>
      <point x="163" y="-8" type="curve" smooth="yes"/>
      <point x="141.501" y="-50.9985"/>
      <point x="97.4327" y="-52"/>
      <point x="47" y="-52" type="curve"/>
      <point x="47" y="10" type="line"/>
      <point x="121.234" y="10"/>
      <point x="125" y="10.5844"/>
    </contour>
  </outline>
</glyph>
<glyph name="asterisk" format="1">
  <advance width="405"/>
  <unicode hex="002A"/>
  <outline>
    <contour>
      <point x="233" y="437" type="curve"/>
      <point x="233" y="374" type="line" smooth="yes"/>
      <point x="233" y="348.667"/>
      <point x="222.667" y="336"/>
      <point x="202" y="336" type="curve" smooth="yes"/>
      <point x="181.333" y="336"/>
      <point x="171" y="348.667"/>
      <point x="171" y="374" type="curve" smooth="yes"/>
      <point x="171" y="437" type="line"/>
      <point x="157.667" y="430.333"/>
      <point x="106.667" y="400.333"/>
      <point x="92" y="399" type="curve"/>
      <point x="72.8306" y="399"/>
      <point x="43.9201" y="432.948"/>
      <point x="84" y="459" type="curve"/>
      <point x="140" y="492" type="line"/>
      <point x="84" y="523" type="line" smooth="yes"/>
      <point x="70.6667" y="530.333"/>
      <point x="64" y="540.333"/>
      <point x="64" y="553" type="curve" smooth="yes"/>
      <point x="64" y="558.333"/>
      <point x="66.3333" y="564.667"/>
      <point x="71" y="572" type="curve" smooth="yes"/>
      <point x="75.6667" y="579.333"/>
      <point x="82" y="583"/>
      <point x="90" y="583" type="curve" smooth="yes"/>
      <point x="98" y="583"/>
      <point x="125" y="570.333"/>
      <point x="171" y="545" type="curve"/>
      <point x="171" y="608" type="line" smooth="yes"/>
      <point x="171" y="633.333"/>
      <point x="181.333" y="646"/>
      <point x="202" y="646" type="curve" smooth="yes"/>
      <point x="222.667" y="646"/>
      <point x="233" y="633.333"/>
      <point x="233" y="608" type="curve" smooth="yes"/>
      <point x="233" y="545" type="line"/>
      <point x="239.667" y="548.333"/>
      <point x="252.667" y="555.333"/>
      <point x="272" y="566" type="curve" smooth="yes"/>
      <point x="290.667" y="576.667"/>
      <point x="304" y="582.333"/>
      <point x="312" y="583" type="curve"/>
      <point x="332.461" y="583"/>
      <point x="361.84" y="548.901"/>
      <point x="320" y="523" type="curve"/>
      <point x="265" y="492" type="line"/>
      <point x="320" y="459" type="line" smooth="yes"/>
      <point x="348" y="441.667"/>
      <point x="343.5" y="425.833"/>
      <point x="333.5" y="410.5" type="curve" smooth="yes"/>
      <point x="328.5" y="402.833"/>
      <point x="322" y="399"/>
      <point x="314" y="399" type="curve" smooth="yes"/>
      <point x="306" y="399"/>
      <point x="279" y="411.667"/>
    </contour>
  </outline>
</glyph>
<glyph name="plus" format="1">
  <advance width="525"/>
  <unicode hex="002B"/>
  <outline>
    <contour>
      <point x="231" y="20" type="curve" smooth="yes"/>
      <point x="231" y="199" type="line"/>
      <point x="72" y="199" type="line" smooth="yes"/>
      <point x="48" y="199"/>
      <point x="36" y="209.667"/>
      <point x="36" y="231" type="curve" smooth="yes"/>
      <point x="36" y="247"/>
      <point x="46.6667" y="262"/>
      <point x="72" y="262" type="curve" smooth="yes"/>
      <point x="231" y="262" type="line"/>
      <point x="231" y="440" type="line" smooth="yes"/>
      <point x="231" y="465.333"/>
      <point x="241.333" y="478"/>
      <point x="262" y="478" type="curve" smooth="yes"/>
      <point x="282.667" y="478"/>
      <point x="293" y="465.333"/>
      <point x="293" y="440" type="curve" smooth="yes"/>
      <point x="293" y="262" type="line"/>
      <point x="450" y="262" type="line" smooth="yes"/>
      <point x="476" y="262"/>
      <point x="489" y="251"/>
      <point x="489" y="229" type="curve" smooth="yes"/>
      <point x="489" y="210.333"/>
      <point x="471.333" y="199"/>
      <point x="450" y="199" type="curve" smooth="yes"/>
      <point x="293" y="199" type="line"/>
      <point x="293" y="20" type="line" smooth="yes"/>
      <point x="293" y="-4.66667"/>
      <point x="282.667" y="-17"/>
      <point x="262" y="-17" type="curve" smooth="yes"/>
      <point x="241.333" y="-17"/>
      <point x="231" y="-4.66667"/>
    </contour>
  </outline>
</glyph>
<glyph name="comma" format="1">
  <advance width="219"/>
  <unicode hex="002C"/>
  <outline>
    <contour>
      <point x="145" y="20" type="curve"/>
      <point x="105" y="-63" type="line" smooth="yes"/>
      <point x="96.3333" y="-81"/>
      <point x="86.3333" y="-90"/>
      <point x="75" y="-90" type="curve" smooth="yes"/>
      <point x="57" y="-90"/>
      <point x="48" y="-80"/>
      <point x="48" y="-60" type="curve" smooth="yes"/>
      <point x="48" y="-56.6667"/>
      <point x="49" y="-51"/>
      <point x="51" y="-43" type="curve" smooth="yes"/>
      <point x="75" y="44" type="line" smooth="yes"/>
      <point x="80.3333" y="62"/>
      <point x="90.3333" y="71"/>
      <point x="105" y="71" type="curve" smooth="yes"/>
      <point x="114.333" y="71"/>
      <point x="124.333" y="68.6667"/>
      <point x="135" y="64" type="curve" smooth="yes"/>
      <point x="156.333" y="56"/>
      <point x="153" y="33.3333"/>
    </contour>
  </outline>
</glyph>
<glyph name="hyphen" format="1">
  <advance width="466"/>
  <unicode hex="002D"/>
  <outline>
    <contour>
      <point x="109" y="262" type="curve" smooth="yes"/>
      <point x="354" y="262" type="line" smooth="yes"/>
      <point x="380" y="262"/>
      <point x="393" y="251"/>
      <point x="393" y="229" type="curve" smooth="yes"/>
      <point x="393" y="210.333"/>
      <point x="375.333" y="199"/>
      <point x="354" y="199" type="curve" smooth="yes"/>
      <point x="109" y="199" type="line" smooth="yes"/>
      <point x="85" y="199"/>
      <point x="73" y="209.667"/>
      <point x="73" y="231" type="curve" smooth="yes"/>
      <point x="73" y="247"/>
      <point x="83.6667" y="262"/>
    </contour>
  </outline>
</glyph>
<glyph name="period" format="1">
  <advance width="239"/>
  <unicode hex="002E"/>
  <outline>
    <contour>
      <point x="158" y="-4" type="curve" smooth="yes"/>
      <point x="146.667" y="-13.3333"/>
      <point x="134.333" y="-18"/>
      <point x="121" y="-18" type="curve"/>
      <point x="120" y="-18" type="line"/>
      <point x="106.667" y="-18"/>
      <point x="94" y="-13.3333"/>
      <point x="82" y="-4" type="curve"/>
      <point x="58" y="12"/>
      <point x="58" y="43.3333"/>
      <point x="82" y="62" type="curve" smooth="yes"/>
      <point x="94.6667" y="71.3333"/>
      <point x="107" y="76"/>
      <point x="119" y="76" type="curve"/>
      <point x="120" y="76" type="line"/>
      <point x="163.008" y="76"/>
      <point x="196.657" y="26.0664"/>
    </contour>
  </outline>
</glyph>
<glyph name="slash" format="1">
  <advance width="367"/>
  <unicode hex="002F"/>
  <outline>
    <contour>
      <point x="322" y="606" type="curve"/>
      <point x="104" y="8" type="line" smooth="yes"/>
      <point x="97.3333" y="-9.33333"/>
      <point x="87" y="-18"/>
      <point x="73" y="-18" type="curve" smooth="yes"/>
      <point x="44.8003" y="-18"/>
      <point x="38.9163" y="5.66504"/>
      <point x="45" y="30" type="curve"/>
      <point x="263" y="629" type="line" smooth="yes"/>
      <point x="269.667" y="646.333"/>
      <point x="279.667" y="655"/>
      <point x="293" y="655" type="curve" smooth="yes"/>
      <point x="323.212" y="655"/>
      <point x="327.526" y="633.631"/>
    </contour>
  </outline>
</glyph>
<glyph name="zero" format="1">
  <advance width="592"/>
  <unicode hex="0030"/>
  <outline>
    <contour>
      <point x="116" y="494" type="curve" smooth="yes"/>
      <point x="116" y="141" type="line" smooth="yes"/>
      <point x="116" y="99.6667"/>
      <point x="164.667" y="57"/>
      <point x="230" y="57" type="curve" smooth="yes"/>
      <point x="362" y="57" type="line" smooth="yes"/>
      <point x="427.333" y="57"/>
      <point x="476" y="99.6667"/>
      <point x="476" y="141" type="curve" smooth="yes"/>
      <point x="476" y="494" type="line" smooth="yes"/>
      <point x="476" y="535.333"/>
      <point x="427.333" y="578"/>
      <point x="362" y="578" type="curve" smooth="yes"/>
      <point x="230" y="578" type="line" smooth="yes"/>
      <point x="164.667" y="578"/>
      <point x="116" y="535.333"/>
    </contour>
    <contour>
      <point x="538" y="156" type="line" smooth="yes"/>
      <point x="538" y="61.3333"/>
      <point x="460" y="-5"/>
      <point x="352" y="-5" type="curve" smooth="yes"/>
      <point x="240" y="-5" type="line" smooth="yes"/>
      <point x="132" y="-5"/>
      <point x="54" y="61.3333"/>
      <point x="54" y="156" type="curve" smooth="yes"/>
      <point x="54" y="480" type="line" smooth="yes"/>
      <point x="54" y="574.667"/>
      <point x="132" y="641"/>
      <point x="240" y="641" type="curve" smooth="yes"/>
      <point x="352" y="641" type="line" smooth="yes"/>
      <point x="460" y="641"/>
      <point x="538" y="574.667"/>
      <point x="538" y="480" type="curve" smooth="yes"/>
    </contour>
  </outline>
</glyph>
<glyph name="one" format="1">
  <advance width="592"/>
  <unicode hex="0031"/>
  <outline>
    <contour>
      <point x="274" y="585" type="line"/>
      <point x="258" y="569" type="line" smooth="yes"/>
      <point x="214.719" y="528.424"/>
      <point x="173.235" y="573.658"/>
      <point x="212" y="610" type="curve"/>
      <point x="273" y="671" type="line"/>
      <point x="301.574" y="696.002"/>
      <point x="336" y="685.165"/>
      <point x="336" y="652" type="curve" smooth="yes"/>
      <point x="336" y="29" type="line" smooth="yes"/>
      <point x="336" y="5"/>
      <point x="325.667" y="-7"/>
      <point x="305" y="-7" type="curve" smooth="yes"/>
      <point x="284.333" y="-7"/>
      <point x="274" y="5"/>
      <point x="274" y="29" type="curve" smooth="yes"/>
    </contour>
  </outline>
</glyph>
<glyph name="two" format="1">
  <advance width="592"/>
  <unicode hex="0032"/>
  <outline>
    <contour>
      <point x="538" y="458" type="curve" smooth="yes"/>
      <point x="538" y="278.087"/>
      <point x="127.787" y="261.957"/>
      <point x="117" y="57" type="curve"/>
      <point x="498" y="57" type="line" smooth="yes"/>
      <point x="524.667" y="57"/>
      <point x="538" y="46.6667"/>
      <point x="538" y="26" type="curve" smooth="yes"/>
      <point x="538" y="5.33333"/>
      <point x="524.667" y="-5"/>
      <point x="498" y="-5" type="curve" smooth="yes"/>
      <point x="55" y="-5" type="line"/>
      <point x="55" y="48" type="line" smooth="yes"/>
      <point x="55" y="226.351"/>
      <point x="269.095" y="291.313"/>
      <point x="392" y="356" type="curve" smooth="yes"/>
      <point x="448" y="386"/>
      <point x="476" y="419.667"/>
      <point x="476" y="457" type="curve" smooth="yes"/>
      <point x="476" y="562.333"/>
      <point x="439.667" y="579"/>
      <point x="313" y="579" type="curve" smooth="yes"/>
      <point x="166" y="579" type="line" smooth="yes"/>
      <point x="127.333" y="579"/>
      <point x="117" y="568"/>
      <point x="117" y="520" type="curve" smooth="yes"/>
      <point x="117" y="496"/>
      <point x="106.667" y="484"/>
      <point x="86" y="484" type="curve" smooth="yes"/>
      <point x="65.3333" y="484"/>
      <point x="55" y="497.333"/>
      <point x="55" y="524" type="curve" smooth="yes"/>
      <point x="55" y="608"/>
      <point x="85.6667" y="641"/>
      <point x="159" y="641" type="curve" smooth="yes"/>
      <point x="313" y="641" type="line" smooth="yes"/>
      <point x="467.667" y="641"/>
      <point x="538" y="603.333"/>
    </contour>
  </outline>
</glyph>
<glyph name="three" format="1">
  <advance width="592"/>
  <unicode hex="0033"/>
  <outline>
    <contour>
      <point x="340" y="579" type="curve" smooth="yes"/>
      <point x="252" y="579" type="line" smooth="yes"/>
      <point x="188" y="579"/>
      <point x="116" y="554"/>
      <point x="116" y="522" type="curve" smooth="yes"/>
      <point x="116" y="496.667"/>
      <point x="105.667" y="484"/>
      <point x="85" y="484" type="curve" smooth="yes"/>
      <point x="64.3333" y="484"/>
      <point x="54" y="498.667"/>
      <point x="54" y="528" type="curve" smooth="yes"/>
      <point x="54" y="586.667"/>
      <point x="127.667" y="641"/>
      <point x="245" y="641" type="curve" smooth="yes"/>
      <point x="328" y="641" type="line" smooth="yes"/>
      <point x="480" y="641"/>
      <point x="538" y="589"/>
      <point x="538" y="449" type="curve" smooth="yes"/>
      <point x="538" y="406.333"/>
      <point x="473.667" y="351.333"/>
      <point x="419" y="326" type="curve"/>
      <point x="471" y="302"/>
      <point x="538" y="232.333"/>
      <point x="538" y="187" type="curve" smooth="yes"/>
      <point x="538" y="47"/>
      <point x="480" y="-5"/>
      <point x="328" y="-5" type="curve" smooth="yes"/>
      <point x="245" y="-5" type="line" smooth="yes"/>
      <point x="127.667" y="-5"/>
      <point x="54" y="49.3333"/>
      <point x="54" y="108" type="curve" smooth="yes"/>
      <point x="54" y="137.333"/>
      <point x="64.3333" y="152"/>
      <point x="85" y="152" type="curve" smooth="yes"/>
      <point x="105.667" y="152"/>
      <point x="116" y="139.333"/>
      <point x="116" y="114" type="curve" smooth="yes"/>
      <point x="116" y="82"/>
      <point x="186.667" y="57"/>
      <point x="252" y="57" type="curve" smooth="yes"/>
      <point x="340" y="57" type="line" smooth="yes"/>
      <point x="444" y="57"/>
      <point x="477" y="96.6667"/>
      <point x="477" y="166" type="curve" smooth="yes"/>
      <point x="477" y="200.667"/>
      <point x="455.667" y="230.667"/>
      <point x="413" y="256" type="curve" smooth="yes"/>
      <point x="370.333" y="281.333"/>
      <point x="331.667" y="294"/>
      <point x="297" y="294" type="curve" smooth="yes"/>
      <point x="262.333" y="294"/>
      <point x="245" y="304.667"/>
      <point x="245" y="326" type="curve" smooth="yes"/>
      <point x="245" y="346.667"/>
      <point x="259.333" y="357"/>
      <point x="288" y="357" type="curve"/>
      <point x="288.667" y="357"/>
      <point x="289.667" y="357"/>
      <point x="291" y="357" type="curve"/>
      <point x="333.667" y="357"/>
      <point x="375.333" y="367.5"/>
      <point x="416" y="388.5" type="curve" smooth="yes"/>
      <point x="456.667" y="409.5"/>
      <point x="477" y="437.333"/>
      <point x="477" y="472" type="curve" smooth="yes"/>
      <point x="477" y="541.333"/>
      <point x="444" y="579"/>
    </contour>
  </outline>
</glyph>
<glyph name="four" format="1">
  <advance width="592"/>
  <unicode hex="0034"/>
  <outline>
    <contour>
      <point x="503" y="165" type="curve" smooth="yes"/>
      <point x="452" y="165" type="line"/>
      <point x="452" y="28" type="line" smooth="yes"/>
      <point x="452" y="4.66667"/>
      <point x="441.333" y="-7"/>
      <point x="420" y="-7" type="curve" smooth="yes"/>
      <point x="398.667" y="-7"/>
      <point x="388" y="4.66667"/>
      <point x="388" y="28" type="curve" smooth="yes"/>
      <point x="388" y="165" type="line"/>
      <point x="52" y="165" type="line"/>
      <point x="52" y="234" type="line"/>
      <point x="377" y="641" type="line"/>
      <point x="452" y="641" type="line"/>
      <point x="452" y="227" type="line"/>
      <point x="503" y="227" type="line" smooth="yes"/>
      <point x="527.667" y="227"/>
      <point x="540" y="216.667"/>
      <point x="540" y="196" type="curve" smooth="yes"/>
      <point x="540" y="175.333"/>
      <point x="527.667" y="165"/>
    </contour>
    <contour>
      <point x="388" y="564" type="line"/>
      <point x="119" y="227" type="line"/>
      <point x="388" y="227" type="line"/>
    </contour>
  </outline>
</glyph>
<glyph name="five" format="1">
  <advance width="592"/>
  <unicode hex="0035"/>
  <outline>
    <contour>
      <point x="291" y="53" type="curve" smooth="yes"/>
      <point x="408.333" y="53"/>
      <point x="471" y="117.667"/>
      <point x="471" y="235" type="curve" smooth="yes"/>
      <point x="471" y="269.667"/>
      <point x="462" y="298.333"/>
      <point x="444" y="321" type="curve" smooth="yes"/>
      <point x="412.667" y="361.667"/>
      <point x="370.667" y="382"/>
      <point x="318" y="382" type="curve" smooth="yes"/>
      <point x="65" y="382" type="line"/>
      <point x="74" y="510" type="line" smooth="yes"/>
      <point x="80.6667" y="607.333"/>
      <point x="114" y="641"/>
      <point x="194" y="641" type="curve" smooth="yes"/>
      <point x="454" y="641" type="line" smooth="yes"/>
      <point x="478.667" y="641"/>
      <point x="491" y="630.667"/>
      <point x="491" y="610" type="curve" smooth="yes"/>
      <point x="491" y="589.333"/>
      <point x="478.667" y="579"/>
      <point x="454" y="579" type="curve" smooth="yes"/>
      <point x="187" y="579" type="line" smooth="yes"/>
      <point x="156.333" y="579"/>
      <point x="142" y="566"/>
      <point x="138" y="526" type="curve"/>
      <point x="132" y="444" type="line"/>
      <point x="309" y="444" type="line" smooth="yes"/>
      <point x="427.667" y="444"/>
      <point x="533" y="362.833"/>
      <point x="533" y="223.5" type="curve" smooth="yes"/>
      <point x="533" y="84.1667"/>
      <point x="435" y="-9"/>
      <point x="291" y="-9" type="curve" smooth="yes"/>
      <point x="247" y="-9"/>
      <point x="197.333" y="2.83333"/>
      <point x="142" y="26.5" type="curve" smooth="yes"/>
      <point x="86.6667" y="50.1667"/>
      <point x="59" y="74.6667"/>
      <point x="59" y="100" type="curve" smooth="yes"/>
      <point x="59" y="116"/>
      <point x="75.1667" y="131"/>
      <point x="86.5" y="131" type="curve" smooth="yes"/>
      <point x="99.1667" y="131"/>
      <point x="189.083" y="53"/>
    </contour>
  </outline>
</glyph>
<glyph name="six" format="1">
  <advance width="592"/>
  <unicode hex="0036"/>
  <outline>
    <contour>
      <point x="304" y="644" type="curve" smooth="yes"/>
      <point x="328" y="644"/>
      <point x="340" y="634.667"/>
      <point x="340" y="616" type="curve" smooth="yes"/>
      <point x="340" y="603.333"/>
      <point x="331.333" y="593"/>
      <point x="314" y="585" type="curve" smooth="yes"/>
      <point x="246" y="551.667"/>
      <point x="178.667" y="485"/>
      <point x="144" y="389" type="curve"/>
      <point x="186" y="418.333"/>
      <point x="239.5" y="433"/>
      <point x="304.5" y="433" type="curve" smooth="yes"/>
      <point x="434.5" y="433"/>
      <point x="538" y="341.333"/>
      <point x="538" y="212" type="curve" smooth="yes"/>
      <point x="538" y="147.333"/>
      <point x="515.333" y="94.3333"/>
      <point x="470" y="53" type="curve" smooth="yes"/>
      <point x="424.667" y="11.6667"/>
      <point x="366.667" y="-9"/>
      <point x="296" y="-9" type="curve" smooth="yes"/>
      <point x="225.333" y="-9"/>
      <point x="167.333" y="11.5"/>
      <point x="122" y="52.5" type="curve" smooth="yes"/>
      <point x="76.6667" y="93.5"/>
      <point x="54" y="144.5"/>
      <point x="54" y="205.5" type="curve" smooth="yes"/>
      <point x="54" y="327.5"/>
      <point x="87.3333" y="432"/>
      <point x="130" y="496" type="curve" smooth="yes"/>
      <point x="197.188" y="596.782"/>
      <point x="277.8" y="644"/>
    </contour>
    <contour>
      <point x="163.5" y="328" type="curve" smooth="yes"/>
      <point x="131.833" y="299.333"/>
      <point x="116" y="260.667"/>
      <point x="116" y="212" type="curve" smooth="yes"/>
      <point x="116" y="163.333"/>
      <point x="131.667" y="124.667"/>
      <point x="163" y="96" type="curve" smooth="yes"/>
      <point x="194.333" y="67.3333"/>
      <point x="238.667" y="53"/>
      <point x="296" y="53" type="curve" smooth="yes"/>
      <point x="353.333" y="53"/>
      <point x="397.667" y="67.3333"/>
      <point x="429" y="96" type="curve" smooth="yes"/>
      <point x="460.333" y="124.667"/>
      <point x="476" y="163.333"/>
      <point x="476" y="212" type="curve" smooth="yes"/>
      <point x="476" y="260.667"/>
      <point x="460.167" y="299.333"/>
      <point x="428.5" y="328" type="curve" smooth="yes"/>
      <point x="396.833" y="356.667"/>
      <point x="352.667" y="371"/>
      <point x="296" y="371" type="curve" smooth="yes"/>
      <point x="239.333" y="371"/>
      <point x="195.167" y="356.667"/>
    </contour>
  </outline>
</glyph>
<glyph name="seven" format="1">
  <advance width="592"/>
  <unicode hex="0037"/>
  <outline>
    <contour>
      <point x="269" y="-10" type="curve" smooth="yes"/>
      <point x="238.523" y="-10"/>
      <point x="225.096" y="13.1927"/>
      <point x="239" y="41" type="curve"/>
      <point x="455" y="584" type="line"/>
      <point x="176" y="584" type="line" smooth="yes"/>
      <point x="136" y="584"/>
      <point x="125" y="569"/>
      <point x="125" y="529" type="curve" smooth="yes"/>
      <point x="125" y="502.333"/>
      <point x="114.667" y="489"/>
      <point x="94" y="489" type="curve" smooth="yes"/>
      <point x="73.3333" y="489"/>
      <point x="63" y="502.333"/>
      <point x="63" y="529" type="curve" smooth="yes"/>
      <point x="63" y="613"/>
      <point x="94.6667" y="646"/>
      <point x="168" y="646" type="curve" smooth="yes"/>
      <point x="498" y="646" type="line" smooth="yes"/>
      <point x="518.667" y="646"/>
      <point x="529" y="636.667"/>
      <point x="529" y="618" type="curve" smooth="yes"/>
      <point x="529" y="611.333"/>
      <point x="527.667" y="604"/>
      <point x="525" y="596" type="curve" smooth="yes"/>
      <point x="302" y="19" type="line" smooth="yes"/>
      <point x="294.667" y="-0.333333"/>
      <point x="283.667" y="-10"/>
    </contour>
  </outline>
</glyph>
<glyph name="eight" format="1">
  <advance width="592"/>
  <unicode hex="0038"/>
  <outline>
    <contour>
      <point x="280" y="57" type="curve" smooth="yes"/>
      <point x="313" y="57" type="line" smooth="yes"/>
      <point x="441" y="57"/>
      <point x="476" y="73"/>
      <point x="476" y="177" type="curve" smooth="yes"/>
      <point x="476" y="281"/>
      <point x="439.667" y="297"/>
      <point x="313" y="297" type="curve" smooth="yes"/>
      <point x="280" y="297" type="line" smooth="yes"/>
      <point x="152" y="297"/>
      <point x="116" y="279.833"/>
      <point x="116" y="176.5" type="curve" smooth="yes"/>
      <point x="116" y="73.1667"/>
      <point x="152" y="57"/>
    </contour>
    <contour>
      <point x="479" y="326" type="curve"/>
      <point x="518.333" y="296.667"/>
      <point x="538" y="246.333"/>
      <point x="538" y="175" type="curve" smooth="yes"/>
      <point x="538" y="32.3333"/>
      <point x="467.667" y="-5"/>
      <point x="313" y="-5" type="curve" smooth="yes"/>
      <point x="280" y="-5" type="line"/>
      <point x="242" y="-4.33333"/>
      <point x="210.333" y="-2"/>
      <point x="185" y="2" type="curve" smooth="yes"/>
      <point x="160.333" y="6"/>
      <point x="137.333" y="14.3333"/>
      <point x="116" y="27" type="curve" smooth="yes"/>
      <point x="74.6667" y="51.6667"/>
      <point x="54" y="100.667"/>
      <point x="54" y="174" type="curve" smooth="yes"/>
      <point x="54" y="247.333"/>
      <point x="74" y="298"/>
      <point x="114" y="326" type="curve"/>
      <point x="74" y="351.333"/>
      <point x="54" y="399.333"/>
      <point x="54" y="470" type="curve" smooth="yes"/>
      <point x="54" y="528"/>
      <point x="67.3333" y="571"/>
      <point x="94" y="599" type="curve" smooth="yes"/>
      <point x="115.333" y="621"/>
      <point x="152" y="634"/>
      <point x="204" y="638" type="curve" smooth="yes"/>
      <point x="224" y="639.333"/>
      <point x="249.333" y="640.333"/>
      <point x="280" y="641" type="curve"/>
      <point x="313" y="641" type="line" smooth="yes"/>
      <point x="409.667" y="641"/>
      <point x="471.333" y="627"/>
      <point x="498" y="599" type="curve" smooth="yes"/>
      <point x="524.667" y="571"/>
      <point x="538" y="528"/>
      <point x="538" y="470" type="curve" smooth="yes"/>
      <point x="538" y="398"/>
      <point x="518.333" y="350"/>
    </contour>
    <contour>
      <point x="398" y="576" type="curve" smooth="yes"/>
      <point x="376.667" y="578"/>
      <point x="348.333" y="579"/>
      <point x="313" y="579" type="curve" smooth="yes"/>
      <point x="278" y="579" type="line" smooth="yes"/>
      <point x="273.333" y="579"/>
      <point x="268.667" y="579"/>
      <point x="264" y="579" type="curve" smooth="yes"/>
      <point x="201.333" y="579"/>
      <point x="164" y="574.667"/>
      <point x="152" y="566" type="curve" smooth="yes"/>
      <point x="114.667" y="539.333"/>
      <point x="116" y="507.167"/>
      <point x="116" y="466.5" type="curve" smooth="yes"/>
      <point x="116" y="407.066"/>
      <point x="130.079" y="376.23"/>
      <point x="171" y="366" type="curve" smooth="yes"/>
      <point x="190.333" y="361.333"/>
      <point x="221.333" y="359"/>
      <point x="264" y="359" type="curve" smooth="yes"/>
      <point x="269.333" y="359"/>
      <point x="274.667" y="359"/>
      <point x="280" y="359" type="curve" smooth="yes"/>
      <point x="313" y="359" type="line" smooth="yes"/>
      <point x="375.667" y="359"/>
      <point x="412.167" y="361.167"/>
      <point x="422.5" y="365.5" type="curve" smooth="yes"/>
      <point x="432.833" y="369.833"/>
      <point x="441.833" y="374.5"/>
      <point x="449.5" y="379.5" type="curve" smooth="yes"/>
      <point x="470.098" y="392.933"/>
      <point x="476" y="424.237"/>
      <point x="476" y="469" type="curve" smooth="yes"/>
      <point x="476" y="546.47"/>
      <point x="455.616" y="570.762"/>
    </contour>
  </outline>
</glyph>
<glyph name="nine" format="1">
  <advance width="592"/>
  <unicode hex="0039"/>
  <outline>
    <contour>
      <point x="54" y="469" type="curve" smooth="yes"/>
      <point x="54" y="563.346"/>
      <point x="117.655" y="607.963"/>
      <point x="188" y="626" type="curve" smooth="yes"/>
      <point x="226.667" y="636"/>
      <point x="268.333" y="641"/>
      <point x="313" y="641" type="curve" smooth="yes"/>
      <point x="463" y="641"/>
      <point x="538" y="583.333"/>
      <point x="538" y="468" type="curve" smooth="yes"/>
      <point x="538" y="177.403"/>
      <point x="351.641" y="-16"/>
      <point x="165" y="-16" type="curve" smooth="yes"/>
      <point x="141" y="-16"/>
      <point x="129" y="-5.5"/>
      <point x="129" y="15.5" type="curve" smooth="yes"/>
      <point x="129" y="36.5"/>
      <point x="140.833" y="47"/>
      <point x="164.5" y="47" type="curve" smooth="yes"/>
      <point x="188.167" y="47"/>
      <point x="213.667" y="52.3333"/>
      <point x="241" y="63" type="curve" smooth="yes"/>
      <point x="321.426" y="94.3857"/>
      <point x="424.052" y="173.864"/>
      <point x="460" y="324" type="curve"/>
      <point x="426" y="306"/>
      <point x="377" y="297"/>
      <point x="313" y="297" type="curve" smooth="yes"/>
      <point x="140.333" y="297"/>
      <point x="54" y="354.333"/>
    </contour>
    <contour>
      <point x="313" y="579" type="curve" smooth="yes"/>
      <point x="181.667" y="579"/>
      <point x="116" y="542.333"/>
      <point x="116" y="469" type="curve" smooth="yes"/>
      <point x="116" y="421"/>
      <point x="138" y="390"/>
      <point x="182" y="376" type="curve" smooth="yes"/>
      <point x="218" y="364.667"/>
      <point x="263.833" y="359"/>
      <point x="319.5" y="359" type="curve" smooth="yes"/>
      <point x="375.167" y="359"/>
      <point x="415.167" y="368.167"/>
      <point x="439.5" y="386.5" type="curve" smooth="yes"/>
      <point x="463.833" y="404.833"/>
      <point x="476" y="432"/>
      <point x="476" y="468" type="curve" smooth="yes"/>
      <point x="476" y="540"/>
      <point x="430.333" y="579"/>
    </contour>
  </outline>
</glyph>
<glyph name="colon" format="1">
  <advance width="258"/>
  <unicode hex="003A"/>
  <outline>
    <contour>
      <point x="165.5" y="466.5" type="curve"/>
      <point x="226.147" y="426.575"/>
      <point x="131.814" y="357.631"/>
      <point x="90.5" y="401" type="curve"/>
      <point x="35.6046" y="442.023"/>
      <point x="122.827" y="510.967"/>
    </contour>
    <contour>
      <point x="165.5" y="112.5" type="curve"/>
      <point x="226.147" y="72.5752"/>
      <point x="131.814" y="3.63072"/>
      <point x="90.5" y="47" type="curve"/>
      <point x="35.6046" y="88.0229"/>
      <point x="122.827" y="156.967"/>
    </contour>
  </outline>
</glyph>
<glyph name="semicolon" format="1">
  <advance width="261"/>
  <unicode hex="003B"/>
  <outline>
    <contour>
      <point x="165.5" y="466.5" type="curve"/>
      <point x="226.147" y="426.575"/>
      <point x="131.814" y="357.631"/>
      <point x="90.5" y="401" type="curve"/>
      <point x="35.6046" y="442.023"/>
      <point x="122.827" y="510.967"/>
    </contour>
    <contour>
      <point x="177" y="71" type="curve"/>
      <point x="137" y="-12" type="line" smooth="yes"/>
      <point x="128.333" y="-30"/>
      <point x="118.333" y="-39"/>
      <point x="107" y="-39" type="curve" smooth="yes"/>
      <point x="89" y="-39"/>
      <point x="80" y="-29"/>
      <point x="80" y="-9" type="curve" smooth="yes"/>
      <point x="80" y="-5.66667"/>
      <point x="81" y="0"/>
      <point x="83" y="8" type="curve" smooth="yes"/>
      <point x="107" y="95" type="line" smooth="yes"/>
      <point x="112.333" y="113"/>
      <point x="122.333" y="122"/>
      <point x="137" y="122" type="curve" smooth="yes"/>
      <point x="174.23" y="122"/>
      <point x="193.046" y="95.069"/>
    </contour>
  </outline>
</glyph>
<glyph name="less" format="1">
  <advance width="539"/>
  <unicode hex="003C"/>
  <outline>
    <contour>
      <point x="417" y="92" type="curve"/>
      <point x="53" y="302" type="line" smooth="yes"/>
      <point x="26.3333" y="318"/>
      <point x="26.3333" y="346"/>
      <point x="53" y="362" type="curve" smooth="yes"/>
      <point x="417" y="572" type="line"/>
      <point x="445.739" y="595.588"/>
      <point x="500.516" y="561.922"/>
      <point x="448" y="519" type="curve"/>
      <point x="125" y="333" type="line"/>
      <point x="447" y="145" type="line"/>
      <point x="501.229" y="111.991"/>
      <point x="449.634" y="68.2662"/>
    </contour>
  </outline>
</glyph>
<glyph name="equal" format="1">
  <advance width="478"/>
  <unicode hex="003D"/>
  <outline>
    <contour>
      <point x="115" y="415" type="curve" smooth="yes"/>
      <point x="360" y="415" type="line" smooth="yes"/>
      <point x="386" y="415"/>
      <point x="399" y="404"/>
      <point x="399" y="382" type="curve" smooth="yes"/>
      <point x="399" y="363.333"/>
      <point x="381.333" y="352"/>
      <point x="360" y="352" type="curve" smooth="yes"/>
      <point x="115" y="352" type="line" smooth="yes"/>
      <point x="91" y="352"/>
      <point x="79" y="362.667"/>
      <point x="79" y="384" type="curve" smooth="yes"/>
      <point x="79" y="400"/>
      <point x="89.6667" y="415"/>
    </contour>
    <contour>
      <point x="115" y="312" type="curve" smooth="yes"/>
      <point x="360" y="312" type="line" smooth="yes"/>
      <point x="386" y="312"/>
      <point x="399" y="301"/>
      <point x="399" y="279" type="curve" smooth="yes"/>
      <point x="399" y="260.333"/>
      <point x="381.333" y="249"/>
      <point x="360" y="249" type="curve" smooth="yes"/>
      <point x="115" y="249" type="line" smooth="yes"/>
      <point x="91" y="249"/>
      <point x="79" y="259.667"/>
      <point x="79" y="281" type="curve" smooth="yes"/>
      <point x="79" y="297"/>
      <point x="89.6667" y="312"/>
    </contour>
  </outline>
</glyph>
<glyph name="greater" format="1">
  <advance width="539"/>
  <unicode hex="003E"/>
  <outline>
    <contour>
      <point x="122" y="92" type="line"/>
      <point x="91.9477" y="64.1242"/>
      <point x="37.5033" y="112.013"/>
      <point x="92" y="145" type="curve"/>
      <point x="414" y="333" type="line"/>
      <point x="91" y="519" type="line" smooth="yes"/>
      <point x="76.3333" y="527.667"/>
      <point x="69" y="537.333"/>
      <point x="69" y="548" type="curve" smooth="yes"/>
      <point x="69" y="568.667"/>
      <point x="78.3333" y="579"/>
      <point x="97" y="579" type="curve"/>
      <point x="97.6667" y="579"/>
      <point x="98.3333" y="579"/>
      <point x="99" y="579" type="curve"/>
      <point x="105.667" y="579"/>
      <point x="113.333" y="576.667"/>
      <point x="122" y="572" type="curve" smooth="yes"/>
      <point x="486" y="362" type="line" smooth="yes"/>
      <point x="512.667" y="346"/>
      <point x="512.667" y="318"/>
      <point x="486" y="302" type="curve" smooth="yes"/>
    </contour>
  </outline>
</glyph>
<glyph name="question" format="1">
  <advance width="545"/>
  <unicode hex="003F"/>
  <outline>
    <contour>
      <point x="293" y="61.5" type="curve"/>
      <point x="352.209" y="21.5752"/>
      <point x="259.654" y="-47.3693"/>
      <point x="218" y="-4" type="curve"/>
      <point x="161.667" y="35.585"/>
      <point x="250.667" y="106.307"/>
    </contour>
    <contour>
      <point x="256" y="156" type="curve" smooth="yes"/>
      <point x="240" y="156"/>
      <point x="225" y="166"/>
      <point x="225" y="194" type="curve" smooth="yes"/>
      <point x="225" y="342" type="line"/>
      <point x="386" y="386" type="line" smooth="yes"/>
      <point x="418" y="394"/>
      <point x="442" y="433.167"/>
      <point x="442" y="484.5" type="curve" smooth="yes"/>
      <point x="442" y="535.833"/>
      <point x="415.333" y="592"/>
      <point x="350" y="592" type="curve" smooth="yes"/>
      <point x="257" y="592" type="line" smooth="yes"/>
      <point x="134.333" y="592"/>
      <point x="101" y="576.333"/>
      <point x="101" y="471" type="curve" smooth="yes"/>
      <point x="101" y="445.667"/>
      <point x="90.5" y="433"/>
      <point x="69.5" y="433" type="curve" smooth="yes"/>
      <point x="48.5" y="433"/>
      <point x="38" y="445.667"/>
      <point x="38" y="471" type="curve" smooth="yes"/>
      <point x="38" y="547"/>
      <point x="58.3333" y="597.333"/>
      <point x="99" y="622" type="curve" smooth="yes"/>
      <point x="140.333" y="647.333"/>
      <point x="183.667" y="654"/>
      <point x="257" y="654" type="curve" smooth="yes"/>
      <point x="333" y="654" type="line" smooth="yes"/>
      <point x="454.333" y="654"/>
      <point x="504" y="577.167"/>
      <point x="504" y="484.5" type="curve" smooth="yes"/>
      <point x="504" y="391.833"/>
      <point x="469" y="345.667"/>
      <point x="373" y="319" type="curve" smooth="yes"/>
      <point x="287" y="295" type="line"/>
      <point x="287" y="194" type="line" smooth="yes"/>
      <point x="287" y="168.667"/>
      <point x="276.667" y="156"/>
    </contour>
  </outline>
</glyph>
<glyph name="at" format="1">
  <advance width="603"/>
  <unicode hex="0040"/>
  <outline>
    <contour>
      <point x="70" y="241" type="curve" smooth="yes"/>
      <point x="70" y="395" type="line" smooth="yes"/>
      <point x="70" y="551"/>
      <point x="156" y="646"/>
      <point x="288" y="646" type="curve" smooth="yes"/>
      <point x="317" y="646" type="line" smooth="yes"/>
      <point x="449" y="646"/>
      <point x="535" y="551"/>
      <point x="535" y="395" type="curve" smooth="yes"/>
      <point x="535" y="315.667"/>
      <point x="524" y="264"/>
      <point x="502" y="240" type="curve" smooth="yes"/>
      <point x="476.667" y="212"/>
      <point x="442" y="194"/>
      <point x="398" y="186" type="curve" smooth="yes"/>
      <point x="372" y="182"/>
      <point x="341.333" y="180"/>
      <point x="306" y="180" type="curve" smooth="yes"/>
      <point x="255.333" y="180"/>
      <point x="220.833" y="191.833"/>
      <point x="202.5" y="215.5" type="curve" smooth="yes"/>
      <point x="184.167" y="239.167"/>
      <point x="175" y="277.833"/>
      <point x="175" y="331.5" type="curve" smooth="yes"/>
      <point x="175" y="385.167"/>
      <point x="184.333" y="423.833"/>
      <point x="203" y="447.5" type="curve" smooth="yes"/>
      <point x="221.667" y="471.167"/>
      <point x="256.167" y="483"/>
      <point x="306.5" y="483" type="curve" smooth="yes"/>
      <point x="407.167" y="483"/>
      <point x="438" y="438.667"/>
      <point x="438" y="332" type="curve" smooth="yes"/>
      <point x="438" y="300.667"/>
      <point x="435.333" y="276"/>
      <point x="430" y="258" type="curve"/>
      <point x="463.333" y="268.667"/>
      <point x="473" y="294.833"/>
      <point x="473" y="403.5" type="curve" smooth="yes"/>
      <point x="473" y="512.167"/>
      <point x="419.667" y="584"/>
      <point x="317" y="584" type="curve" smooth="yes"/>
      <point x="288" y="584" type="line" smooth="yes"/>
      <point x="184" y="584"/>
      <point x="132" y="515"/>
      <point x="132" y="395" type="curve" smooth="yes"/>
      <point x="132" y="241" type="line" smooth="yes"/>
      <point x="132" y="121"/>
      <point x="184" y="52"/>
      <point x="288" y="52" type="curve" smooth="yes"/>
      <point x="422" y="52" type="line" smooth="yes"/>
      <point x="441.333" y="52"/>
      <point x="454.667" y="56"/>
      <point x="462" y="64" type="curve" smooth="yes"/>
      <point x="469.333" y="72"/>
      <point x="473" y="87.8333"/>
      <point x="473" y="111.5" type="curve" smooth="yes"/>
      <point x="473" y="135.167"/>
      <point x="483.333" y="147"/>
      <point x="504" y="147" type="curve" smooth="yes"/>
      <point x="524.667" y="147"/>
      <point x="535" y="131.5"/>
      <point x="535" y="100.5" type="curve" smooth="yes"/>
      <point x="535" y="38.5"/>
      <point x="513" y="-10"/>
      <point x="429" y="-10" type="curve" smooth="yes"/>
      <point x="288" y="-10" type="line" smooth="yes"/>
      <point x="156" y="-10"/>
      <point x="70" y="85"/>
    </contour>
    <contour>
      <point x="237" y="331.5" type="curve" smooth="yes"/>
      <point x="237" y="257.5"/>
      <point x="245.833" y="242"/>
      <point x="306.5" y="242" type="curve" smooth="yes"/>
      <point x="367.167" y="242"/>
      <point x="376" y="257.5"/>
      <point x="376" y="331.5" type="curve" smooth="yes"/>
      <point x="376" y="405.5"/>
      <point x="367.167" y="421"/>
      <point x="306.5" y="421" type="curve" smooth="yes"/>
      <point x="245.833" y="421"/>
      <point x="237" y="405.5"/>
    </contour>
  </outline>
</glyph>
<glyph name="A" format="1">
  <advance width="590"/>
  <unicode hex="0041"/>
  <outline>
    <contour>
      <point x="331" y="636" type="line"/>
      <point x="563" y="31" type="line"/>
      <point x="570.03" y="9.91026"/>
      <point x="561.543" y="-16"/>
      <point x="535" y="-16" type="curve" smooth="yes"/>
      <point x="520.333" y="-16"/>
      <point x="509.667" y="-7.33333"/>
      <point x="503" y="10" type="curve" smooth="yes"/>
      <point x="433" y="194" type="line"/>
      <point x="157" y="194" type="line"/>
      <point x="87" y="10" type="line" smooth="yes"/>
      <point x="79.6667" y="-7.33333"/>
      <point x="69" y="-16"/>
      <point x="55" y="-16" type="curve" smooth="yes"/>
      <point x="28.4573" y="-16"/>
      <point x="19.9701" y="9.91026"/>
      <point x="27" y="31" type="curve"/>
      <point x="259" y="636" type="line"/>
    </contour>
    <contour>
      <point x="409" y="256" type="line"/>
      <point x="294" y="546" type="line"/>
      <point x="181" y="256" type="line"/>
    </contour>
  </outline>
</glyph>
<glyph name="B" format="1">
  <advance width="624"/>
  <unicode hex="0042"/>
  <outline>
    <contour>
      <point x="343" y="317" type="curve" smooth="yes"/>
      <point x="146" y="317" type="line"/>
      <point x="146" y="62" type="line"/>
      <point x="331" y="62" type="line" smooth="yes"/>
      <point x="469.667" y="62"/>
      <point x="506" y="78.3333"/>
      <point x="506" y="181" type="curve" smooth="yes"/>
      <point x="506" y="198" type="line" smooth="yes"/>
      <point x="506" y="300.667"/>
      <point x="469.667" y="317"/>
    </contour>
    <contour>
      <point x="84" y="40" type="curve" smooth="yes"/>
      <point x="84" y="596" type="line" smooth="yes"/>
      <point x="84" y="622.667"/>
      <point x="93.6667" y="636"/>
      <point x="113" y="636" type="curve" smooth="yes"/>
      <point x="297" y="636" type="line" smooth="yes"/>
      <point x="375" y="636"/>
      <point x="432.667" y="624.667"/>
      <point x="470" y="602" type="curve" smooth="yes"/>
      <point x="507.333" y="580.667"/>
      <point x="526" y="542"/>
      <point x="526" y="486" type="curve" smooth="yes"/>
      <point x="526" y="430"/>
      <point x="511.333" y="389.667"/>
      <point x="482" y="365" type="curve"/>
      <point x="539.333" y="340.333"/>
      <point x="568" y="285.667"/>
      <point x="568" y="201" type="curve" smooth="yes"/>
      <point x="568" y="182" type="line" smooth="yes"/>
      <point x="568" y="36.6667"/>
      <point x="497.667" y="0"/>
      <point x="331" y="0" type="curve" smooth="yes"/>
      <point x="113" y="0" type="line" smooth="yes"/>
      <point x="93.6667" y="0"/>
      <point x="84" y="13.3333"/>
    </contour>
    <contour>
      <point x="297" y="379" type="line" smooth="yes"/>
      <point x="423.667" y="379"/>
      <point x="464" y="396.667"/>
      <point x="464" y="474" type="curve" smooth="yes"/>
      <point x="464" y="551.333"/>
      <point x="421" y="569"/>
      <point x="297" y="569" type="curve" smooth="yes"/>
      <point x="146" y="569" type="line"/>
      <point x="146" y="379" type="line"/>
    </contour>
  </outline>
</glyph>
<glyph name="C" format="1">
  <advance width="610"/>
  <unicode hex="0043"/>
  <outline>
    <contour>
      <point x="450" y="0" type="curve" smooth="yes"/>
      <point x="309" y="0" type="line" smooth="yes"/>
      <point x="142.333" y="0"/>
      <point x="71" y="36.6667"/>
      <point x="71" y="182" type="curve" smooth="yes"/>
      <point x="71" y="454" type="line" smooth="yes"/>
      <point x="71" y="598"/>
      <point x="141" y="636"/>
      <point x="297" y="636" type="curve" smooth="yes"/>
      <point x="450" y="636" type="line" smooth="yes"/>
      <point x="534" y="636"/>
      <point x="555" y="589.667"/>
      <point x="555" y="519" type="curve" smooth="yes"/>
      <point x="555" y="492.333"/>
      <point x="544.667" y="479"/>
      <point x="524" y="479" type="curve"/>
      <point x="523.333" y="479"/>
      <point x="522.667" y="479"/>
      <point x="522" y="479" type="curve"/>
      <point x="502.667" y="479"/>
      <point x="493" y="490.667"/>
      <point x="493" y="514" type="curve" smooth="yes"/>
      <point x="493" y="562"/>
      <point x="481.667" y="574"/>
      <point x="443" y="574" type="curve" smooth="yes"/>
      <point x="297" y="574" type="line" smooth="yes"/>
      <point x="169" y="574"/>
      <point x="133" y="557"/>
      <point x="133" y="453" type="curve" smooth="yes"/>
      <point x="133" y="183" type="line" smooth="yes"/>
      <point x="133" y="77.6667"/>
      <point x="169" y="62"/>
      <point x="309" y="62" type="curve" smooth="yes"/>
      <point x="443" y="62" type="line" smooth="yes"/>
      <point x="462.333" y="62"/>
      <point x="475.5" y="66.1667"/>
      <point x="482.5" y="74.5" type="curve" smooth="yes"/>
      <point x="489.5" y="82.8333"/>
      <point x="493" y="98.6667"/>
      <point x="493" y="122" type="curve" smooth="yes"/>
      <point x="493" y="145.333"/>
      <point x="503.333" y="157"/>
      <point x="524" y="157" type="curve"/>
      <point x="544.667" y="156.333"/>
      <point x="555" y="140.667"/>
      <point x="555" y="110" type="curve" smooth="yes"/>
      <point x="555" y="48.6667"/>
      <point x="534" y="0"/>
    </contour>
  </outline>
</glyph>
<glyph name="D" format="1">
  <advance width="639"/>
  <unicode hex="0044"/>
  <outline>
    <contour>
      <point x="568" y="454" type="curve" smooth="yes"/>
      <point x="568" y="182" type="line" smooth="yes"/>
      <point x="568" y="36.6667"/>
      <point x="497.667" y="0"/>
      <point x="331" y="0" type="curve" smooth="yes"/>
      <point x="113" y="0" type="line" smooth="yes"/>
      <point x="93.6667" y="0"/>
      <point x="84" y="13.3333"/>
      <point x="84" y="40" type="curve" smooth="yes"/>
      <point x="84" y="596" type="line" smooth="yes"/>
      <point x="84" y="622.667"/>
      <point x="93.6667" y="636"/>
      <point x="113" y="636" type="curve" smooth="yes"/>
      <point x="343" y="636" type="line" smooth="yes"/>
      <point x="497.667" y="636"/>
      <point x="568" y="598"/>
    </contour>
    <contour>
      <point x="506" y="183" type="curve" smooth="yes"/>
      <point x="506" y="453" type="line" smooth="yes"/>
      <point x="506" y="558.333"/>
      <point x="469.667" y="574"/>
      <point x="343" y="574" type="curve" smooth="yes"/>
      <point x="146" y="574" type="line"/>
      <point x="146" y="62" type="line"/>
      <point x="331" y="62" type="line" smooth="yes"/>
      <point x="469.667" y="62"/>
      <point x="506" y="77.6667"/>
    </contour>
  </outline>
</glyph>
<glyph name="E" format="1">
  <advance width="617"/>
  <unicode hex="0045"/>
  <outline>
    <contour>
      <point x="146" y="327" type="line"/>
      <point x="146" y="62" type="line"/>
      <point x="529" y="62" type="line" smooth="yes"/>
      <point x="555" y="62"/>
      <point x="568" y="51"/>
      <point x="568" y="29" type="curve" smooth="yes"/>
      <point x="568" y="9.66667"/>
      <point x="555" y="0"/>
      <point x="529" y="0" type="curve" smooth="yes"/>
      <point x="113" y="0" type="line" smooth="yes"/>
      <point x="93.6667" y="0"/>
      <point x="84" y="13.3333"/>
      <point x="84" y="40" type="curve" smooth="yes"/>
      <point x="84" y="596" type="line" smooth="yes"/>
      <point x="84" y="622.667"/>
      <point x="93.6667" y="636"/>
      <point x="113" y="636" type="curve" smooth="yes"/>
      <point x="529" y="636" type="line" smooth="yes"/>
      <point x="555" y="636"/>
      <point x="568" y="625"/>
      <point x="568" y="603" type="curve" smooth="yes"/>
      <point x="568" y="583.667"/>
      <point x="555" y="574"/>
      <point x="529" y="574" type="curve" smooth="yes"/>
      <point x="146" y="574" type="line"/>
      <point x="146" y="389" type="line"/>
      <point x="408" y="389" type="line" smooth="yes"/>
      <point x="436.667" y="389"/>
      <point x="451" y="378"/>
      <point x="451" y="356" type="curve" smooth="yes"/>
      <point x="451" y="336.667"/>
      <point x="436.667" y="327"/>
      <point x="408" y="327" type="curve" smooth="yes"/>
    </contour>
  </outline>
</glyph>
<glyph name="F" format="1">
  <advance width="596"/>
  <unicode hex="0046"/>
  <outline>
    <contour>
      <point x="146" y="31" type="line" smooth="yes"/>
      <point x="146" y="5.66667"/>
      <point x="135.667" y="-7"/>
      <point x="115" y="-7" type="curve" smooth="yes"/>
      <point x="94.3333" y="-7"/>
      <point x="84" y="6"/>
      <point x="84" y="32" type="curve" smooth="yes"/>
      <point x="84" y="596" type="line" smooth="yes"/>
      <point x="84" y="622.667"/>
      <point x="93.6667" y="636"/>
      <point x="113" y="636" type="curve" smooth="yes"/>
      <point x="529" y="636" type="line" smooth="yes"/>
      <point x="555" y="636"/>
      <point x="568" y="625"/>
      <point x="568" y="603" type="curve" smooth="yes"/>
      <point x="568" y="583.667"/>
      <point x="555" y="574"/>
      <point x="529" y="574" type="curve" smooth="yes"/>
      <point x="146" y="574" type="line"/>
      <point x="146" y="389" type="line"/>
      <point x="408" y="389" type="line" smooth="yes"/>
      <point x="436.667" y="389"/>
      <point x="451" y="378"/>
      <point x="451" y="356" type="curve" smooth="yes"/>
      <point x="451" y="336.667"/>
      <point x="436.667" y="327"/>
      <point x="408" y="327" type="curve" smooth="yes"/>
      <point x="146" y="327" type="line"/>
    </contour>
  </outline>
</glyph>
<glyph name="G" format="1">
  <advance width="625"/>
  <unicode hex="0047"/>
  <outline>
    <contour>
      <point x="493" y="241" type="line"/>
      <point x="364" y="241" type="line" smooth="yes"/>
      <point x="335.333" y="241"/>
      <point x="321" y="251.333"/>
      <point x="321" y="272" type="curve" smooth="yes"/>
      <point x="321" y="292.667"/>
      <point x="335.333" y="303"/>
      <point x="364" y="303" type="curve" smooth="yes"/>
      <point x="555" y="303" type="line"/>
      <point x="555" y="112" type="line" smooth="yes"/>
      <point x="555" y="57.1333"/>
      <point x="543.4" y="0"/>
      <point x="450" y="0" type="curve" smooth="yes"/>
      <point x="297" y="0" type="line" smooth="yes"/>
      <point x="141" y="0"/>
      <point x="71" y="36.3333"/>
      <point x="71" y="179" type="curve" smooth="yes"/>
      <point x="71" y="457" type="line" smooth="yes"/>
      <point x="71" y="601"/>
      <point x="142.333" y="636"/>
      <point x="309" y="636" type="curve" smooth="yes"/>
      <point x="450" y="636" type="line" smooth="yes"/>
      <point x="492" y="636"/>
      <point x="520" y="625.333"/>
      <point x="534" y="604" type="curve" smooth="yes"/>
      <point x="548" y="582.667"/>
      <point x="555" y="556.667"/>
      <point x="555" y="526" type="curve" smooth="yes"/>
      <point x="555" y="495.333"/>
      <point x="544.667" y="480"/>
      <point x="524" y="480" type="curve"/>
      <point x="522.667" y="480"/>
      <point x="521.667" y="480"/>
      <point x="521" y="480" type="curve"/>
      <point x="502.333" y="480"/>
      <point x="493" y="491.333"/>
      <point x="493" y="514" type="curve" smooth="yes"/>
      <point x="493" y="562"/>
      <point x="481.667" y="574"/>
      <point x="443" y="574" type="curve" smooth="yes"/>
      <point x="309" y="574" type="line" smooth="yes"/>
      <point x="170.333" y="574"/>
      <point x="133" y="557.667"/>
      <point x="133" y="455" type="curve" smooth="yes"/>
      <point x="133" y="181" type="line" smooth="yes"/>
      <point x="133" y="78.3333"/>
      <point x="169" y="62"/>
      <point x="297" y="62" type="curve" smooth="yes"/>
      <point x="443" y="62" type="line" smooth="yes"/>
      <point x="483" y="62"/>
      <point x="493" y="74.6667"/>
      <point x="493" y="116" type="curve" smooth="yes"/>
    </contour>
  </outline>
</glyph>
<glyph name="H" format="1">
  <advance width="652"/>
  <unicode hex="0048"/>
  <outline>
    <contour>
      <point x="146" y="31" type="line" smooth="yes"/>
      <point x="146" y="5.66667"/>
      <point x="135.667" y="-7"/>
      <point x="115" y="-7" type="curve" smooth="yes"/>
      <point x="94.3333" y="-7"/>
      <point x="84" y="5.66667"/>
      <point x="84" y="31" type="curve" smooth="yes"/>
      <point x="84" y="604" type="line" smooth="yes"/>
      <point x="84" y="630"/>
      <point x="93.6667" y="643"/>
      <point x="113" y="643" type="curve" smooth="yes"/>
      <point x="135" y="643"/>
      <point x="146" y="630"/>
      <point x="146" y="604" type="curve" smooth="yes"/>
      <point x="146" y="374" type="line"/>
      <point x="506" y="374" type="line"/>
      <point x="506" y="604" type="line" smooth="yes"/>
      <point x="506" y="630"/>
      <point x="516.333" y="643"/>
      <point x="537" y="643" type="curve" smooth="yes"/>
      <point x="557.667" y="643"/>
      <point x="568" y="630"/>
      <point x="568" y="604" type="curve" smooth="yes"/>
      <point x="568" y="31" type="line" smooth="yes"/>
      <point x="568" y="5.66667"/>
      <point x="557.667" y="-7"/>
      <point x="537" y="-7" type="curve" smooth="yes"/>
      <point x="516.333" y="-7"/>
      <point x="506" y="5.66667"/>
      <point x="506" y="31" type="curve" smooth="yes"/>
      <point x="506" y="312" type="line"/>
      <point x="146" y="312" type="line"/>
    </contour>
  </outline>
</glyph>
<glyph name="I" format="1">
  <advance width="230"/>
  <unicode hex="0049"/>
  <outline>
    <contour>
      <point x="146" y="29" type="line" smooth="yes"/>
      <point x="146" y="5"/>
      <point x="135.667" y="-7"/>
      <point x="115" y="-7" type="curve" smooth="yes"/>
      <point x="94.3333" y="-7"/>
      <point x="84" y="5"/>
      <point x="84" y="29" type="curve" smooth="yes"/>
      <point x="84" y="606" type="line" smooth="yes"/>
      <point x="84" y="630.667"/>
      <point x="94.3333" y="643"/>
      <point x="115" y="643" type="curve" smooth="yes"/>
      <point x="135.667" y="643"/>
      <point x="146" y="630.667"/>
      <point x="146" y="606" type="curve" smooth="yes"/>
    </contour>
  </outline>
</glyph>
<glyph name="J" format="1">
  <advance width="571"/>
  <unicode hex="004A"/>
  <outline>
    <contour>
      <point x="428" y="173" type="curve" smooth="yes"/>
      <point x="428" y="607" type="line" smooth="yes"/>
      <point x="428" y="631"/>
      <point x="438.333" y="643"/>
      <point x="459" y="643" type="curve" smooth="yes"/>
      <point x="479.667" y="643"/>
      <point x="490" y="630.667"/>
      <point x="490" y="606" type="curve" smooth="yes"/>
      <point x="490" y="171" type="line" smooth="yes"/>
      <point x="490" y="28.3333"/>
      <point x="419.5" y="-8"/>
      <point x="261.5" y="-8" type="curve" smooth="yes"/>
      <point x="103.5" y="-8"/>
      <point x="33" y="29"/>
      <point x="33" y="177" type="curve" smooth="yes"/>
      <point x="33" y="202.333"/>
      <point x="44" y="215"/>
      <point x="66" y="215" type="curve" smooth="yes"/>
      <point x="84.6667" y="215"/>
      <point x="96" y="199.667"/>
      <point x="96" y="177" type="curve" smooth="yes"/>
      <point x="96" y="70.3333"/>
      <point x="131.5" y="54"/>
      <point x="261.5" y="54" type="curve" smooth="yes"/>
      <point x="391.5" y="54"/>
      <point x="428" y="70.3333"/>
    </contour>
  </outline>
</glyph>
<glyph name="K" format="1">
  <advance width="539"/>
  <unicode hex="004B"/>
  <outline>
    <contour>
      <point x="522" y="48" type="line"/>
      <point x="552.892" y="11.9597"/>
      <point x="508.231" y="-31.5668"/>
      <point x="474" y="10" type="curve"/>
      <point x="194" y="319" type="line"/>
      <point x="146" y="261" type="line"/>
      <point x="146" y="30" type="line" smooth="yes"/>
      <point x="146" y="5.33333"/>
      <point x="135.667" y="-7"/>
      <point x="115" y="-7" type="curve" smooth="yes"/>
      <point x="94.3333" y="-7"/>
      <point x="84" y="5"/>
      <point x="84" y="29" type="curve" smooth="yes"/>
      <point x="84" y="606" type="line" smooth="yes"/>
      <point x="84" y="630.667"/>
      <point x="94.3333" y="643"/>
      <point x="115" y="643" type="curve" smooth="yes"/>
      <point x="135.667" y="643"/>
      <point x="146" y="630.333"/>
      <point x="146" y="605" type="curve" smooth="yes"/>
      <point x="146" y="338" type="line"/>
      <point x="408" y="626" type="line"/>
      <point x="444.994" y="667.927"/>
      <point x="484.651" y="621.861"/>
      <point x="456" y="588" type="curve"/>
      <point x="237" y="355" type="line"/>
    </contour>
  </outline>
</glyph>
<glyph name="L" format="1">
  <advance width="535"/>
  <unicode hex="004C"/>
  <outline>
    <contour>
      <point x="113" y="0" type="line" smooth="yes"/>
      <point x="93.6667" y="0"/>
      <point x="84" y="13"/>
      <point x="84" y="39" type="curve" smooth="yes"/>
      <point x="84" y="607" type="line" smooth="yes"/>
      <point x="84" y="631"/>
      <point x="94.3333" y="643"/>
      <point x="115" y="643" type="curve" smooth="yes"/>
      <point x="135.667" y="643"/>
      <point x="146" y="631"/>
      <point x="146" y="607" type="curve" smooth="yes"/>
      <point x="146" y="62" type="line"/>
      <point x="474" y="62" type="line" smooth="yes"/>
      <point x="499.333" y="62"/>
      <point x="512" y="51.6667"/>
      <point x="512" y="31" type="curve" smooth="yes"/>
      <point x="512" y="10.3333"/>
      <point x="499.333" y="0"/>
      <point x="474" y="0" type="curve" smooth="yes"/>
    </contour>
  </outline>
</glyph>
<glyph name="M" format="1">
  <advance width="673"/>
  <unicode hex="004D"/>
  <outline>
    <contour>
      <point x="359" y="289" type="line"/>
      <point x="348.333" y="275.667"/>
      <point x="327.333" y="275.667"/>
      <point x="314" y="289" type="curve"/>
      <point x="146" y="534" type="line"/>
      <point x="146" y="33" type="line" smooth="yes"/>
      <point x="146" y="6.33333"/>
      <point x="135.667" y="-7"/>
      <point x="115" y="-7" type="curve" smooth="yes"/>
      <point x="94.3333" y="-7"/>
      <point x="84" y="5.66667"/>
      <point x="84" y="31" type="curve" smooth="yes"/>
      <point x="84" y="604" type="line" smooth="yes"/>
      <point x="84" y="630"/>
      <point x="93.6667" y="643"/>
      <point x="113" y="643" type="curve" smooth="yes"/>
      <point x="126.333" y="643"/>
      <point x="137.667" y="636"/>
      <point x="147" y="622" type="curve" smooth="yes"/>
      <point x="336" y="350" type="line"/>
      <point x="526" y="622" type="line" smooth="yes"/>
      <point x="536" y="636"/>
      <point x="547" y="643"/>
      <point x="559" y="643" type="curve" smooth="yes"/>
      <point x="579" y="643"/>
      <point x="589" y="630"/>
      <point x="589" y="604" type="curve" smooth="yes"/>
      <point x="589" y="31" type="line" smooth="yes"/>
      <point x="589" y="5.66667"/>
      <point x="578.667" y="-7"/>
      <point x="558" y="-7" type="curve" smooth="yes"/>
      <point x="537.333" y="-7"/>
      <point x="527" y="6.33333"/>
      <point x="527" y="33" type="curve" smooth="yes"/>
      <point x="527" y="534" type="line"/>
    </contour>
  </outline>
</glyph>
<glyph name="N" format="1">
  <advance width="652"/>
  <unicode hex="004E"/>
  <outline>
    <contour>
      <point x="538" y="-7" type="curve" smooth="yes"/>
      <point x="526.667" y="-7"/>
      <point x="518.667" y="-4.66667"/>
      <point x="514" y="0" type="curve"/>
      <point x="146" y="530" type="line"/>
      <point x="146" y="29" type="line" smooth="yes"/>
      <point x="146" y="5"/>
      <point x="135.667" y="-7"/>
      <point x="115" y="-7" type="curve" smooth="yes"/>
      <point x="94.3333" y="-7"/>
      <point x="84" y="5.66667"/>
      <point x="84" y="31" type="curve" smooth="yes"/>
      <point x="84" y="604" type="line" smooth="yes"/>
      <point x="84" y="630"/>
      <point x="93.6667" y="643"/>
      <point x="113" y="643" type="curve" smooth="yes"/>
      <point x="126.333" y="643"/>
      <point x="137.667" y="636"/>
      <point x="147" y="622" type="curve" smooth="yes"/>
      <point x="506" y="107" type="line"/>
      <point x="506" y="602" type="line" smooth="yes"/>
      <point x="506" y="629.333"/>
      <point x="516.333" y="643"/>
      <point x="537" y="643" type="curve" smooth="yes"/>
      <point x="557.667" y="643"/>
      <point x="568" y="630"/>
      <point x="568" y="604" type="curve" smooth="yes"/>
      <point x="568" y="31" type="line" smooth="yes"/>
      <point x="568" y="5.66667"/>
      <point x="558" y="-7"/>
    </contour>
  </outline>
</glyph>
<glyph name="O" format="1">
  <advance width="614"/>
  <unicode hex="004F"/>
  <outline>
    <contour>
      <point x="65" y="229" type="curve" smooth="yes"/>
      <point x="65" y="407" type="line" smooth="yes"/>
      <point x="65" y="555"/>
      <point x="163.167" y="645"/>
      <point x="306.5" y="645" type="curve" smooth="yes"/>
      <point x="449.833" y="645"/>
      <point x="549" y="555"/>
      <point x="549" y="407" type="curve" smooth="yes"/>
      <point x="549" y="229" type="line" smooth="yes"/>
      <point x="549" y="81"/>
      <point x="449.833" y="-9"/>
      <point x="306.5" y="-9" type="curve" smooth="yes"/>
      <point x="163.167" y="-9"/>
      <point x="65" y="81"/>
    </contour>
    <contour>
      <point x="127" y="405" type="curve" smooth="yes"/>
      <point x="127" y="231" type="line" smooth="yes"/>
      <point x="127" y="117.667"/>
      <point x="189.667" y="53"/>
      <point x="307" y="53" type="curve" smooth="yes"/>
      <point x="424.333" y="53"/>
      <point x="487" y="117.667"/>
      <point x="487" y="231" type="curve" smooth="yes"/>
      <point x="487" y="405" type="line" smooth="yes"/>
      <point x="487" y="517"/>
      <point x="423" y="583"/>
      <point x="307" y="583" type="curve" smooth="yes"/>
      <point x="191" y="583"/>
      <point x="127" y="517"/>
    </contour>
  </outline>
</glyph>
<glyph name="P" format="1">
  <advance width="560"/>
  <unicode hex="0050"/>
  <outline>
    <contour>
      <point x="146" y="29" type="line" smooth="yes"/>
      <point x="146" y="5"/>
      <point x="135.667" y="-7"/>
      <point x="115" y="-7" type="curve" smooth="yes"/>
      <point x="94.3333" y="-7"/>
      <point x="84" y="5"/>
      <point x="84" y="29" type="curve" smooth="yes"/>
      <point x="84" y="596" type="line" smooth="yes"/>
      <point x="84" y="622.667"/>
      <point x="93.6667" y="636"/>
      <point x="113" y="636" type="curve" smooth="yes"/>
      <point x="299" y="636" type="line" smooth="yes"/>
      <point x="451" y="636"/>
      <point x="526" y="596.667"/>
      <point x="526" y="486" type="curve" smooth="yes"/>
      <point x="526" y="375.333"/>
      <point x="459.667" y="322"/>
      <point x="345" y="322" type="curve" smooth="yes"/>
      <point x="146" y="322" type="line"/>
    </contour>
    <contour>
      <point x="299" y="384" type="line" smooth="yes"/>
      <point x="428.333" y="384"/>
      <point x="464" y="402.667"/>
      <point x="464" y="480" type="curve" smooth="yes"/>
      <point x="464" y="557.333"/>
      <point x="423" y="574"/>
      <point x="299" y="574" type="curve" smooth="yes"/>
      <point x="146" y="574" type="line"/>
      <point x="146" y="384" type="line"/>
    </contour>
  </outline>
</glyph>
<glyph name="Q" format="1">
  <advance width="614"/>
  <unicode hex="0051"/>
  <outline>
    <contour>
      <point x="127" y="405" type="curve" smooth="yes"/>
      <point x="127" y="231" type="line" smooth="yes"/>
      <point x="127" y="117.667"/>
      <point x="189.667" y="53"/>
      <point x="307" y="53" type="curve" smooth="yes"/>
      <point x="350.333" y="53"/>
      <point x="385.333" y="61"/>
      <point x="412" y="77" type="curve"/>
      <point x="359" y="124" type="line"/>
      <point x="319.996" y="152.603"/>
      <point x="366.105" y="206.895"/>
      <point x="407" y="166" type="curve" smooth="yes"/>
      <point x="457" y="118" type="line"/>
      <point x="477" y="147.333"/>
      <point x="487" y="185"/>
      <point x="487" y="231" type="curve" smooth="yes"/>
      <point x="487" y="405" type="line" smooth="yes"/>
      <point x="487" y="517"/>
      <point x="423" y="583"/>
      <point x="307" y="583" type="curve" smooth="yes"/>
      <point x="191" y="583"/>
      <point x="127" y="517"/>
    </contour>
    <contour>
      <point x="457" y="31" type="line"/>
      <point x="417" y="4.33333"/>
      <point x="364" y="-9"/>
      <point x="298" y="-9" type="curve" smooth="yes"/>
      <point x="166" y="-9"/>
      <point x="65" y="81"/>
      <point x="65" y="229" type="curve" smooth="yes"/>
      <point x="65" y="407" type="line" smooth="yes"/>
      <point x="65" y="555"/>
      <point x="163.167" y="645"/>
      <point x="306.5" y="645" type="curve" smooth="yes"/>
      <point x="449.833" y="645"/>
      <point x="549" y="555"/>
      <point x="549" y="407" type="curve" smooth="yes"/>
      <point x="549" y="229" type="line" smooth="yes"/>
      <point x="549" y="166.333"/>
      <point x="533.333" y="115"/>
      <point x="502" y="75" type="curve"/>
      <point x="534" y="45" type="line"/>
      <point x="567.304" y="11.6961"/>
      <point x="521.971" y="-33.9706"/>
      <point x="489" y="-1" type="curve" smooth="yes"/>
    </contour>
  </outline>
</glyph>
<glyph name="R" format="1">
  <advance width="589"/>
  <unicode hex="0052"/>
  <outline>
    <contour>
      <point x="414" y="329" type="curve"/>
      <point x="435.333" y="305.667"/>
      <point x="455.833" y="269.5"/>
      <point x="475.5" y="220.5" type="curve" smooth="yes"/>
      <point x="495.167" y="171.5"/>
      <point x="509.833" y="129.167"/>
      <point x="519.5" y="93.5" type="curve" smooth="yes"/>
      <point x="529.167" y="57.8333"/>
      <point x="534" y="35.6667"/>
      <point x="534" y="27" type="curve" smooth="yes"/>
      <point x="534" y="9.66667"/>
      <point x="520.667" y="-7"/>
      <point x="502" y="-7" type="curve" smooth="yes"/>
      <point x="483.333" y="-7"/>
      <point x="473.333" y="5.33333"/>
      <point x="472" y="30" type="curve" smooth="yes"/>
      <point x="470.667" y="54.6667"/>
      <point x="457" y="101.333"/>
      <point x="431" y="170" type="curve" smooth="yes"/>
      <point x="405" y="238.667"/>
      <point x="372.333" y="287.667"/>
      <point x="333" y="317" type="curve"/>
      <point x="146" y="317" type="line"/>
      <point x="146" y="29" type="line" smooth="yes"/>
      <point x="146" y="5"/>
      <point x="135.667" y="-7"/>
      <point x="115" y="-7" type="curve" smooth="yes"/>
      <point x="94.3333" y="-7"/>
      <point x="84" y="5"/>
      <point x="84" y="29" type="curve" smooth="yes"/>
      <point x="84" y="596" type="line" smooth="yes"/>
      <point x="84" y="622.667"/>
      <point x="93.6667" y="636"/>
      <point x="113" y="636" type="curve" smooth="yes"/>
      <point x="297" y="636" type="line" smooth="yes"/>
      <point x="451.667" y="636"/>
      <point x="526" y="599.333"/>
      <point x="526" y="478" type="curve" smooth="yes"/>
      <point x="526" y="398"/>
      <point x="484.667" y="346.333"/>
    </contour>
    <contour>
      <point x="146" y="379" type="line"/>
      <point x="297" y="379" type="line" smooth="yes"/>
      <point x="423.667" y="379"/>
      <point x="464" y="395.333"/>
      <point x="464" y="474" type="curve" smooth="yes"/>
      <point x="464" y="552.667"/>
      <point x="422.333" y="569"/>
      <point x="297" y="569" type="curve" smooth="yes"/>
      <point x="146" y="569" type="line"/>
    </contour>
  </outline>
</glyph>
<glyph name="S" format="1">
  <advance width="628"/>
  <unicode hex="0053"/>
  <outline>
    <contour>
      <point x="179" y="382" type="curve"/>
      <point x="435" y="332" type="line" smooth="yes"/>
      <point x="529.667" y="313.333"/>
      <point x="567" y="243.333"/>
      <point x="567" y="158" type="curve"/>
      <point x="566.333" y="115.333"/>
      <point x="554" y="78"/>
      <point x="530" y="46" type="curve" smooth="yes"/>
      <point x="502.667" y="10"/>
      <point x="456.667" y="-8"/>
      <point x="392" y="-8" type="curve"/>
      <point x="390.667" y="-8"/>
      <point x="389.333" y="-8"/>
      <point x="388" y="-8" type="curve"/>
      <point x="298" y="-8" type="line" smooth="yes"/>
      <point x="132.667" y="-8"/>
      <point x="61" y="29"/>
      <point x="61" y="177" type="curve" smooth="yes"/>
      <point x="61" y="202.333"/>
      <point x="72" y="215"/>
      <point x="94" y="215" type="curve" smooth="yes"/>
      <point x="112.667" y="215"/>
      <point x="124" y="199.667"/>
      <point x="124" y="177" type="curve" smooth="yes"/>
      <point x="124" y="70.3333"/>
      <point x="158" y="54"/>
      <point x="298" y="54" type="curve" smooth="yes"/>
      <point x="408" y="54" type="line" smooth="yes"/>
      <point x="432" y="54"/>
      <point x="452" y="60.6667"/>
      <point x="468" y="74" type="curve" smooth="yes"/>
      <point x="493.333" y="94.6667"/>
      <point x="506" y="121.667"/>
      <point x="506" y="155" type="curve" smooth="yes"/>
      <point x="506" y="190.333"/>
      <point x="499.333" y="217.333"/>
      <point x="486" y="236" type="curve" smooth="yes"/>
      <point x="474" y="254.667"/>
      <point x="461.667" y="265.333"/>
      <point x="449" y="268" type="curve" smooth="yes"/>
      <point x="195" y="320" type="line" smooth="yes"/>
      <point x="99" y="340"/>
      <point x="61" y="388.167"/>
      <point x="61" y="479.5" type="curve" smooth="yes"/>
      <point x="61" y="570.833"/>
      <point x="115.667" y="644"/>
      <point x="253" y="644" type="curve" smooth="yes"/>
      <point x="329" y="644" type="line" smooth="yes"/>
      <point x="411.667" y="644"/>
      <point x="458.667" y="637.333"/>
      <point x="504" y="612" type="curve" smooth="yes"/>
      <point x="546" y="588.667"/>
      <point x="567" y="539.667"/>
      <point x="567" y="465" type="curve" smooth="yes"/>
      <point x="567" y="437"/>
      <point x="556.333" y="423"/>
      <point x="535" y="423" type="curve"/>
      <point x="501.167" y="413.417"/>
      <point x="507.833" y="472.083"/>
      <point x="496.5" y="527" type="curve"/>
      <point x="472.167" y="576.833"/>
      <point x="433.583" y="582.417"/>
      <point x="329" y="582" type="curve"/>
      <point x="227" y="582" type="line"/>
      <point x="75.2353" y="574.235"/>
      <point x="117.902" y="384.902"/>
    </contour>
  </outline>
</glyph>
<glyph name="T" format="1">
  <advance width="500"/>
  <unicode hex="0054"/>
  <outline>
    <contour>
      <point x="435" y="636" type="line" smooth="yes"/>
      <point x="460.333" y="636"/>
      <point x="473" y="625.667"/>
      <point x="473" y="605" type="curve" smooth="yes"/>
      <point x="473" y="584.333"/>
      <point x="460.333" y="574"/>
      <point x="435" y="574" type="curve" smooth="yes"/>
      <point x="285" y="574" type="line"/>
      <point x="285" y="29" type="line" smooth="yes"/>
      <point x="285" y="2.33333"/>
      <point x="267.667" y="-7"/>
      <point x="249" y="-7" type="curve" smooth="yes"/>
      <point x="227" y="-7"/>
      <point x="216" y="5"/>
      <point x="216" y="29" type="curve" smooth="yes"/>
      <point x="216" y="574" type="line"/>
      <point x="64" y="574" type="line" smooth="yes"/>
      <point x="38.6667" y="574"/>
      <point x="26" y="584.333"/>
      <point x="26" y="605" type="curve" smooth="yes"/>
      <point x="26" y="625.667"/>
      <point x="38.6667" y="636"/>
      <point x="64" y="636" type="curve" smooth="yes"/>
    </contour>
  </outline>
</glyph>
<glyph name="U" format="1">
  <advance width="640"/>
  <unicode hex="0055"/>
  <outline>
    <contour>
      <point x="500" y="607" type="line" smooth="yes"/>
      <point x="500" y="631"/>
      <point x="510.333" y="643"/>
      <point x="531" y="643" type="curve" smooth="yes"/>
      <point x="551.667" y="643"/>
      <point x="562" y="630.667"/>
      <point x="562" y="606" type="curve" smooth="yes"/>
      <point x="562" y="229" type="line" smooth="yes"/>
      <point x="562" y="155"/>
      <point x="539.333" y="96.6667"/>
      <point x="494" y="54" type="curve" smooth="yes"/>
      <point x="450.667" y="11.3333"/>
      <point x="393.333" y="-10"/>
      <point x="322" y="-10" type="curve"/>
      <point x="321.333" y="-10"/>
      <point x="320.667" y="-10"/>
      <point x="320" y="-10" type="curve"/>
      <point x="176" y="-10"/>
      <point x="78" y="81"/>
      <point x="78" y="229" type="curve" smooth="yes"/>
      <point x="78" y="606" type="line" smooth="yes"/>
      <point x="78" y="630.667"/>
      <point x="88.3333" y="643"/>
      <point x="109" y="643" type="curve" smooth="yes"/>
      <point x="129.667" y="643"/>
      <point x="140" y="631"/>
      <point x="140" y="607" type="curve" smooth="yes"/>
      <point x="140" y="231" type="line" smooth="yes"/>
      <point x="140" y="117.667"/>
      <point x="202.667" y="53"/>
      <point x="320" y="53" type="curve" smooth="yes"/>
      <point x="437.333" y="53"/>
      <point x="500" y="117.667"/>
      <point x="500" y="231" type="curve" smooth="yes"/>
    </contour>
  </outline>
</glyph>
<glyph name="V" format="1">
  <advance width="590"/>
  <unicode hex="0056"/>
  <outline>
    <contour>
      <point x="503" y="626" type="line" smooth="yes"/>
      <point x="510.333" y="643.333"/>
      <point x="521" y="652"/>
      <point x="535" y="652" type="curve" smooth="yes"/>
      <point x="561.543" y="652"/>
      <point x="570.03" y="626.09"/>
      <point x="563" y="605" type="curve"/>
      <point x="331" y="0" type="line"/>
      <point x="259" y="0" type="line"/>
      <point x="27" y="605" type="line"/>
      <point x="19.9701" y="626.09"/>
      <point x="28.4573" y="652"/>
      <point x="55" y="652" type="curve" smooth="yes"/>
      <point x="68.3333" y="652"/>
      <point x="79" y="643.333"/>
      <point x="87" y="626" type="curve"/>
      <point x="296" y="90" type="line"/>
    </contour>
  </outline>
</glyph>
<glyph name="W" format="1">
  <advance width="935"/>
  <unicode hex="0057"/>
  <outline>
    <contour>
      <point x="679" y="84" type="line"/>
      <point x="846" y="624" type="line"/>
      <point x="859.333" y="657.333"/>
      <point x="908" y="657.333"/>
      <point x="908" y="624" type="curve" smooth="yes"/>
      <point x="908" y="620"/>
      <point x="906.667" y="614"/>
      <point x="904" y="606" type="curve" smooth="yes"/>
      <point x="711" y="0" type="line"/>
      <point x="645" y="0" type="line"/>
      <point x="467" y="542" type="line"/>
      <point x="290" y="0" type="line"/>
      <point x="225" y="0" type="line"/>
      <point x="31" y="610" type="line" smooth="yes"/>
      <point x="28.3333" y="618"/>
      <point x="27" y="624"/>
      <point x="27" y="628" type="curve" smooth="yes"/>
      <point x="27" y="661.333"/>
      <point x="75.6667" y="661.333"/>
      <point x="89" y="628" type="curve"/>
      <point x="258" y="84" type="line"/>
      <point x="432" y="623" type="line"/>
      <point x="445.333" y="661.667"/>
      <point x="490.667" y="662"/>
      <point x="504" y="622" type="curve" smooth="yes"/>
    </contour>
  </outline>
</glyph>
<glyph name="X" format="1">
  <advance width="582"/>
  <unicode hex="0058"/>
  <outline>
    <contour>
      <point x="485" y="623" type="line" smooth="yes"/>
      <point x="521.376" y="671.501"/>
      <point x="560.989" y="622.319"/>
      <point x="536" y="589" type="curve" smooth="yes"/>
      <point x="332" y="317" type="line"/>
      <point x="536" y="46" type="line" smooth="yes"/>
      <point x="561.015" y="12.6466"/>
      <point x="520.377" y="-34.4845"/>
      <point x="485" y="11" type="curve"/>
      <point x="291" y="273" type="line"/>
      <point x="98" y="11" type="line"/>
      <point x="61.7059" y="-34.1438"/>
      <point x="18.0392" y="16.634"/>
      <point x="47" y="46" type="curve"/>
      <point x="251" y="317" type="line"/>
      <point x="47" y="589" type="line"/>
      <point x="35" y="603.667"/>
      <point x="36" y="620.333"/>
      <point x="44" y="631" type="curve" smooth="yes"/>
      <point x="57.3333" y="647"/>
      <point x="79.3333" y="649.667"/>
      <point x="98" y="623" type="curve"/>
      <point x="291" y="362" type="line"/>
    </contour>
  </outline>
</glyph>
<glyph name="Y" format="1">
  <advance width="541"/>
  <unicode hex="0059"/>
  <outline>
    <contour>
      <point x="238" y="307" type="line"/>
      <point x="26" y="590" type="line"/>
      <point x="-0.784314" y="619.301"/>
      <point x="37.2157" y="671.19"/>
      <point x="76" y="623" type="curve"/>
      <point x="270" y="362" type="line"/>
      <point x="463" y="623" type="line"/>
      <point x="501.229" y="671.19"/>
      <point x="541.34" y="619.301"/>
      <point x="514" y="590" type="curve"/>
      <point x="303" y="307" type="line"/>
      <point x="303" y="28" type="line"/>
      <point x="302.333" y="4.66667"/>
      <point x="291.333" y="-7"/>
      <point x="270" y="-7" type="curve" smooth="yes"/>
      <point x="248.667" y="-7"/>
      <point x="238" y="4.66667"/>
      <point x="238" y="28" type="curve" smooth="yes"/>
    </contour>
  </outline>
</glyph>
<glyph name="Z" format="1">
  <advance width="580"/>
  <unicode hex="005A"/>
  <outline>
    <contour>
      <point x="49" y="0" type="line"/>
      <point x="49" y="58" type="line"/>
      <point x="455" y="574" type="line"/>
      <point x="89" y="574" type="line" smooth="yes"/>
      <point x="61.6667" y="574"/>
      <point x="48" y="584.333"/>
      <point x="48" y="605" type="curve" smooth="yes"/>
      <point x="48" y="625.667"/>
      <point x="61.6667" y="636"/>
      <point x="89" y="636" type="curve" smooth="yes"/>
      <point x="532" y="636" type="line"/>
      <point x="532" y="576" type="line"/>
      <point x="128" y="62" type="line"/>
      <point x="492" y="62" type="line" smooth="yes"/>
      <point x="518.667" y="62"/>
      <point x="532" y="51.6667"/>
      <point x="532" y="31" type="curve" smooth="yes"/>
      <point x="532" y="10.3333"/>
      <point x="518.667" y="0"/>
      <point x="492" y="0" type="curve" smooth="yes"/>
    </contour>
  </outline>
</glyph>
<glyph name="bracketleft" format="1">
  <advance width="267"/>
  <unicode hex="005B"/>
  <outline>
    <contour>
      <point x="142" y="10" type="line"/>
      <point x="220" y="10" type="line"/>
      <point x="220" y="-52" type="line"/>
      <point x="80" y="-52" type="line"/>
      <point x="80" y="688" type="line"/>
      <point x="220" y="688" type="line"/>
      <point x="220" y="626" type="line"/>
      <point x="142" y="626" type="line"/>
    </contour>
  </outline>
</glyph>
<glyph name="backslash" format="1">
  <advance width="367"/>
  <unicode hex="005C"/>
  <outline>
    <contour>
      <point x="45" y="606" type="line"/>
      <point x="39.4738" y="633.631"/>
      <point x="43.7876" y="655"/>
      <point x="74" y="655" type="curve" smooth="yes"/>
      <point x="87.3333" y="655"/>
      <point x="97.3333" y="646.333"/>
      <point x="104" y="629" type="curve" smooth="yes"/>
      <point x="322" y="30" type="line"/>
      <point x="328.084" y="5.66504"/>
      <point x="322.2" y="-18"/>
      <point x="294" y="-18" type="curve" smooth="yes"/>
      <point x="280" y="-18"/>
      <point x="269.667" y="-9.33333"/>
      <point x="263" y="8" type="curve" smooth="yes"/>
    </contour>
  </outline>
</glyph>
<glyph name="bracketright" format="1">
  <advance width="267"/>
  <unicode hex="005D"/>
  <outline>
    <contour>
      <point x="125" y="10" type="line"/>
      <point x="125" y="626" type="line"/>
      <point x="47" y="626" type="line"/>
      <point x="47" y="688" type="line"/>
      <point x="187" y="688" type="line"/>
      <point x="187" y="-52" type="line"/>
      <point x="47" y="-52" type="line"/>
      <point x="47" y="10" type="line"/>
    </contour>
  </outline>
</glyph>
<glyph name="asciicircum" format="1">
  <advance width="443"/>
  <unicode hex="005E"/>
  <outline>
    <contour>
      <point x="136" y="379" type="line" smooth="yes"/>
      <point x="129.333" y="363"/>
      <point x="118.333" y="355"/>
      <point x="103" y="355" type="curve" smooth="yes"/>
      <point x="95" y="355"/>
      <point x="88.3333" y="357.667"/>
      <point x="83" y="363" type="curve" smooth="yes"/>
      <point x="72.3333" y="375"/>
      <point x="74.3333" y="390.333"/>
      <point x="77" y="397" type="curve" smooth="yes"/>
      <point x="189" y="646" type="line"/>
      <point x="255" y="646" type="line"/>
      <point x="366" y="397" type="line" smooth="yes"/>
      <point x="367.333" y="393.667"/>
      <point x="368" y="389"/>
      <point x="368" y="383" type="curve" smooth="yes"/>
      <point x="368" y="364.333"/>
      <point x="358.667" y="355"/>
      <point x="340" y="355" type="curve" smooth="yes"/>
      <point x="325.333" y="355"/>
      <point x="314" y="363"/>
      <point x="306" y="379" type="curve"/>
      <point x="222" y="569" type="line"/>
    </contour>
  </outline>
</glyph>
<glyph name="underscore" format="1">
  <advance width="475"/>
  <unicode hex="005F"/>
  <outline>
    <contour>
      <point x="28" y="10" type="curve" smooth="yes"/>
      <point x="447" y="10" type="line" smooth="yes"/>
      <point x="472.333" y="10"/>
      <point x="485" y="-0.333333"/>
      <point x="485" y="-21" type="curve" smooth="yes"/>
      <point x="485" y="-41.6667"/>
      <point x="472.333" y="-52"/>
      <point x="447" y="-52" type="curve" smooth="yes"/>
      <point x="28" y="-52" type="line" smooth="yes"/>
      <point x="2.66667" y="-52"/>
      <point x="-10" y="-41.6667"/>
      <point x="-10" y="-21" type="curve" smooth="yes"/>
      <point x="-10" y="-0.333333"/>
      <point x="2.66667" y="10"/>
    </contour>
  </outline>
</glyph>
<glyph name="grave" format="1">
  <advance width="212"/>
  <unicode hex="0060"/>
  <outline>
    <contour>
      <point x="83" y="671" type="curve"/>
      <point x="179" y="556" type="line" smooth="yes"/>
      <point x="206.834" y="522.599"/>
      <point x="169.845" y="474.665"/>
      <point x="130" y="517" type="curve"/>
      <point x="34" y="632" type="line" smooth="yes"/>
      <point x="27.3333" y="639.333"/>
      <point x="24" y="647.667"/>
      <point x="24" y="657" type="curve" smooth="yes"/>
      <point x="24" y="686.112"/>
      <point x="56.1747" y="701.402"/>
    </contour>
  </outline>
</glyph>
<glyph name="a" format="1">
  <advance width="573"/>
  <unicode hex="0061"/>
  <outline>
    <contour>
      <point x="298" y="238" type="line" smooth="yes"/>
      <point x="156.667" y="238"/>
      <point x="122" y="222.333"/>
      <point x="122" y="121" type="curve" smooth="yes"/>
      <point x="122" y="90.3333"/>
      <point x="148" y="62"/>
      <point x="172" y="62" type="curve" smooth="yes"/>
      <point x="265" y="62" type="line" smooth="yes"/>
      <point x="381.667" y="62"/>
      <point x="440" y="117.333"/>
      <point x="440" y="228" type="curve" smooth="yes"/>
      <point x="440" y="238" type="line"/>
    </contour>
    <contour>
      <point x="298" y="300" type="curve" smooth="yes"/>
      <point x="440" y="300" type="line"/>
      <point x="440" y="350" type="line" smooth="yes"/>
      <point x="440" y="387.333"/>
      <point x="428.667" y="399"/>
      <point x="390" y="399" type="curve" smooth="yes"/>
      <point x="249" y="399" type="line" smooth="yes"/>
      <point x="164.333" y="399"/>
      <point x="122" y="380.667"/>
      <point x="122" y="344" type="curve" smooth="yes"/>
      <point x="122" y="317.333"/>
      <point x="111.667" y="304"/>
      <point x="91" y="304" type="curve" smooth="yes"/>
      <point x="70.3333" y="304"/>
      <point x="60" y="317.333"/>
      <point x="60" y="344" type="curve" smooth="yes"/>
      <point x="60" y="422"/>
      <point x="120.667" y="461"/>
      <point x="242" y="461" type="curve" smooth="yes"/>
      <point x="397" y="461" type="line" smooth="yes"/>
      <point x="478.333" y="461"/>
      <point x="502" y="426.333"/>
      <point x="502" y="333" type="curve" smooth="yes"/>
      <point x="502" y="31" type="line" smooth="yes"/>
      <point x="502" y="5.66667"/>
      <point x="491.667" y="-7"/>
      <point x="471" y="-7" type="curve" smooth="yes"/>
      <point x="450.333" y="-7"/>
      <point x="440" y="6.33333"/>
      <point x="440" y="33" type="curve" smooth="yes"/>
      <point x="440" y="56" type="line"/>
      <point x="400.667" y="18.6667"/>
      <point x="342.333" y="0"/>
      <point x="265" y="0" type="curve" smooth="yes"/>
      <point x="172" y="0" type="line" smooth="yes"/>
      <point x="106.667" y="0"/>
      <point x="60" y="50"/>
      <point x="60" y="126" type="curve" smooth="yes"/>
      <point x="60" y="262"/>
      <point x="134" y="300"/>
    </contour>
  </outline>
</glyph>
<glyph name="b" format="1">
  <advance width="641"/>
  <unicode hex="0062"/>
  <outline>
    <contour>
      <point x="137" y="405" type="line"/>
      <point x="177" y="442.333"/>
      <point x="235.667" y="461"/>
      <point x="313" y="461" type="curve" smooth="yes"/>
      <point x="342" y="461" type="line" smooth="yes"/>
      <point x="507.333" y="461"/>
      <point x="579" y="424"/>
      <point x="579" y="284" type="curve" smooth="yes"/>
      <point x="579" y="177" type="line" smooth="yes"/>
      <point x="579" y="37"/>
      <point x="507.333" y="0"/>
      <point x="342" y="0" type="curve" smooth="yes"/>
      <point x="313" y="0" type="line" smooth="yes"/>
      <point x="235.667" y="0"/>
      <point x="177" y="18.6667"/>
      <point x="137" y="56" type="curve"/>
      <point x="137" y="33" type="line" smooth="yes"/>
      <point x="137" y="6.33333"/>
      <point x="126.667" y="-7"/>
      <point x="106" y="-7" type="curve" smooth="yes"/>
      <point x="85.3333" y="-7"/>
      <point x="75" y="5.66667"/>
      <point x="75" y="31" type="curve" smooth="yes"/>
      <point x="75" y="602" type="line" smooth="yes"/>
      <point x="75" y="629.333"/>
      <point x="84.6667" y="643"/>
      <point x="104" y="643" type="curve" smooth="yes"/>
      <point x="126" y="643"/>
      <point x="137" y="629.333"/>
      <point x="137" y="602" type="curve" smooth="yes"/>
    </contour>
    <contour>
      <point x="313" y="399" type="line" smooth="yes"/>
      <point x="195.667" y="399"/>
      <point x="137" y="343.333"/>
      <point x="137" y="232" type="curve" smooth="yes"/>
      <point x="137" y="228" type="line" smooth="yes"/>
      <point x="137" y="117.333"/>
      <point x="195.667" y="62"/>
      <point x="313" y="62" type="curve" smooth="yes"/>
      <point x="342" y="62" type="line" smooth="yes"/>
      <point x="480.667" y="62"/>
      <point x="517" y="76.3333"/>
      <point x="517" y="179" type="curve" smooth="yes"/>
      <point x="517" y="282" type="line" smooth="yes"/>
      <point x="517" y="384.667"/>
      <point x="480.667" y="399"/>
      <point x="342" y="399" type="curve" smooth="yes"/>
    </contour>
  </outline>
</glyph>
<glyph name="c" format="1">
  <advance width="604"/>
  <unicode hex="0063"/>
  <outline>
    <contour>
      <point x="441" y="0" type="curve" smooth="yes"/>
      <point x="300" y="0" type="line" smooth="yes"/>
      <point x="133.333" y="0"/>
      <point x="62" y="37"/>
      <point x="62" y="177" type="curve" smooth="yes"/>
      <point x="62" y="284" type="line" smooth="yes"/>
      <point x="62" y="424"/>
      <point x="133.333" y="461"/>
      <point x="300" y="461" type="curve" smooth="yes"/>
      <point x="441" y="461" type="line" smooth="yes"/>
      <point x="485.667" y="461"/>
      <point x="515" y="448.333"/>
      <point x="529" y="423" type="curve" smooth="yes"/>
      <point x="540.333" y="402.333"/>
      <point x="546" y="377.333"/>
      <point x="546" y="348" type="curve" smooth="yes"/>
      <point x="546" y="318.667"/>
      <point x="535.667" y="304"/>
      <point x="515" y="304" type="curve" smooth="yes"/>
      <point x="494.333" y="304"/>
      <point x="484" y="315.833"/>
      <point x="484" y="339.5" type="curve" smooth="yes"/>
      <point x="484" y="386.833"/>
      <point x="472.667" y="399"/>
      <point x="434" y="399" type="curve" smooth="yes"/>
      <point x="300" y="399" type="line" smooth="yes"/>
      <point x="158.667" y="399"/>
      <point x="124" y="383.333"/>
      <point x="124" y="282" type="curve" smooth="yes"/>
      <point x="124" y="179" type="line" smooth="yes"/>
      <point x="124" y="77.6667"/>
      <point x="158.667" y="62"/>
      <point x="300" y="62" type="curve" smooth="yes"/>
      <point x="434" y="62" type="line" smooth="yes"/>
      <point x="453.333" y="62"/>
      <point x="466.5" y="66.1667"/>
      <point x="473.5" y="74.5" type="curve" smooth="yes"/>
      <point x="480.5" y="82.8333"/>
      <point x="484" y="98.6667"/>
      <point x="484" y="122" type="curve" smooth="yes"/>
      <point x="484" y="145.333"/>
      <point x="494.333" y="157"/>
      <point x="515" y="157" type="curve" smooth="yes"/>
      <point x="535.667" y="157"/>
      <point x="546" y="141.5"/>
      <point x="546" y="110.5" type="curve" smooth="yes"/>
      <point x="546" y="48.5"/>
      <point x="525" y="0"/>
    </contour>
  </outline>
</glyph>
<glyph name="d" format="1">
  <advance width="641"/>
  <unicode hex="0064"/>
  <outline>
    <contour>
      <point x="124" y="179" type="line" smooth="yes"/>
      <point x="124" y="76.3333"/>
      <point x="160.333" y="62"/>
      <point x="299" y="62" type="curve" smooth="yes"/>
      <point x="328" y="62" type="line" smooth="yes"/>
      <point x="445.333" y="62"/>
      <point x="504" y="117.667"/>
      <point x="504" y="229" type="curve" smooth="yes"/>
      <point x="504" y="399" type="line"/>
      <point x="297" y="399" type="line" smooth="yes"/>
      <point x="159.667" y="399"/>
      <point x="124" y="384.667"/>
      <point x="124" y="282" type="curve" smooth="yes"/>
    </contour>
    <contour>
      <point x="62" y="284" type="line" smooth="yes"/>
      <point x="62" y="424"/>
      <point x="133" y="461"/>
      <point x="297" y="461" type="curve" smooth="yes"/>
      <point x="504" y="461" type="line"/>
      <point x="504" y="603" type="line" smooth="yes"/>
      <point x="504" y="629.667"/>
      <point x="515" y="643"/>
      <point x="537" y="643" type="curve" smooth="yes"/>
      <point x="556.333" y="643"/>
      <point x="566" y="629.667"/>
      <point x="566" y="603" type="curve" smooth="yes"/>
      <point x="566" y="31" type="line" smooth="yes"/>
      <point x="566" y="5.66667"/>
      <point x="555.667" y="-7"/>
      <point x="535" y="-7" type="curve" smooth="yes"/>
      <point x="514.333" y="-7"/>
      <point x="504" y="6.33333"/>
      <point x="504" y="33" type="curve" smooth="yes"/>
      <point x="504" y="56" type="line"/>
      <point x="464" y="18.6667"/>
      <point x="405.333" y="0"/>
      <point x="328" y="0" type="curve" smooth="yes"/>
      <point x="299" y="0" type="line" smooth="yes"/>
      <point x="133.667" y="0"/>
      <point x="62" y="37"/>
      <point x="62" y="177" type="curve" smooth="yes"/>
    </contour>
  </outline>
</glyph>
<glyph name="e" format="1">
  <advance width="626"/>
  <unicode hex="0065"/>
  <outline>
    <contour>
      <point x="566" y="284" type="curve" smooth="yes"/>
      <point x="566" y="240" type="line"/>
      <point x="124" y="240" type="line"/>
      <point x="124" y="179" type="line" smooth="yes"/>
      <point x="124" y="77.6667"/>
      <point x="158.667" y="62"/>
      <point x="300" y="62" type="curve" smooth="yes"/>
      <point x="454" y="62" type="line" smooth="yes"/>
      <point x="473.333" y="62"/>
      <point x="486.5" y="66.1667"/>
      <point x="493.5" y="74.5" type="curve" smooth="yes"/>
      <point x="500.5" y="82.8333"/>
      <point x="504" y="98.6667"/>
      <point x="504" y="122" type="curve" smooth="yes"/>
      <point x="504" y="145.333"/>
      <point x="514.333" y="157"/>
      <point x="535" y="157" type="curve"/>
      <point x="555.667" y="156.333"/>
      <point x="566" y="140.667"/>
      <point x="566" y="110" type="curve" smooth="yes"/>
      <point x="566" y="48.6667"/>
      <point x="545" y="0"/>
      <point x="461" y="0" type="curve" smooth="yes"/>
      <point x="300" y="0" type="line" smooth="yes"/>
      <point x="133.333" y="0"/>
      <point x="62" y="37"/>
      <point x="62" y="177" type="curve" smooth="yes"/>
      <point x="62" y="284" type="line" smooth="yes"/>
      <point x="62" y="424"/>
      <point x="133.333" y="461"/>
      <point x="300" y="461" type="curve" smooth="yes"/>
      <point x="329" y="461" type="line" smooth="yes"/>
      <point x="494.333" y="461"/>
      <point x="566" y="424"/>
    </contour>
    <contour>
      <point x="329" y="399" type="curve" smooth="yes"/>
      <point x="300" y="399" type="line" smooth="yes"/>
      <point x="164" y="399"/>
      <point x="126.667" y="384.667"/>
      <point x="124" y="302" type="curve"/>
      <point x="504" y="302" type="line"/>
      <point x="501.333" y="384.667"/>
      <point x="463.667" y="399"/>
    </contour>
  </outline>
</glyph>
<glyph name="f" format="1">
  <advance width="334"/>
  <unicode hex="0066"/>
  <outline>
    <contour>
      <point x="298" y="574" type="curve" smooth="yes"/>
      <point x="179.333" y="574"/>
      <point x="143.333" y="558.333"/>
      <point x="142" y="461" type="curve"/>
      <point x="275" y="461" type="line" smooth="yes"/>
      <point x="302.333" y="461"/>
      <point x="316" y="450"/>
      <point x="316" y="428" type="curve" smooth="yes"/>
      <point x="316" y="408.667"/>
      <point x="302.333" y="399"/>
      <point x="275" y="399" type="curve" smooth="yes"/>
      <point x="142" y="399" type="line"/>
      <point x="142" y="32" type="line" smooth="yes"/>
      <point x="142" y="6"/>
      <point x="131" y="-7"/>
      <point x="109" y="-7" type="curve" smooth="yes"/>
      <point x="89.6667" y="-7"/>
      <point x="80" y="6"/>
      <point x="80" y="32" type="curve" smooth="yes"/>
      <point x="80" y="402" type="line"/>
      <point x="59.3333" y="404.667"/>
      <point x="49" y="415"/>
      <point x="49" y="433" type="curve" smooth="yes"/>
      <point x="49" y="449"/>
      <point x="59.3333" y="458.333"/>
      <point x="80" y="461" type="curve"/>
      <point x="81.3333" y="533.667"/>
      <point x="102.333" y="581.667"/>
      <point x="143" y="605" type="curve" smooth="yes"/>
      <point x="184.333" y="629"/>
      <point x="227.333" y="636"/>
      <point x="298" y="636" type="curve" smooth="yes"/>
      <point x="325.333" y="636"/>
      <point x="339" y="625"/>
      <point x="339" y="603" type="curve" smooth="yes"/>
      <point x="339" y="583.667"/>
      <point x="325.333" y="574"/>
    </contour>
  </outline>
</glyph>
<glyph name="g" format="1">
  <advance width="641"/>
  <unicode hex="0067"/>
  <outline>
    <contour>
      <point x="566" y="-82" type="line" smooth="yes"/>
      <point x="566" y="-171.333"/>
      <point x="544.667" y="-205"/>
      <point x="470" y="-205" type="curve" smooth="yes"/>
      <point x="167" y="-205" type="line" smooth="yes"/>
      <point x="122.333" y="-205"/>
      <point x="93" y="-192.333"/>
      <point x="79" y="-167" type="curve" smooth="yes"/>
      <point x="67.6667" y="-146.333"/>
      <point x="62" y="-121.333"/>
      <point x="62" y="-92" type="curve" smooth="yes"/>
      <point x="62" y="-62.6667"/>
      <point x="72.3333" y="-48"/>
      <point x="93" y="-48" type="curve" smooth="yes"/>
      <point x="113.667" y="-48"/>
      <point x="124" y="-59.8333"/>
      <point x="124" y="-83.5" type="curve" smooth="yes"/>
      <point x="124" y="-130.833"/>
      <point x="135.333" y="-143"/>
      <point x="174" y="-143" type="curve" smooth="yes"/>
      <point x="463" y="-143" type="line" smooth="yes"/>
      <point x="497.667" y="-143"/>
      <point x="504" y="-135.333"/>
      <point x="504" y="-98" type="curve" smooth="yes"/>
      <point x="504" y="0" type="line"/>
      <point x="298" y="0" type="line" smooth="yes"/>
      <point x="132.667" y="0"/>
      <point x="62" y="37"/>
      <point x="62" y="177" type="curve" smooth="yes"/>
      <point x="62" y="284" type="line" smooth="yes"/>
      <point x="62" y="424"/>
      <point x="133.667" y="461"/>
      <point x="299" y="461" type="curve" smooth="yes"/>
      <point x="328" y="461" type="line" smooth="yes"/>
      <point x="405.333" y="461"/>
      <point x="464" y="442.333"/>
      <point x="504" y="405" type="curve"/>
      <point x="504" y="428" type="line" smooth="yes"/>
      <point x="504" y="454.667"/>
      <point x="514.333" y="468"/>
      <point x="535" y="468" type="curve" smooth="yes"/>
      <point x="555.667" y="468"/>
      <point x="566" y="455.333"/>
      <point x="566" y="430" type="curve" smooth="yes"/>
    </contour>
    <contour>
      <point x="298" y="62" type="curve" smooth="yes"/>
      <point x="504" y="62" type="line"/>
      <point x="504" y="233" type="line" smooth="yes"/>
      <point x="504" y="343.667"/>
      <point x="445.333" y="399"/>
      <point x="328" y="399" type="curve" smooth="yes"/>
      <point x="299" y="399" type="line" smooth="yes"/>
      <point x="160.333" y="399"/>
      <point x="124" y="384.667"/>
      <point x="124" y="282" type="curve" smooth="yes"/>
      <point x="124" y="179" type="line" smooth="yes"/>
      <point x="124" y="76.3333"/>
      <point x="159.333" y="62"/>
    </contour>
  </outline>
</glyph>
<glyph name="i" format="1">
  <advance width="208"/>
  <unicode hex="0069"/>
  <outline>
    <contour>
      <point x="73" y="20" type="curve" smooth="yes"/>
      <point x="73" y="440" type="line" smooth="yes"/>
      <point x="73" y="465.333"/>
      <point x="83.3333" y="478"/>
      <point x="104" y="478" type="curve" smooth="yes"/>
      <point x="124.667" y="478"/>
      <point x="135" y="465.333"/>
      <point x="135" y="440" type="curve" smooth="yes"/>
      <point x="135" y="20" type="line" smooth="yes"/>
      <point x="135" y="-4.66667"/>
      <point x="124.667" y="-17"/>
      <point x="104" y="-17" type="curve" smooth="yes"/>
      <point x="83.3333" y="-17"/>
      <point x="73" y="-4.66667"/>
    </contour>
    <contour>
      <point x="142" y="633.5" type="curve"/>
      <point x="198.673" y="593.794"/>
      <point x="107.895" y="524.127"/>
      <point x="67" y="568.5" type="curve"/>
      <point x="8.13072" y="611.082"/>
      <point x="98.9085" y="677.193"/>
    </contour>
  </outline>
</glyph>
<glyph name="j" format="1">
  <advance width="212"/>
  <unicode hex="006A"/>
  <outline>
    <contour>
      <point x="143.5" y="633.5" type="curve"/>
      <point x="201.611" y="593.794"/>
      <point x="109.056" y="524.127"/>
      <point x="68.5" y="568.5" type="curve"/>
      <point x="11.0686" y="609.644"/>
      <point x="100.069" y="677.533"/>
    </contour>
    <contour>
      <point x="137" y="0" type="line" smooth="yes"/>
      <point x="137" y="-73.3333"/>
      <point x="116.667" y="-121.667"/>
      <point x="76" y="-145" type="curve" smooth="yes"/>
      <point x="34.6667" y="-169"/>
      <point x="-9" y="-175"/>
      <point x="-81" y="-175" type="curve" smooth="yes"/>
      <point x="-108.333" y="-175"/>
      <point x="-122" y="-164.667"/>
      <point x="-122" y="-144" type="curve" smooth="yes"/>
      <point x="-122" y="-123.333"/>
      <point x="-108.333" y="-113"/>
      <point x="-81" y="-113" type="curve" smooth="yes"/>
      <point x="40.3333" y="-113"/>
      <point x="75" y="-97.3333"/>
      <point x="75" y="0" type="curve" smooth="yes"/>
      <point x="75" y="427" type="line" smooth="yes"/>
      <point x="75" y="454.333"/>
      <point x="85.3333" y="468"/>
      <point x="106" y="468" type="curve" smooth="yes"/>
      <point x="126.667" y="468"/>
      <point x="137" y="454.333"/>
      <point x="137" y="427" type="curve" smooth="yes"/>
    </contour>
  </outline>
</glyph>
<glyph name="k" format="1">
  <advance width="476"/>
  <unicode hex="006B"/>
  <outline>
    <contour>
      <point x="450" y="50" type="line"/>
      <point x="482.555" y="22.8707"/>
      <point x="445.342" y="-27.9634"/>
      <point x="405" y="7" type="curve"/>
      <point x="161" y="233" type="line"/>
      <point x="137" y="209" type="line"/>
      <point x="137" y="30" type="line" smooth="yes"/>
      <point x="137" y="5.33333"/>
      <point x="126.667" y="-7"/>
      <point x="106" y="-7" type="curve" smooth="yes"/>
      <point x="85.3333" y="-7"/>
      <point x="75" y="4.66667"/>
      <point x="75" y="28" type="curve" smooth="yes"/>
      <point x="75" y="605" type="line" smooth="yes"/>
      <point x="75" y="630.333"/>
      <point x="85.3333" y="643"/>
      <point x="106" y="643" type="curve" smooth="yes"/>
      <point x="126.667" y="643"/>
      <point x="137" y="630.333"/>
      <point x="137" y="605" type="curve" smooth="yes"/>
      <point x="137" y="276" type="line"/>
      <point x="332" y="453" type="line"/>
      <point x="366.4" y="487.4"/>
      <point x="414.153" y="442.702"/>
      <point x="376" y="410" type="curve" smooth="yes"/>
      <point x="205" y="264" type="line"/>
    </contour>
  </outline>
</glyph>
<glyph name="l" format="1">
  <advance width="283"/>
  <unicode hex="006C"/>
  <outline>
    <contour>
      <point x="203" y="0" type="curve" smooth="yes"/>
      <point x="196" y="0" type="line" smooth="yes"/>
      <point x="114.667" y="0"/>
      <point x="91" y="36.6667"/>
      <point x="91" y="130" type="curve" smooth="yes"/>
      <point x="91" y="603" type="line" smooth="yes"/>
      <point x="91" y="629.667"/>
      <point x="101.333" y="643"/>
      <point x="122" y="643" type="curve" smooth="yes"/>
      <point x="142.667" y="643"/>
      <point x="153" y="629.667"/>
      <point x="153" y="603" type="curve" smooth="yes"/>
      <point x="153" y="114" type="line" smooth="yes"/>
      <point x="153" y="74"/>
      <point x="164.333" y="62"/>
      <point x="203" y="62" type="curve" smooth="yes"/>
      <point x="229.667" y="62"/>
      <point x="243" y="51.6667"/>
      <point x="243" y="31" type="curve" smooth="yes"/>
      <point x="243" y="10.3333"/>
      <point x="229.667" y="0"/>
    </contour>
  </outline>
</glyph>
<glyph name="m" format="1">
  <advance width="850"/>
  <unicode hex="006D"/>
  <outline>
    <contour>
      <point x="368" y="378" type="curve" smooth="yes"/>
      <point x="350.667" y="391.333"/>
      <point x="318.667" y="398.333"/>
      <point x="272" y="399" type="curve"/>
      <point x="181.333" y="399"/>
      <point x="136" y="342.667"/>
      <point x="136" y="230" type="curve" smooth="yes"/>
      <point x="136" y="31" type="line" smooth="yes"/>
      <point x="136" y="5.66667"/>
      <point x="125.667" y="-7"/>
      <point x="105" y="-7" type="curve" smooth="yes"/>
      <point x="84.3333" y="-7"/>
      <point x="74" y="5.66667"/>
      <point x="74" y="31" type="curve" smooth="yes"/>
      <point x="74" y="429" type="line" smooth="yes"/>
      <point x="74" y="455"/>
      <point x="83.6667" y="468"/>
      <point x="103" y="468" type="curve" smooth="yes"/>
      <point x="125" y="468"/>
      <point x="136" y="454.333"/>
      <point x="136" y="427" type="curve" smooth="yes"/>
      <point x="136" y="406" type="line"/>
      <point x="170.667" y="444.667"/>
      <point x="200.5" y="461"/>
      <point x="274.5" y="461" type="curve" smooth="yes"/>
      <point x="348.5" y="461"/>
      <point x="411" y="444.667"/>
      <point x="439" y="386" type="curve"/>
      <point x="475" y="436"/>
      <point x="524.833" y="461"/>
      <point x="588.5" y="461" type="curve" smooth="yes"/>
      <point x="715.833" y="461"/>
      <point x="779" y="422.667"/>
      <point x="779" y="284" type="curve" smooth="yes"/>
      <point x="779" y="31" type="line" smooth="yes"/>
      <point x="779" y="5.66667"/>
      <point x="768.667" y="-7"/>
      <point x="748" y="-7" type="curve" smooth="yes"/>
      <point x="727.333" y="-7"/>
      <point x="717" y="5.66667"/>
      <point x="717" y="31" type="curve" smooth="yes"/>
      <point x="717" y="282" type="line" smooth="yes"/>
      <point x="717" y="384.667"/>
      <point x="689.167" y="399"/>
      <point x="596.5" y="399" type="curve" smooth="yes"/>
      <point x="503.833" y="399"/>
      <point x="457" y="339.333"/>
      <point x="457" y="230" type="curve" smooth="yes"/>
      <point x="457" y="31" type="line" smooth="yes"/>
      <point x="457" y="5.66667"/>
      <point x="446.667" y="-7"/>
      <point x="426" y="-7" type="curve" smooth="yes"/>
      <point x="405.333" y="-7"/>
      <point x="395" y="5.66667"/>
      <point x="395" y="31" type="curve" smooth="yes"/>
      <point x="395" y="282" type="line" smooth="yes"/>
      <point x="395" y="332.667"/>
      <point x="386" y="364.667"/>
    </contour>
  </outline>
</glyph>
<glyph name="n" format="1">
  <advance width="647"/>
  <unicode hex="006E"/>
  <outline>
    <contour>
      <point x="312" y="399" type="line" smooth="yes"/>
      <point x="194.667" y="399"/>
      <point x="136" y="342.667"/>
      <point x="136" y="230" type="curve" smooth="yes"/>
      <point x="136" y="31" type="line" smooth="yes"/>
      <point x="136" y="5.66667"/>
      <point x="125.667" y="-7"/>
      <point x="105" y="-7" type="curve" smooth="yes"/>
      <point x="84.3333" y="-7"/>
      <point x="74" y="5.66667"/>
      <point x="74" y="31" type="curve" smooth="yes"/>
      <point x="74" y="429" type="line" smooth="yes"/>
      <point x="74" y="455"/>
      <point x="83.6667" y="468"/>
      <point x="103" y="468" type="curve" smooth="yes"/>
      <point x="125" y="468"/>
      <point x="136" y="454.333"/>
      <point x="136" y="427" type="curve" smooth="yes"/>
      <point x="136" y="405" type="line"/>
      <point x="176" y="442.333"/>
      <point x="234.667" y="461"/>
      <point x="312" y="461" type="curve" smooth="yes"/>
      <point x="341" y="461" type="line" smooth="yes"/>
      <point x="506.333" y="461"/>
      <point x="578" y="424"/>
      <point x="578" y="284" type="curve" smooth="yes"/>
      <point x="578" y="31" type="line" smooth="yes"/>
      <point x="578" y="5.66667"/>
      <point x="567.667" y="-7"/>
      <point x="547" y="-7" type="curve" smooth="yes"/>
      <point x="526.333" y="-7"/>
      <point x="516" y="5.66667"/>
      <point x="516" y="31" type="curve" smooth="yes"/>
      <point x="516" y="282" type="line" smooth="yes"/>
      <point x="516" y="384.667"/>
      <point x="479.667" y="399"/>
      <point x="341" y="399" type="curve" smooth="yes"/>
    </contour>
  </outline>
</glyph>
<glyph name="o" format="1">
  <advance width="628"/>
  <unicode hex="006F"/>
  <outline>
    <contour>
      <point x="329" y="0" type="curve" smooth="yes"/>
      <point x="300" y="0" type="line" smooth="yes"/>
      <point x="133.333" y="0"/>
      <point x="62" y="37"/>
      <point x="62" y="177" type="curve" smooth="yes"/>
      <point x="62" y="284" type="line" smooth="yes"/>
      <point x="62" y="424"/>
      <point x="133.333" y="461"/>
      <point x="300" y="461" type="curve" smooth="yes"/>
      <point x="329" y="461" type="line" smooth="yes"/>
      <point x="494.333" y="461"/>
      <point x="566" y="424"/>
      <point x="566" y="284" type="curve" smooth="yes"/>
      <point x="566" y="177" type="line" smooth="yes"/>
      <point x="566" y="37"/>
      <point x="494.333" y="0"/>
    </contour>
    <contour>
      <point x="300" y="62" type="curve" smooth="yes"/>
      <point x="329" y="62" type="line" smooth="yes"/>
      <point x="467.667" y="62"/>
      <point x="504" y="76.3333"/>
      <point x="504" y="179" type="curve" smooth="yes"/>
      <point x="504" y="282" type="line" smooth="yes"/>
      <point x="504" y="384.667"/>
      <point x="467.667" y="399"/>
      <point x="329" y="399" type="curve" smooth="yes"/>
      <point x="300" y="399" type="line" smooth="yes"/>
      <point x="158.667" y="399"/>
      <point x="124" y="383.333"/>
      <point x="124" y="282" type="curve" smooth="yes"/>
      <point x="124" y="179" type="line" smooth="yes"/>
      <point x="124" y="77.6667"/>
      <point x="158.667" y="62"/>
    </contour>
  </outline>
</glyph>
<glyph name="p" format="1">
  <advance width="641"/>
  <unicode hex="0070"/>
  <outline>
    <contour>
      <point x="517" y="282" type="line" smooth="yes"/>
      <point x="517" y="384.667"/>
      <point x="480.667" y="399"/>
      <point x="342" y="399" type="curve" smooth="yes"/>
      <point x="313" y="399" type="line" smooth="yes"/>
      <point x="195.667" y="399"/>
      <point x="137" y="343.333"/>
      <point x="137" y="232" type="curve" smooth="yes"/>
      <point x="137" y="62" type="line"/>
      <point x="344" y="62" type="line" smooth="yes"/>
      <point x="481.333" y="62"/>
      <point x="517" y="76.3333"/>
      <point x="517" y="179" type="curve" smooth="yes"/>
    </contour>
    <contour>
      <point x="579" y="177" type="line" smooth="yes"/>
      <point x="579" y="37"/>
      <point x="508" y="0"/>
      <point x="344" y="0" type="curve" smooth="yes"/>
      <point x="137" y="0" type="line"/>
      <point x="137" y="-142" type="line" smooth="yes"/>
      <point x="137" y="-168.667"/>
      <point x="126" y="-182"/>
      <point x="104" y="-182" type="curve" smooth="yes"/>
      <point x="84.6667" y="-182"/>
      <point x="75" y="-168.667"/>
      <point x="75" y="-142" type="curve" smooth="yes"/>
      <point x="75" y="430" type="line" smooth="yes"/>
      <point x="75" y="455.333"/>
      <point x="85.3333" y="468"/>
      <point x="106" y="468" type="curve" smooth="yes"/>
      <point x="126.667" y="468"/>
      <point x="137" y="454.667"/>
      <point x="137" y="428" type="curve" smooth="yes"/>
      <point x="137" y="405" type="line"/>
      <point x="177" y="442.333"/>
      <point x="235.667" y="461"/>
      <point x="313" y="461" type="curve" smooth="yes"/>
      <point x="342" y="461" type="line" smooth="yes"/>
      <point x="507.333" y="461"/>
      <point x="579" y="424"/>
      <point x="579" y="284" type="curve" smooth="yes"/>
    </contour>
  </outline>
</glyph>
<glyph name="q" format="1">
  <advance width="641"/>
  <unicode hex="0071"/>
  <outline>
    <contour>
      <point x="124" y="282" type="curve" smooth="yes"/>
      <point x="124" y="179" type="line" smooth="yes"/>
      <point x="124" y="76.3333"/>
      <point x="159.333" y="62"/>
      <point x="298" y="62" type="curve" smooth="yes"/>
      <point x="504" y="62" type="line"/>
      <point x="504" y="232" type="line" smooth="yes"/>
      <point x="504" y="343.333"/>
      <point x="445.667" y="399"/>
      <point x="329" y="399" type="curve" smooth="yes"/>
      <point x="300" y="399" type="line" smooth="yes"/>
      <point x="158.667" y="399"/>
      <point x="124" y="383.333"/>
    </contour>
    <contour>
      <point x="62" y="177" type="curve" smooth="yes"/>
      <point x="62" y="284" type="line" smooth="yes"/>
      <point x="62" y="424"/>
      <point x="133.333" y="461"/>
      <point x="300" y="461" type="curve" smooth="yes"/>
      <point x="329" y="461" type="line" smooth="yes"/>
      <point x="406.333" y="461"/>
      <point x="464.667" y="442.333"/>
      <point x="504" y="405" type="curve"/>
      <point x="504" y="428" type="line" smooth="yes"/>
      <point x="504" y="454.667"/>
      <point x="514.333" y="468"/>
      <point x="535" y="468" type="curve" smooth="yes"/>
      <point x="555.667" y="468"/>
      <point x="566" y="455.333"/>
      <point x="566" y="430" type="curve" smooth="yes"/>
      <point x="566" y="-142" type="line" smooth="yes"/>
      <point x="566" y="-168.667"/>
      <point x="556.333" y="-182"/>
      <point x="537" y="-182" type="curve" smooth="yes"/>
      <point x="515" y="-182"/>
      <point x="504" y="-168.667"/>
      <point x="504" y="-142" type="curve" smooth="yes"/>
      <point x="504" y="0" type="line"/>
      <point x="298" y="0" type="line" smooth="yes"/>
      <point x="132.667" y="0"/>
      <point x="62" y="37"/>
    </contour>
  </outline>
</glyph>
<glyph name="r" format="1">
  <advance width="395"/>
  <unicode hex="0072"/>
  <outline>
    <contour>
      <point x="292" y="399" type="line" smooth="yes"/>
      <point x="190.667" y="399"/>
      <point x="136" y="339.333"/>
      <point x="136" y="230" type="curve" smooth="yes"/>
      <point x="136" y="31" type="line" smooth="yes"/>
      <point x="136" y="5.66667"/>
      <point x="125.667" y="-7"/>
      <point x="105" y="-7" type="curve" smooth="yes"/>
      <point x="84.3333" y="-7"/>
      <point x="74" y="5.66667"/>
      <point x="74" y="31" type="curve" smooth="yes"/>
      <point x="74" y="429" type="line" smooth="yes"/>
      <point x="74" y="455"/>
      <point x="83.6667" y="468"/>
      <point x="103" y="468" type="curve" smooth="yes"/>
      <point x="125" y="468"/>
      <point x="136" y="454.333"/>
      <point x="136" y="427" type="curve" smooth="yes"/>
      <point x="136" y="405" type="line"/>
      <point x="176" y="442.333"/>
      <point x="228" y="461"/>
      <point x="292" y="461" type="curve" smooth="yes"/>
      <point x="338" y="461" type="line" smooth="yes"/>
      <point x="364.667" y="461"/>
      <point x="378" y="450.667"/>
      <point x="378" y="430" type="curve" smooth="yes"/>
      <point x="378" y="409.333"/>
      <point x="364.667" y="399"/>
      <point x="338" y="399" type="curve" smooth="yes"/>
    </contour>
  </outline>
</glyph>
<glyph name="s" format="1">
  <advance width="606"/>
  <unicode hex="0073"/>
  <outline>
    <contour>
      <point x="165" y="0" type="line" smooth="yes"/>
      <point x="123" y="0"/>
      <point x="95" y="10.6667"/>
      <point x="81" y="32" type="curve" smooth="yes"/>
      <point x="67" y="53.3333"/>
      <point x="60" y="79.5"/>
      <point x="60" y="110.5" type="curve" smooth="yes"/>
      <point x="60" y="141.5"/>
      <point x="70.3333" y="157"/>
      <point x="91" y="157" type="curve" smooth="yes"/>
      <point x="111.667" y="157"/>
      <point x="122" y="145.333"/>
      <point x="122" y="122" type="curve" smooth="yes"/>
      <point x="122" y="75.3333"/>
      <point x="133.333" y="62"/>
      <point x="172" y="62" type="curve" smooth="yes"/>
      <point x="430" y="62" type="line" smooth="yes"/>
      <point x="466" y="62"/>
      <point x="484" y="84.3333"/>
      <point x="484" y="129" type="curve" smooth="yes"/>
      <point x="484" y="174.333"/>
      <point x="462" y="205"/>
      <point x="430" y="205" type="curve" smooth="yes"/>
      <point x="194" y="205" type="line" smooth="yes"/>
      <point x="100.667" y="205"/>
      <point x="60" y="256.833"/>
      <point x="60" y="337.5" type="curve" smooth="yes"/>
      <point x="60" y="418.167"/>
      <point x="99.3333" y="461"/>
      <point x="214" y="461" type="curve" smooth="yes"/>
      <point x="439" y="461" type="line" smooth="yes"/>
      <point x="483.667" y="461"/>
      <point x="513" y="448.333"/>
      <point x="527" y="423" type="curve" smooth="yes"/>
      <point x="538.333" y="402.333"/>
      <point x="544" y="377.333"/>
      <point x="544" y="348" type="curve" smooth="yes"/>
      <point x="544" y="318.667"/>
      <point x="533.667" y="304"/>
      <point x="513" y="304" type="curve" smooth="yes"/>
      <point x="492.333" y="304"/>
      <point x="482" y="315.833"/>
      <point x="482" y="339.5" type="curve" smooth="yes"/>
      <point x="482" y="386.833"/>
      <point x="470.667" y="399"/>
      <point x="432" y="399" type="curve" smooth="yes"/>
      <point x="176" y="399" type="line" smooth="yes"/>
      <point x="140" y="399"/>
      <point x="122" y="378.333"/>
      <point x="122" y="337" type="curve" smooth="yes"/>
      <point x="122" y="291.667"/>
      <point x="144" y="267"/>
      <point x="176" y="267" type="curve" smooth="yes"/>
      <point x="413" y="267" type="line" smooth="yes"/>
      <point x="509" y="267"/>
      <point x="546" y="208.333"/>
      <point x="546" y="127" type="curve" smooth="yes"/>
      <point x="546" y="45.6667"/>
      <point x="506.333" y="0"/>
      <point x="393" y="0" type="curve" smooth="yes"/>
    </contour>
  </outline>
</glyph>
<glyph name="t" format="1">
  <advance width="358"/>
  <unicode hex="0074"/>
  <outline>
    <contour>
      <point x="140" y="179" type="line" smooth="yes"/>
      <point x="140" y="77.6667"/>
      <point x="176" y="62"/>
      <point x="296" y="62" type="curve" smooth="yes"/>
      <point x="322.667" y="62"/>
      <point x="336" y="52.3333"/>
      <point x="336" y="33" type="curve" smooth="yes"/>
      <point x="336" y="11"/>
      <point x="322.667" y="0"/>
      <point x="296" y="0" type="curve" smooth="yes"/>
      <point x="149.333" y="0"/>
      <point x="78" y="38.3333"/>
      <point x="78" y="177" type="curve" smooth="yes"/>
      <point x="78" y="402" type="line"/>
      <point x="57.3333" y="403.333"/>
      <point x="47" y="413.667"/>
      <point x="47" y="433" type="curve" smooth="yes"/>
      <point x="47" y="449"/>
      <point x="57.3333" y="458.333"/>
      <point x="78" y="461" type="curve"/>
      <point x="78" y="560" type="line" smooth="yes"/>
      <point x="78" y="587.333"/>
      <point x="87.6667" y="601"/>
      <point x="107" y="601" type="curve" smooth="yes"/>
      <point x="129" y="601"/>
      <point x="140" y="587.333"/>
      <point x="140" y="560" type="curve" smooth="yes"/>
      <point x="140" y="461" type="line"/>
      <point x="273" y="461" type="line" smooth="yes"/>
      <point x="300.333" y="461"/>
      <point x="314" y="450"/>
      <point x="314" y="428" type="curve" smooth="yes"/>
      <point x="314" y="408.667"/>
      <point x="300.333" y="399"/>
      <point x="273" y="399" type="curve" smooth="yes"/>
      <point x="140" y="399" type="line"/>
    </contour>
  </outline>
</glyph>
<glyph name="u" format="1">
  <advance width="647"/>
  <unicode hex="0075"/>
  <outline>
    <contour>
      <point x="335" y="62" type="line" smooth="yes"/>
      <point x="452.333" y="62"/>
      <point x="511" y="118.333"/>
      <point x="511" y="231" type="curve" smooth="yes"/>
      <point x="511" y="430" type="line" smooth="yes"/>
      <point x="511" y="455.333"/>
      <point x="521.333" y="468"/>
      <point x="542" y="468" type="curve" smooth="yes"/>
      <point x="562.667" y="468"/>
      <point x="573" y="455.333"/>
      <point x="573" y="430" type="curve" smooth="yes"/>
      <point x="573" y="32" type="line" smooth="yes"/>
      <point x="573" y="6"/>
      <point x="563.333" y="-7"/>
      <point x="544" y="-7" type="curve" smooth="yes"/>
      <point x="522" y="-7"/>
      <point x="511" y="6.66667"/>
      <point x="511" y="34" type="curve" smooth="yes"/>
      <point x="511" y="56" type="line"/>
      <point x="471" y="18.6667"/>
      <point x="412.333" y="0"/>
      <point x="335" y="0" type="curve" smooth="yes"/>
      <point x="306" y="0" type="line" smooth="yes"/>
      <point x="140.667" y="0"/>
      <point x="69" y="37"/>
      <point x="69" y="177" type="curve" smooth="yes"/>
      <point x="69" y="430" type="line" smooth="yes"/>
      <point x="69" y="455.333"/>
      <point x="79.3333" y="468"/>
      <point x="100" y="468" type="curve" smooth="yes"/>
      <point x="120.667" y="468"/>
      <point x="131" y="455.333"/>
      <point x="131" y="430" type="curve" smooth="yes"/>
      <point x="131" y="179" type="line" smooth="yes"/>
      <point x="131" y="76.3333"/>
      <point x="167.333" y="62"/>
      <point x="306" y="62" type="curve" smooth="yes"/>
    </contour>
  </outline>
</glyph>
<glyph name="w" format="1">
  <advance width="814"/>
  <unicode hex="0077"/>
  <outline>
    <contour>
      <point x="779" y="430" type="curve" smooth="yes"/>
      <point x="623" y="0" type="line"/>
      <point x="536" y="0" type="line"/>
      <point x="408" y="364" type="line"/>
      <point x="269" y="0" type="line"/>
      <point x="183" y="0" type="line"/>
      <point x="36" y="430" type="line" smooth="yes"/>
      <point x="33.3333" y="438"/>
      <point x="32" y="444"/>
      <point x="32" y="448" type="curve" smooth="yes"/>
      <point x="32" y="481.333"/>
      <point x="80.6667" y="481.333"/>
      <point x="94" y="448" type="curve"/>
      <point x="229" y="58" type="line"/>
      <point x="374" y="443" type="line"/>
      <point x="387.333" y="475"/>
      <point x="431.333" y="475"/>
      <point x="442" y="443" type="curve"/>
      <point x="581" y="58" type="line"/>
      <point x="721" y="448" type="line" smooth="yes"/>
      <point x="733" y="481.333"/>
      <point x="781.667" y="481.333"/>
      <point x="783" y="448" type="curve"/>
      <point x="783" y="444"/>
      <point x="781.667" y="438"/>
    </contour>
  </outline>
</glyph>
<glyph name="x" format="1">
  <advance width="536"/>
  <unicode hex="0078"/>
  <outline>
    <contour>
      <point x="483" y="43" type="line"/>
      <point x="515.474" y="10.5261"/>
      <point x="469.252" y="-32.2516"/>
      <point x="436" y="1" type="curve"/>
      <point x="269" y="190" type="line"/>
      <point x="101" y="1" type="line"/>
      <point x="67.3072" y="-32.6928"/>
      <point x="20.4183" y="10.4183"/>
      <point x="53" y="43" type="curve"/>
      <point x="224" y="230" type="line"/>
      <point x="53" y="418" type="line"/>
      <point x="22.6124" y="453.913"/>
      <point x="67.5349" y="493.465"/>
      <point x="101" y="460" type="curve"/>
      <point x="269" y="271" type="line"/>
      <point x="436" y="460" type="line"/>
      <point x="468.955" y="492.955"/>
      <point x="513.371" y="453.894"/>
      <point x="483" y="418" type="curve"/>
      <point x="312" y="230" type="line"/>
    </contour>
  </outline>
</glyph>
<glyph name="y" format="1">
  <advance width="648"/>
  <unicode hex="0079"/>
  <outline>
    <contour>
      <point x="573" y="-82" type="line" smooth="yes"/>
      <point x="573" y="-171.333"/>
      <point x="551.667" y="-205"/>
      <point x="477" y="-205" type="curve" smooth="yes"/>
      <point x="174" y="-205" type="line" smooth="yes"/>
      <point x="129.333" y="-205"/>
      <point x="100" y="-192.333"/>
      <point x="86" y="-167" type="curve" smooth="yes"/>
      <point x="74.6667" y="-146.333"/>
      <point x="69" y="-121.333"/>
      <point x="69" y="-92" type="curve" smooth="yes"/>
      <point x="69" y="-62.6667"/>
      <point x="79.3333" y="-48"/>
      <point x="100" y="-48" type="curve" smooth="yes"/>
      <point x="120.667" y="-48"/>
      <point x="131" y="-59.8333"/>
      <point x="131" y="-83.5" type="curve" smooth="yes"/>
      <point x="131" y="-130.833"/>
      <point x="142.333" y="-143"/>
      <point x="181" y="-143" type="curve" smooth="yes"/>
      <point x="470" y="-143" type="line" smooth="yes"/>
      <point x="504.667" y="-143"/>
      <point x="511" y="-135.333"/>
      <point x="511" y="-98" type="curve" smooth="yes"/>
      <point x="511" y="56" type="line"/>
      <point x="471" y="18.6667"/>
      <point x="412.333" y="0"/>
      <point x="335" y="0" type="curve" smooth="yes"/>
      <point x="306" y="0" type="line" smooth="yes"/>
      <point x="140.667" y="0"/>
      <point x="69" y="37"/>
      <point x="69" y="177" type="curve" smooth="yes"/>
      <point x="69" y="430" type="line" smooth="yes"/>
      <point x="69" y="455.333"/>
      <point x="79.3333" y="468"/>
      <point x="100" y="468" type="curve" smooth="yes"/>
      <point x="120.667" y="468"/>
      <point x="131" y="455.333"/>
      <point x="131" y="430" type="curve" smooth="yes"/>
      <point x="131" y="179" type="line" smooth="yes"/>
      <point x="131" y="76.3333"/>
      <point x="167.333" y="62"/>
      <point x="306" y="62" type="curve" smooth="yes"/>
      <point x="335" y="62" type="line" smooth="yes"/>
      <point x="452.333" y="62"/>
      <point x="511" y="118.333"/>
      <point x="511" y="231" type="curve" smooth="yes"/>
      <point x="511" y="430" type="line" smooth="yes"/>
      <point x="511" y="455.333"/>
      <point x="521.333" y="468"/>
      <point x="542" y="468" type="curve" smooth="yes"/>
      <point x="562.667" y="468"/>
      <point x="573" y="455.333"/>
      <point x="573" y="430" type="curve" smooth="yes"/>
    </contour>
  </outline>
</glyph>
<glyph name="z" format="1">
  <advance width="573"/>
  <unicode hex="007A"/>
  <outline>
    <contour>
      <point x="143" y="62" type="line"/>
      <point x="408" y="62" type="line" smooth="yes"/>
      <point x="452" y="62"/>
      <point x="459" y="81.6667"/>
      <point x="459" y="135" type="curve" smooth="yes"/>
      <point x="459" y="161.667"/>
      <point x="469.333" y="175"/>
      <point x="490" y="175" type="curve" smooth="yes"/>
      <point x="510.667" y="175"/>
      <point x="521" y="161.333"/>
      <point x="521" y="134" type="curve" smooth="yes"/>
      <point x="521" y="38"/>
      <point x="497.333" y="0"/>
      <point x="416" y="0" type="curve" smooth="yes"/>
      <point x="59" y="0" type="line"/>
      <point x="59" y="69" type="line"/>
      <point x="419" y="399" type="line"/>
      <point x="171" y="399" type="line" smooth="yes"/>
      <point x="149.667" y="399"/>
      <point x="136" y="393.667"/>
      <point x="130" y="383" type="curve" smooth="yes"/>
      <point x="124" y="371.667"/>
      <point x="121" y="352.667"/>
      <point x="121" y="326" type="curve" smooth="yes"/>
      <point x="121" y="299.333"/>
      <point x="110.667" y="286"/>
      <point x="90" y="286" type="curve" smooth="yes"/>
      <point x="69.3333" y="286"/>
      <point x="59" y="299.667"/>
      <point x="59" y="327" type="curve" smooth="yes"/>
      <point x="59" y="424.333"/>
      <point x="82.6667" y="461"/>
      <point x="164" y="461" type="curve" smooth="yes"/>
      <point x="500" y="461" type="line"/>
      <point x="500" y="389" type="line"/>
    </contour>
  </outline>
</glyph>
<glyph name="braceleft" format="1">
  <advance width="275"/>
  <unicode hex="007B"/>
  <outline>
    <contour>
      <point x="39" y="324" type="line"/>
      <point x="67" y="338.667"/>
      <point x="112" y="374"/>
      <point x="112" y="398" type="curve" smooth="yes"/>
      <point x="112" y="415.349"/>
      <point x="84" y="509.433"/>
      <point x="84" y="528" type="curve" smooth="yes"/>
      <point x="84" y="599.333"/>
      <point x="97.3333" y="644.667"/>
      <point x="124" y="664" type="curve" smooth="yes"/>
      <point x="152" y="684"/>
      <point x="176" y="688"/>
      <point x="224" y="688" type="curve"/>
      <point x="224" y="626" type="line"/>
      <point x="152" y="626"/>
      <point x="146" y="620"/>
      <point x="146" y="528" type="curve" smooth="yes"/>
      <point x="146" y="522.667"/>
      <point x="150.667" y="504.333"/>
      <point x="160" y="473" type="curve" smooth="yes"/>
      <point x="169.333" y="441.667"/>
      <point x="174" y="417.333"/>
      <point x="174" y="400" type="curve" smooth="yes"/>
      <point x="174" y="373.333"/>
      <point x="152" y="345.667"/>
      <point x="108" y="317" type="curve"/>
      <point x="152" y="291"/>
      <point x="174" y="264"/>
      <point x="174" y="236" type="curve" smooth="yes"/>
      <point x="174" y="207.605"/>
      <point x="146" y="115.695"/>
      <point x="146" y="108" type="curve" smooth="yes"/>
      <point x="146" y="14.6667"/>
      <point x="152" y="10"/>
      <point x="224" y="10" type="curve"/>
      <point x="224" y="-52" type="line"/>
      <point x="176" y="-52"/>
      <point x="152" y="-48"/>
      <point x="124" y="-28" type="curve" smooth="yes"/>
      <point x="97.3333" y="-8.66667"/>
      <point x="84" y="36.6667"/>
      <point x="84" y="108" type="curve" smooth="yes"/>
      <point x="84" y="126.567"/>
      <point x="112" y="220.651"/>
      <point x="112" y="238" type="curve" smooth="yes"/>
      <point x="112" y="262"/>
      <point x="71" y="292.667"/>
      <point x="39" y="310" type="curve"/>
    </contour>
  </outline>
</glyph>
<glyph name="bar" format="1">
  <advance width="224"/>
  <unicode hex="007C"/>
  <outline>
    <contour>
      <point x="143" y="29" type="line" smooth="yes"/>
      <point x="143" y="5"/>
      <point x="132.667" y="-7"/>
      <point x="112" y="-7" type="curve" smooth="yes"/>
      <point x="91.3333" y="-7"/>
      <point x="81" y="5"/>
      <point x="81" y="29" type="curve" smooth="yes"/>
      <point x="81" y="606" type="line" smooth="yes"/>
      <point x="81" y="630.667"/>
      <point x="91.3333" y="643"/>
      <point x="112" y="643" type="curve" smooth="yes"/>
      <point x="132.667" y="643"/>
      <point x="143" y="630.667"/>
      <point x="143" y="606" type="curve" smooth="yes"/>
    </contour>
  </outline>
</glyph>
<glyph name="braceright" format="1">
  <advance width="275"/>
  <unicode hex="007D"/>
  <outline>
    <contour>
      <point x="236" y="324" type="curve"/>
      <point x="236" y="310" type="line"/>
      <point x="204" y="292.667"/>
      <point x="163" y="262"/>
      <point x="163" y="238" type="curve" smooth="yes"/>
      <point x="163" y="220.651"/>
      <point x="191" y="126.567"/>
      <point x="191" y="108" type="curve" smooth="yes"/>
      <point x="191" y="36.6667"/>
      <point x="177.667" y="-8.66667"/>
      <point x="151" y="-28" type="curve" smooth="yes"/>
      <point x="123" y="-48"/>
      <point x="99" y="-52"/>
      <point x="51" y="-52" type="curve"/>
      <point x="51" y="10" type="line"/>
      <point x="123" y="10"/>
      <point x="129" y="14.6667"/>
      <point x="129" y="108" type="curve" smooth="yes"/>
      <point x="129" y="115.695"/>
      <point x="101" y="207.605"/>
      <point x="101" y="236" type="curve" smooth="yes"/>
      <point x="101" y="264"/>
      <point x="123" y="291"/>
      <point x="167" y="317" type="curve"/>
      <point x="123" y="345.667"/>
      <point x="101" y="373.333"/>
      <point x="101" y="400" type="curve" smooth="yes"/>
      <point x="101" y="417.333"/>
      <point x="105.667" y="441.667"/>
      <point x="115" y="473" type="curve" smooth="yes"/>
      <point x="124.333" y="504.333"/>
      <point x="129" y="522.667"/>
      <point x="129" y="528" type="curve" smooth="yes"/>
      <point x="129" y="620"/>
      <point x="123" y="626"/>
      <point x="51" y="626" type="curve"/>
      <point x="51" y="688" type="line"/>
      <point x="99" y="688"/>
      <point x="123" y="684"/>
      <point x="151" y="664" type="curve" smooth="yes"/>
      <point x="177.667" y="644.667"/>
      <point x="191" y="599.333"/>
      <point x="191" y="528" type="curve" smooth="yes"/>
      <point x="191" y="509.433"/>
      <point x="163" y="415.349"/>
      <point x="163" y="398" type="curve" smooth="yes"/>
      <point x="163" y="374"/>
      <point x="208" y="338.667"/>
    </contour>
  </outline>
</glyph>
<glyph name="asciitilde" format="1">
  <advance width="431"/>
  <unicode hex="007E"/>
  <outline>
    <contour>
      <point x="262" y="241" type="line" smooth="yes"/>
      <point x="268.667" y="238.333"/>
      <point x="272.333" y="238.333"/>
      <point x="275" y="241" type="curve" smooth="yes"/>
      <point x="306" y="269" type="line"/>
      <point x="334.27" y="297.27"/>
      <point x="389.908" y="256.488"/>
      <point x="345" y="220" type="curve" smooth="yes"/>
      <point x="300" y="182" type="line"/>
      <point x="281.333" y="168.667"/>
      <point x="267" y="171.333"/>
      <point x="263" y="174" type="curve"/>
      <point x="169" y="210" type="line" smooth="yes"/>
      <point x="162.333" y="212.667"/>
      <point x="158.667" y="212.667"/>
      <point x="156" y="210" type="curve" smooth="yes"/>
      <point x="125" y="182" type="line"/>
      <point x="96.7298" y="153.73"/>
      <point x="41.0916" y="194.512"/>
      <point x="86" y="231" type="curve" smooth="yes"/>
      <point x="131" y="269" type="line"/>
      <point x="148.333" y="282.333"/>
      <point x="162.667" y="279.667"/>
      <point x="168" y="277" type="curve" smooth="yes"/>
    </contour>
  </outline>
</glyph>
<glyph name="exclamdown" format="1">
  <advance width="236"/>
  <unicode hex="00A1"/>
  <outline>
    <contour>
      <point x="87" y="-138" type="curve" smooth="yes"/>
      <point x="87" y="282" type="line" smooth="yes"/>
      <point x="87" y="307.333"/>
      <point x="97.3333" y="320"/>
      <point x="118" y="320" type="curve" smooth="yes"/>
      <point x="138.667" y="320"/>
      <point x="149" y="307.333"/>
      <point x="149" y="282" type="curve" smooth="yes"/>
      <point x="149" y="-138" type="line" smooth="yes"/>
      <point x="149" y="-162.667"/>
      <point x="138.667" y="-175"/>
      <point x="118" y="-175" type="curve" smooth="yes"/>
      <point x="97.3333" y="-175"/>
      <point x="87" y="-162.667"/>
    </contour>
    <contour>
      <point x="117.5" y="496" type="curve" smooth="yes"/>
      <point x="143.5" y="496"/>
      <point x="174" y="476.5"/>
      <point x="174" y="450.5" type="curve" smooth="yes"/>
      <point x="174" y="424.5"/>
      <point x="142.167" y="404"/>
      <point x="117.5" y="404" type="curve" smooth="yes"/>
      <point x="92.8333" y="404"/>
      <point x="61" y="424.667"/>
      <point x="61" y="450" type="curve" smooth="yes"/>
      <point x="61" y="475.333"/>
      <point x="91.5" y="496"/>
    </contour>
  </outline>
</glyph>
<glyph name="cent" format="1">
  <advance width="488"/>
  <unicode hex="00A2"/>
  <outline>
    <contour>
      <point x="218" y="20" type="curve" smooth="yes"/>
      <point x="218" y="113" type="line"/>
      <point x="104.667" y="121"/>
      <point x="49" y="168.667"/>
      <point x="49" y="298" type="curve" smooth="yes"/>
      <point x="49" y="340" type="line" smooth="yes"/>
      <point x="49" y="468"/>
      <point x="107.333" y="516"/>
      <point x="218" y="524" type="curve"/>
      <point x="218" y="615" type="line" smooth="yes"/>
      <point x="218" y="640.333"/>
      <point x="228.333" y="653"/>
      <point x="249" y="653" type="curve" smooth="yes"/>
      <point x="269.667" y="653"/>
      <point x="280" y="640.333"/>
      <point x="280" y="615" type="curve" smooth="yes"/>
      <point x="280" y="525" type="line"/>
      <point x="327" y="525" type="line"/>
      <point x="328.333" y="525"/>
      <point x="329.333" y="525"/>
      <point x="330" y="525" type="curve"/>
      <point x="372.667" y="525"/>
      <point x="400.667" y="512.667"/>
      <point x="414" y="488" type="curve" smooth="yes"/>
      <point x="425.333" y="467.333"/>
      <point x="431" y="442.167"/>
      <point x="431" y="412.5" type="curve" smooth="yes"/>
      <point x="431" y="382.833"/>
      <point x="420.667" y="368"/>
      <point x="400" y="368" type="curve" smooth="yes"/>
      <point x="379.333" y="368"/>
      <point x="369" y="380"/>
      <point x="369" y="404" type="curve" smooth="yes"/>
      <point x="369" y="452"/>
      <point x="358.667" y="463"/>
      <point x="320" y="463" type="curve" smooth="yes"/>
      <point x="280" y="463" type="line"/>
      <point x="280" y="175" type="line"/>
      <point x="318" y="175" type="line" smooth="yes"/>
      <point x="338" y="175"/>
      <point x="351.5" y="179"/>
      <point x="358.5" y="187" type="curve" smooth="yes"/>
      <point x="365.5" y="195"/>
      <point x="369" y="210.833"/>
      <point x="369" y="234.5" type="curve" smooth="yes"/>
      <point x="369" y="258.167"/>
      <point x="379.333" y="270"/>
      <point x="400" y="270" type="curve" smooth="yes"/>
      <point x="420.667" y="270"/>
      <point x="431" y="254.5"/>
      <point x="431" y="223.5" type="curve" smooth="yes"/>
      <point x="431" y="161.5"/>
      <point x="409" y="113"/>
      <point x="325" y="113" type="curve" smooth="yes"/>
      <point x="280" y="113" type="line"/>
      <point x="280" y="20" type="line" smooth="yes"/>
      <point x="280" y="-4.66667"/>
      <point x="269.667" y="-17"/>
      <point x="249" y="-17" type="curve" smooth="yes"/>
      <point x="228.333" y="-17"/>
      <point x="218" y="-4.66667"/>
    </contour>
    <contour>
      <point x="218" y="176" type="curve"/>
      <point x="218" y="462" type="line"/>
      <point x="140.667" y="456.667"/>
      <point x="111" y="430.667"/>
      <point x="111" y="340" type="curve" smooth="yes"/>
      <point x="111" y="298" type="line" smooth="yes"/>
      <point x="111" y="206"/>
      <point x="138" y="181.333"/>
    </contour>
  </outline>
</glyph>
<glyph name="sterling" format="1">
  <advance width="512"/>
  <unicode hex="00A3"/>
  <outline>
    <contour>
      <point x="67" y="33" type="curve" smooth="yes"/>
      <point x="105" y="468" type="line" smooth="yes"/>
      <point x="111.667" y="545.333"/>
      <point x="134" y="596.333"/>
      <point x="172" y="621" type="curve" smooth="yes"/>
      <point x="205.333" y="642.333"/>
      <point x="246.333" y="653"/>
      <point x="295" y="653" type="curve" smooth="yes"/>
      <point x="392.333" y="653"/>
      <point x="452" y="618.333"/>
      <point x="452" y="501" type="curve" smooth="yes"/>
      <point x="452" y="475.667"/>
      <point x="441.667" y="463"/>
      <point x="421" y="463" type="curve" smooth="yes"/>
      <point x="400.333" y="463"/>
      <point x="390" y="475.667"/>
      <point x="390" y="501" type="curve" smooth="yes"/>
      <point x="390" y="577"/>
      <point x="362.667" y="591"/>
      <point x="288" y="591" type="curve" smooth="yes"/>
      <point x="213.333" y="591"/>
      <point x="176.333" y="569.333"/>
      <point x="167" y="468" type="curve" smooth="yes"/>
      <point x="158" y="374" type="line"/>
      <point x="187" y="374" type="line" smooth="yes"/>
      <point x="211.667" y="374"/>
      <point x="224" y="363.667"/>
      <point x="224" y="343" type="curve" smooth="yes"/>
      <point x="224" y="322.333"/>
      <point x="211.667" y="312"/>
      <point x="187" y="312" type="curve" smooth="yes"/>
      <point x="154" y="312" type="line"/>
      <point x="130" y="52" type="line"/>
      <point x="416" y="52" type="line" smooth="yes"/>
      <point x="441.333" y="52"/>
      <point x="454" y="41.6667"/>
      <point x="454" y="21" type="curve" smooth="yes"/>
      <point x="454" y="0.333333"/>
      <point x="441.333" y="-10"/>
      <point x="416" y="-10" type="curve" smooth="yes"/>
      <point x="93" y="-10" type="line" smooth="yes"/>
      <point x="75" y="-10"/>
      <point x="66" y="1.33333"/>
      <point x="66" y="24" type="curve" smooth="yes"/>
      <point x="66" y="28"/>
      <point x="66.3333" y="31"/>
    </contour>
  </outline>
</glyph>
<glyph name="currency" format="1">
  <advance width="509"/>
  <unicode hex="00A4"/>
  <outline>
    <contour>
      <point x="184.5" y="300.5" type="curve" smooth="yes"/>
      <point x="145.167" y="261.167"/>
      <point x="145.167" y="198.667"/>
      <point x="184.5" y="160" type="curve" smooth="yes"/>
      <point x="223.833" y="121.333"/>
      <point x="286.333" y="121.167"/>
      <point x="325" y="160.5" type="curve" smooth="yes"/>
      <point x="363.667" y="199.833"/>
      <point x="363.667" y="260"/>
      <point x="325" y="300" type="curve" smooth="yes"/>
      <point x="286.333" y="340"/>
      <point x="223.833" y="339.833"/>
    </contour>
    <contour>
      <point x="126" y="314" type="curve"/>
      <point x="83" y="357" type="line"/>
      <point x="51.446" y="395.836"/>
      <point x="88.4596" y="430.472"/>
      <point x="127" y="401" type="curve"/>
      <point x="170" y="358" type="line"/>
      <point x="220.667" y="392.667"/>
      <point x="289.667" y="392.333"/>
      <point x="339" y="359" type="curve"/>
      <point x="381" y="401" type="line" smooth="yes"/>
      <point x="413.054" y="433.054"/>
      <point x="466.007" y="393.631"/>
      <point x="423" y="356" type="curve"/>
      <point x="383" y="315" type="line"/>
      <point x="416.333" y="265.667"/>
      <point x="416.333" y="196.667"/>
      <point x="383" y="146" type="curve"/>
      <point x="424" y="105" type="line" smooth="yes"/>
      <point x="460.466" y="68.5338"/>
      <point x="416.519" y="23.0466"/>
      <point x="380" y="62" type="curve"/>
      <point x="339" y="102" type="line"/>
      <point x="289.667" y="68.6667"/>
      <point x="220.667" y="68.3333"/>
      <point x="170" y="103" type="curve"/>
      <point x="128" y="62" type="line"/>
      <point x="92.4305" y="21.3492"/>
      <point x="48.1193" y="66.4362"/>
      <point x="83" y="104" type="curve"/>
      <point x="126" y="147" type="line"/>
      <point x="92.6667" y="193.667"/>
      <point x="92.6667" y="266"/>
    </contour>
  </outline>
</glyph>
<glyph name="yen" format="1">
  <advance width="549"/>
  <unicode hex="00A5"/>
  <outline>
    <contour>
      <point x="41" y="598" type="line"/>
      <point x="13.5621" y="631.314"/>
      <point x="53.3399" y="680.314"/>
      <point x="91" y="633" type="curve"/>
      <point x="275" y="372" type="line"/>
      <point x="458" y="633" type="line" smooth="yes"/>
      <point x="492.856" y="681.621"/>
      <point x="538.301" y="629.065"/>
      <point x="509" y="598" type="curve"/>
      <point x="306" y="306" type="line"/>
      <point x="306" y="282" type="line"/>
      <point x="395" y="282" type="line" smooth="yes"/>
      <point x="420.333" y="282"/>
      <point x="433" y="271.667"/>
      <point x="433" y="251" type="curve" smooth="yes"/>
      <point x="433" y="230.333"/>
      <point x="420.333" y="220"/>
      <point x="395" y="220" type="curve" smooth="yes"/>
      <point x="306" y="220" type="line"/>
      <point x="306" y="193" type="line"/>
      <point x="395" y="193" type="line" smooth="yes"/>
      <point x="420.333" y="193"/>
      <point x="433" y="182.667"/>
      <point x="433" y="162" type="curve" smooth="yes"/>
      <point x="433" y="141.333"/>
      <point x="420.333" y="131"/>
      <point x="395" y="131" type="curve" smooth="yes"/>
      <point x="306" y="131" type="line"/>
      <point x="306" y="20" type="line" smooth="yes"/>
      <point x="306" y="-4.66667"/>
      <point x="295.833" y="-17"/>
      <point x="275.5" y="-17" type="curve" smooth="yes"/>
      <point x="255.167" y="-17"/>
      <point x="245" y="-4.66667"/>
      <point x="245" y="20" type="curve" smooth="yes"/>
      <point x="245" y="131" type="line"/>
      <point x="150" y="131" type="line" smooth="yes"/>
      <point x="125.333" y="131"/>
      <point x="113" y="141.333"/>
      <point x="113" y="162" type="curve" smooth="yes"/>
      <point x="113" y="182.667"/>
      <point x="125.333" y="193"/>
      <point x="150" y="193" type="curve" smooth="yes"/>
      <point x="245" y="193" type="line"/>
      <point x="245" y="220" type="line"/>
      <point x="150" y="220" type="line" smooth="yes"/>
      <point x="125.333" y="220"/>
      <point x="113" y="230.333"/>
      <point x="113" y="251" type="curve" smooth="yes"/>
      <point x="113" y="271.667"/>
      <point x="125.333" y="282"/>
      <point x="150" y="282" type="curve" smooth="yes"/>
      <point x="245" y="282" type="line"/>
      <point x="245" y="306" type="line"/>
    </contour>
  </outline>
</glyph>
<glyph name="brokenbar" format="1">
  <advance width="221"/>
  <unicode hex="00A6"/>
  <outline>
    <contour>
      <point x="141" y="616" type="curve"/>
      <point x="141" y="401" type="line" smooth="yes"/>
      <point x="141" y="375.667"/>
      <point x="130.333" y="363"/>
      <point x="109" y="363" type="curve" smooth="yes"/>
      <point x="89.6667" y="363"/>
      <point x="80" y="375.667"/>
      <point x="80" y="401" type="curve" smooth="yes"/>
      <point x="80" y="616" type="line" smooth="yes"/>
      <point x="80" y="640.667"/>
      <point x="90" y="653"/>
      <point x="110" y="653" type="curve" smooth="yes"/>
      <point x="130" y="653"/>
      <point x="140.333" y="640.667"/>
    </contour>
    <contour>
      <point x="141" y="237" type="curve"/>
      <point x="141" y="22" type="line" smooth="yes"/>
      <point x="141" y="-4"/>
      <point x="130.333" y="-17"/>
      <point x="109" y="-17" type="curve" smooth="yes"/>
      <point x="89.6667" y="-17"/>
      <point x="80" y="-4"/>
      <point x="80" y="22" type="curve" smooth="yes"/>
      <point x="80" y="237" type="line" smooth="yes"/>
      <point x="80" y="261"/>
      <point x="90" y="273"/>
      <point x="110" y="273" type="curve" smooth="yes"/>
      <point x="130" y="273"/>
      <point x="140.333" y="261"/>
    </contour>
  </outline>
</glyph>
<glyph name="section" format="1">
  <advance width="529"/>
  <unicode hex="00A7"/>
  <outline>
    <contour>
      <point x="454" y="99" type="curve" smooth="yes"/>
      <point x="454" y="26.3333"/>
      <point x="417.333" y="-10"/>
      <point x="344" y="-10" type="curve" smooth="yes"/>
      <point x="160" y="-10" type="line" smooth="yes"/>
      <point x="92" y="-10"/>
      <point x="74" y="27.3333"/>
      <point x="74" y="86" type="curve" smooth="yes"/>
      <point x="74" y="117.808"/>
      <point x="108.831" y="132.365"/>
      <point x="127.5" y="111.5" type="curve"/>
      <point x="146.5" y="86.4167"/>
      <point x="120.5" y="43.3333"/>
      <point x="171" y="52" type="curve"/>
      <point x="355" y="52" type="line" smooth="yes"/>
      <point x="384.333" y="52"/>
      <point x="392" y="64.3333"/>
      <point x="392" y="99" type="curve" smooth="yes"/>
      <point x="392" y="139.667"/>
      <point x="380.333" y="161.333"/>
      <point x="357" y="164" type="curve"/>
      <point x="182" y="189" type="line"/>
      <point x="110" y="198.333"/>
      <point x="74" y="237.333"/>
      <point x="74" y="306" type="curve" smooth="yes"/>
      <point x="74" y="351.333"/>
      <point x="87.6667" y="382.667"/>
      <point x="115" y="400" type="curve"/>
      <point x="87.6667" y="419.333"/>
      <point x="74" y="451"/>
      <point x="74" y="495" type="curve" smooth="yes"/>
      <point x="74" y="567.667"/>
      <point x="110.667" y="604"/>
      <point x="184" y="604" type="curve" smooth="yes"/>
      <point x="369" y="604" type="line" smooth="yes"/>
      <point x="403" y="604"/>
      <point x="425.667" y="595.333"/>
      <point x="437" y="578" type="curve" smooth="yes"/>
      <point x="459.667" y="543.333"/>
      <point x="464.333" y="473"/>
      <point x="423" y="473" type="curve"/>
      <point x="371.771" y="466.065"/>
      <point x="417.327" y="556.621"/>
      <point x="357" y="542" type="curve"/>
      <point x="173" y="542" type="line" smooth="yes"/>
      <point x="143.667" y="542"/>
      <point x="136" y="529.667"/>
      <point x="136" y="495" type="curve" smooth="yes"/>
      <point x="136" y="454.333"/>
      <point x="147.667" y="432.667"/>
      <point x="171" y="430" type="curve"/>
      <point x="346" y="405" type="line"/>
      <point x="418" y="395.667"/>
      <point x="454" y="357"/>
      <point x="454" y="289" type="curve" smooth="yes"/>
      <point x="454" y="242.333"/>
      <point x="440.333" y="210.667"/>
      <point x="413" y="194" type="curve"/>
      <point x="440.333" y="174.667"/>
      <point x="454" y="143"/>
    </contour>
    <contour>
      <point x="149" y="354" type="curve" smooth="yes"/>
      <point x="140.333" y="348"/>
      <point x="136" y="332.5"/>
      <point x="136" y="307.5" type="curve" smooth="yes"/>
      <point x="136" y="282.5"/>
      <point x="152.833" y="263.5"/>
      <point x="186.5" y="250.5" type="curve" smooth="yes"/>
      <point x="220.167" y="237.5"/>
      <point x="258.333" y="231"/>
      <point x="301" y="231" type="curve" smooth="yes"/>
      <point x="386.333" y="231"/>
      <point x="392" y="235.667"/>
      <point x="392" y="289" type="curve" smooth="yes"/>
      <point x="392" y="303"/>
      <point x="386" y="315.333"/>
      <point x="374" y="326" type="curve" smooth="yes"/>
      <point x="362" y="335.333"/>
      <point x="346.667" y="342.667"/>
      <point x="328" y="348" type="curve" smooth="yes"/>
      <point x="292" y="357.333"/>
      <point x="255.333" y="362"/>
      <point x="218" y="362" type="curve"/>
      <point x="216" y="362"/>
      <point x="214" y="362.333"/>
      <point x="212" y="363" type="curve"/>
      <point x="178" y="363"/>
      <point x="157" y="360"/>
    </contour>
  </outline>
</glyph>
<glyph name="dieresis" format="1">
  <advance width="367"/>
  <unicode hex="00A8"/>
  <outline>
    <contour>
      <point x="127.5" y="662.5" type="curve"/>
      <point x="188.147" y="622.575"/>
      <point x="93.8137" y="553.631"/>
      <point x="52.5" y="597" type="curve"/>
      <point x="-2.39542" y="638.023"/>
      <point x="84.8268" y="706.967"/>
    </contour>
    <contour>
      <point x="313.5" y="662.5" type="curve"/>
      <point x="374.147" y="622.575"/>
      <point x="279.814" y="553.631"/>
      <point x="238.5" y="597" type="curve"/>
      <point x="183.605" y="638.023"/>
      <point x="270.827" y="706.967"/>
    </contour>
  </outline>
</glyph>
<glyph name="copyright" format="1">
  <advance width="622"/>
  <unicode hex="00A9"/>
  <outline>
    <contour>
      <point x="366" y="264" type="curve"/>
      <point x="366" y="284"/>
      <point x="374" y="294"/>
      <point x="390" y="294" type="curve" smooth="yes"/>
      <point x="403.333" y="294"/>
      <point x="416" y="287.5"/>
      <point x="416" y="265.5" type="curve" smooth="yes"/>
      <point x="416" y="243.5"/>
      <point x="401.333" y="209"/>
      <point x="356" y="209" type="curve" smooth="yes"/>
      <point x="306" y="209" type="line" smooth="yes"/>
      <point x="250" y="209"/>
      <point x="206" y="240.667"/>
      <point x="206" y="298" type="curve" smooth="yes"/>
      <point x="206" y="337" type="line" smooth="yes"/>
      <point x="206" y="394.333"/>
      <point x="250" y="426"/>
      <point x="306" y="426" type="curve" smooth="yes"/>
      <point x="356" y="426" type="line" smooth="yes"/>
      <point x="398.667" y="426"/>
      <point x="416" y="392.667"/>
      <point x="416" y="370" type="curve" smooth="yes"/>
      <point x="416" y="350.667"/>
      <point x="407.333" y="341"/>
      <point x="390" y="341" type="curve" smooth="yes"/>
      <point x="378" y="341"/>
      <point x="370.667" y="346.333"/>
      <point x="368" y="357" type="curve" smooth="yes"/>
      <point x="364" y="373" type="line"/>
      <point x="361.333" y="374.333"/>
      <point x="358" y="375"/>
      <point x="354" y="375" type="curve" smooth="yes"/>
      <point x="306" y="375" type="line" smooth="yes"/>
      <point x="275.333" y="375"/>
      <point x="256" y="359.667"/>
      <point x="256" y="337" type="curve" smooth="yes"/>
      <point x="256" y="298" type="line" smooth="yes"/>
      <point x="256" y="275.333"/>
      <point x="275.333" y="260"/>
      <point x="306" y="260" type="curve" smooth="yes"/>
      <point x="354" y="260" type="line" smooth="yes"/>
      <point x="360" y="260"/>
      <point x="364" y="261.333"/>
    </contour>
    <contour>
      <point x="79" y="262" type="curve"/>
      <point x="79" y="373" type="line"/>
      <point x="79.6667" y="448.333"/>
      <point x="100" y="498.667"/>
      <point x="140" y="524" type="curve" smooth="yes"/>
      <point x="180" y="550.667"/>
      <point x="225" y="558"/>
      <point x="297" y="558" type="curve" smooth="yes"/>
      <point x="326" y="558" type="line" smooth="yes"/>
      <point x="398" y="558"/>
      <point x="441.667" y="550.667"/>
      <point x="483" y="524" type="curve" smooth="yes"/>
      <point x="523" y="498.667"/>
      <point x="543" y="448.333"/>
      <point x="543" y="373" type="curve" smooth="yes"/>
      <point x="543" y="262" type="line" smooth="yes"/>
      <point x="543" y="186"/>
      <point x="523" y="135.333"/>
      <point x="483" y="110" type="curve" smooth="yes"/>
      <point x="441.667" y="83.3333"/>
      <point x="398" y="77"/>
      <point x="326" y="77" type="curve" smooth="yes"/>
      <point x="297" y="77" type="line" smooth="yes"/>
      <point x="260.333" y="77"/>
      <point x="230" y="79.3333"/>
      <point x="206" y="84" type="curve" smooth="yes"/>
      <point x="182" y="88"/>
      <point x="160" y="96.6667"/>
      <point x="140" y="110" type="curve" smooth="yes"/>
      <point x="100" y="135.333"/>
      <point x="79.6667" y="186"/>
    </contour>
    <contour>
      <point x="297" y="139" type="curve" smooth="yes"/>
      <point x="326" y="139" type="line" smooth="yes"/>
      <point x="444.667" y="139"/>
      <point x="481" y="156.667"/>
      <point x="481" y="262" type="curve" smooth="yes"/>
      <point x="481" y="373" type="line" smooth="yes"/>
      <point x="481" y="478.333"/>
      <point x="444.667" y="496"/>
      <point x="326" y="496" type="curve" smooth="yes"/>
      <point x="297" y="496" type="line" smooth="yes"/>
      <point x="177" y="496"/>
      <point x="141" y="478.333"/>
      <point x="141" y="373" type="curve" smooth="yes"/>
      <point x="141" y="262" type="line" smooth="yes"/>
      <point x="141" y="156.667"/>
      <point x="177" y="139"/>
    </contour>
  </outline>
</glyph>
<glyph name="ordfeminine" format="1">
  <advance width="386"/>
  <unicode hex="00AA"/>
  <outline>
    <contour>
      <point x="247" y="344" type="curve"/>
      <point x="195" y="344" type="line" smooth="yes"/>
      <point x="171.667" y="344"/>
      <point x="156.667" y="342"/>
      <point x="150" y="338" type="curve" smooth="yes"/>
      <point x="143.333" y="332.667"/>
      <point x="139.667" y="325.333"/>
      <point x="139" y="316" type="curve"/>
      <point x="139" y="298.667"/>
      <point x="143.667" y="290"/>
      <point x="153" y="290" type="curve" smooth="yes"/>
      <point x="190" y="290" type="line" smooth="yes"/>
      <point x="224" y="290"/>
      <point x="243" y="308"/>
    </contour>
    <contour>
      <point x="94" y="209" type="curve" smooth="yes"/>
      <point x="290" y="209" type="line" smooth="yes"/>
      <point x="310" y="209"/>
      <point x="323" y="197.333"/>
      <point x="323" y="180" type="curve" smooth="yes"/>
      <point x="323" y="162.667"/>
      <point x="312" y="154"/>
      <point x="290" y="154" type="curve" smooth="yes"/>
      <point x="94" y="154" type="line" smooth="yes"/>
      <point x="52.4314" y="154"/>
      <point x="52.4314" y="209"/>
    </contour>
    <contour>
      <point x="298" y="258" type="line" smooth="yes"/>
      <point x="298" y="243.333"/>
      <point x="283.667" y="236"/>
      <point x="273" y="236" type="curve" smooth="yes"/>
      <point x="257" y="236"/>
      <point x="248.333" y="243"/>
      <point x="247" y="257" type="curve"/>
      <point x="233.667" y="245"/>
      <point x="214.667" y="239"/>
      <point x="190" y="239" type="curve" smooth="yes"/>
      <point x="153" y="239" type="line" smooth="yes"/>
      <point x="114.333" y="239"/>
      <point x="88" y="273.667"/>
      <point x="88" y="311" type="curve" smooth="yes"/>
      <point x="88" y="373.667"/>
      <point x="124.333" y="395"/>
      <point x="195" y="395" type="curve" smooth="yes"/>
      <point x="247" y="395" type="line"/>
      <point x="247" y="404" type="line" smooth="yes"/>
      <point x="247" y="417.333"/>
      <point x="244" y="420"/>
      <point x="232" y="420" type="curve" smooth="yes"/>
      <point x="153" y="420" type="line" smooth="yes"/>
      <point x="131.801" y="420"/>
      <point x="145.081" y="404.602"/>
      <point x="133" y="389.5" type="curve" smooth="yes"/>
      <point x="118.864" y="371.83"/>
      <point x="88" y="385.969"/>
      <point x="88" y="404" type="curve" smooth="yes"/>
      <point x="88" y="441.333"/>
      <point x="114" y="471"/>
      <point x="150" y="471" type="curve" smooth="yes"/>
      <point x="235" y="471" type="line" smooth="yes"/>
      <point x="277" y="471"/>
      <point x="298" y="446.333"/>
      <point x="298" y="397" type="curve" smooth="yes"/>
    </contour>
  </outline>
</glyph>
<glyph name="logicalnot" format="1">
  <advance width="531"/>
  <unicode hex="00AC"/>
  <outline>
    <contour>
      <point x="419" y="103" type="curve" smooth="yes"/>
      <point x="400.333" y="103"/>
      <point x="389" y="118.333"/>
      <point x="389" y="141" type="curve" smooth="yes"/>
      <point x="389" y="199" type="line"/>
      <point x="115" y="199" type="line" smooth="yes"/>
      <point x="91" y="199"/>
      <point x="79" y="209.667"/>
      <point x="79" y="231" type="curve" smooth="yes"/>
      <point x="79" y="247"/>
      <point x="89.6667" y="262"/>
      <point x="115" y="262" type="curve" smooth="yes"/>
      <point x="413" y="262" type="line" smooth="yes"/>
      <point x="439" y="262"/>
      <point x="452" y="249.667"/>
      <point x="452" y="225" type="curve" smooth="yes"/>
      <point x="452" y="141" type="line" smooth="yes"/>
      <point x="452" y="115.667"/>
      <point x="441" y="103"/>
    </contour>
  </outline>
</glyph>
<glyph name="macron" format="1">
  <advance width="429"/>
  <unicode hex="00AF"/>
  <outline>
    <contour>
      <point x="91" y="731" type="curve" smooth="yes"/>
      <point x="336" y="731" type="line" smooth="yes"/>
      <point x="362" y="731"/>
      <point x="375" y="720"/>
      <point x="375" y="698" type="curve" smooth="yes"/>
      <point x="375" y="679.333"/>
      <point x="357.333" y="668"/>
      <point x="336" y="668" type="curve" smooth="yes"/>
      <point x="91" y="668" type="line" smooth="yes"/>
      <point x="67" y="668"/>
      <point x="55" y="678.667"/>
      <point x="55" y="700" type="curve" smooth="yes"/>
      <point x="55" y="716"/>
      <point x="65.6667" y="731"/>
    </contour>
  </outline>
</glyph>
<glyph name="degree" format="1">
  <advance width="413"/>
  <unicode hex="00B0"/>
  <outline>
    <contour>
      <point x="206" y="627" type="curve" smooth="yes"/>
      <point x="155.333" y="627"/>
      <point x="114" y="584.5"/>
      <point x="114" y="534.5" type="curve" smooth="yes"/>
      <point x="114" y="484.5"/>
      <point x="155.333" y="442"/>
      <point x="206" y="442" type="curve" smooth="yes"/>
      <point x="256.667" y="442"/>
      <point x="299" y="484.333"/>
      <point x="299" y="535" type="curve" smooth="yes"/>
      <point x="299" y="585.667"/>
      <point x="256.667" y="627"/>
    </contour>
    <contour>
      <point x="206.5" y="688" type="curve" smooth="yes"/>
      <point x="291.167" y="688"/>
      <point x="360" y="619.167"/>
      <point x="360" y="534.5" type="curve" smooth="yes"/>
      <point x="360" y="449.833"/>
      <point x="291.167" y="381"/>
      <point x="206.5" y="381" type="curve" smooth="yes"/>
      <point x="121.833" y="381"/>
      <point x="53" y="449.833"/>
      <point x="53" y="534.5" type="curve" smooth="yes"/>
      <point x="53" y="619.167"/>
      <point x="121.833" y="688"/>
    </contour>
  </outline>
</glyph>
<glyph name="plusminus" format="1">
  <advance width="583"/>
  <unicode hex="00B1"/>
  <outline>
    <contour>
      <point x="479" y="-5" type="curve" smooth="yes"/>
      <point x="101" y="-5" type="line" smooth="yes"/>
      <point x="77" y="-5"/>
      <point x="65" y="6"/>
      <point x="65" y="28" type="curve" smooth="yes"/>
      <point x="65" y="48"/>
      <point x="77" y="58"/>
      <point x="101" y="58" type="curve" smooth="yes"/>
      <point x="479" y="58" type="line" smooth="yes"/>
      <point x="505" y="58"/>
      <point x="518" y="47"/>
      <point x="518" y="25" type="curve" smooth="yes"/>
      <point x="518" y="6.33333"/>
      <point x="500.333" y="-5"/>
    </contour>
    <contour>
      <point x="260" y="143" type="curve" smooth="yes"/>
      <point x="260" y="260" type="line"/>
      <point x="101" y="260" type="line" smooth="yes"/>
      <point x="77" y="260"/>
      <point x="65" y="271"/>
      <point x="65" y="293" type="curve" smooth="yes"/>
      <point x="65" y="313"/>
      <point x="77" y="323"/>
      <point x="101" y="323" type="curve" smooth="yes"/>
      <point x="260" y="323" type="line"/>
      <point x="260" y="440" type="line" smooth="yes"/>
      <point x="260" y="465.333"/>
      <point x="270.333" y="478"/>
      <point x="291" y="478" type="curve" smooth="yes"/>
      <point x="311.667" y="478"/>
      <point x="322" y="465.333"/>
      <point x="322" y="440" type="curve" smooth="yes"/>
      <point x="322" y="323" type="line"/>
      <point x="479" y="323" type="line" smooth="yes"/>
      <point x="505" y="323"/>
      <point x="518" y="312.333"/>
      <point x="518" y="291" type="curve" smooth="yes"/>
      <point x="518" y="272.333"/>
      <point x="501.667" y="260"/>
      <point x="479" y="260" type="curve" smooth="yes"/>
      <point x="322" y="260" type="line"/>
      <point x="322" y="143" type="line" smooth="yes"/>
      <point x="322" y="118.333"/>
      <point x="311.667" y="106"/>
      <point x="291" y="106" type="curve" smooth="yes"/>
      <point x="270.333" y="106"/>
      <point x="260" y="118.333"/>
    </contour>
  </outline>
</glyph>
<glyph name="twosuperior" format="1">
  <advance width="340"/>
  <unicode hex="00B2"/>
  <outline>
    <contour>
      <point x="260" y="451" type="curve" smooth="yes"/>
      <point x="47" y="451" type="line"/>
      <point x="47" y="483" type="line" smooth="yes"/>
      <point x="47" y="543"/>
      <point x="95" y="590.667"/>
      <point x="143" y="612" type="curve" smooth="yes"/>
      <point x="207" y="641.333"/>
      <point x="239" y="664.667"/>
      <point x="239" y="682" type="curve" smooth="yes"/>
      <point x="239" y="720.667"/>
      <point x="227.333" y="724"/>
      <point x="162" y="724" type="curve" smooth="yes"/>
      <point x="136" y="724" type="line" smooth="yes"/>
      <point x="114" y="724"/>
      <point x="103" y="717"/>
      <point x="103" y="703" type="curve" smooth="yes"/>
      <point x="103" y="666.608"/>
      <point x="47" y="666.608"/>
      <point x="47" y="703" type="curve" smooth="yes"/>
      <point x="47" y="745.667"/>
      <point x="86.6667" y="777"/>
      <point x="132" y="777" type="curve" smooth="yes"/>
      <point x="162" y="777" type="line" smooth="yes"/>
      <point x="247.333" y="777"/>
      <point x="292" y="760.667"/>
      <point x="292" y="682" type="curve" smooth="yes"/>
      <point x="292" y="643.333"/>
      <point x="249.333" y="607.333"/>
      <point x="204" y="586" type="curve" smooth="yes"/>
      <point x="143.333" y="558"/>
      <point x="110.333" y="530.667"/>
      <point x="105" y="504" type="curve"/>
      <point x="260" y="504" type="line"/>
      <point x="300.036" y="500.664"/>
      <point x="301.358" y="451"/>
    </contour>
  </outline>
</glyph>
<glyph name="threesuperior" format="1">
  <advance width="310"/>
  <unicode hex="00B3"/>
  <outline>
    <contour>
      <point x="91" y="701" type="curve" smooth="yes"/>
      <point x="91" y="685.667"/>
      <point x="81.3333" y="678"/>
      <point x="62" y="678" type="curve" smooth="yes"/>
      <point x="47.3333" y="678"/>
      <point x="35" y="688.333"/>
      <point x="35" y="703" type="curve" smooth="yes"/>
      <point x="35" y="737.667"/>
      <point x="80.6667" y="777"/>
      <point x="142" y="777" type="curve"/>
      <point x="192.667" y="776.333"/>
      <point x="225.333" y="769.333"/>
      <point x="240" y="756" type="curve" smooth="yes"/>
      <point x="277.333" y="722.667"/>
      <point x="285.333" y="652.667"/>
      <point x="216" y="618" type="curve"/>
      <point x="250.667" y="598"/>
      <point x="268" y="572"/>
      <point x="268" y="540" type="curve" smooth="yes"/>
      <point x="268" y="499.333"/>
      <point x="254.667" y="473.667"/>
      <point x="228" y="463" type="curve"/>
      <point x="162.917" y="429.667"/>
      <point x="23.5833" y="465.333"/>
      <point x="35" y="525" type="curve"/>
      <point x="35" y="539.667"/>
      <point x="47.3333" y="550"/>
      <point x="62" y="550" type="curve" smooth="yes"/>
      <point x="81.3333" y="550"/>
      <point x="91" y="542.333"/>
      <point x="91" y="527" type="curve"/>
      <point x="84.1961" y="502.51"/>
      <point x="227.196" y="484.843"/>
      <point x="216" y="538" type="curve"/>
      <point x="216" y="567.333"/>
      <point x="168" y="591"/>
      <point x="140" y="591" type="curve" smooth="yes"/>
      <point x="112" y="591"/>
      <point x="106" y="605.667"/>
      <point x="106" y="619" type="curve" smooth="yes"/>
      <point x="106" y="632.333"/>
      <point x="115.333" y="644"/>
      <point x="142" y="644" type="curve" smooth="yes"/>
      <point x="168.667" y="644"/>
      <point x="216" y="663.167"/>
      <point x="216" y="686.5" type="curve" smooth="yes"/>
      <point x="216" y="709.833"/>
      <point x="200.167" y="720.5"/>
      <point x="183.5" y="722.5" type="curve" smooth="yes"/>
      <point x="159.101" y="725.428"/>
      <point x="91" y="724.691"/>
    </contour>
  </outline>
</glyph>
<glyph name="acute" format="1">
  <advance width="212"/>
  <unicode hex="00B4"/>
  <outline>
    <contour>
      <point x="83" y="517" type="line"/>
      <point x="45.5976" y="474.611"/>
      <point x="5.81629" y="522.18"/>
      <point x="34" y="556" type="curve" smooth="yes"/>
      <point x="130" y="671" type="line"/>
      <point x="170.34" y="713.861"/>
      <point x="206.944" y="662.739"/>
      <point x="179" y="632" type="curve"/>
    </contour>
  </outline>
</glyph>
<glyph name="uni00B5" format="1">
  <advance width="584"/>
  <unicode hex="00B5"/>
  <outline>
    <contour>
      <point x="449" y="438" type="line" smooth="yes"/>
      <point x="449" y="464.667"/>
      <point x="459.333" y="478"/>
      <point x="480" y="478" type="curve" smooth="yes"/>
      <point x="500.667" y="478"/>
      <point x="511" y="464.667"/>
      <point x="511" y="438" type="curve" smooth="yes"/>
      <point x="511" y="24" type="line" smooth="yes"/>
      <point x="511" y="-3.33333"/>
      <point x="500.667" y="-17"/>
      <point x="480" y="-17" type="curve" smooth="yes"/>
      <point x="459.333" y="-17"/>
      <point x="449" y="-3.33333"/>
      <point x="449" y="24" type="curve" smooth="yes"/>
      <point x="449" y="46" type="line"/>
      <point x="409" y="8.66667"/>
      <point x="357" y="-10"/>
      <point x="293" y="-10" type="curve" smooth="yes"/>
      <point x="229" y="-10"/>
      <point x="177" y="8.66667"/>
      <point x="137" y="46" type="curve"/>
      <point x="137" y="-169" type="line" smooth="yes"/>
      <point x="137" y="-196.333"/>
      <point x="126" y="-210"/>
      <point x="104" y="-210" type="curve" smooth="yes"/>
      <point x="84.6667" y="-210"/>
      <point x="75" y="-196.333"/>
      <point x="75" y="-169" type="curve" smooth="yes"/>
      <point x="75" y="438" type="line" smooth="yes"/>
      <point x="75" y="464.667"/>
      <point x="85.3333" y="478"/>
      <point x="106" y="478" type="curve" smooth="yes"/>
      <point x="126.667" y="478"/>
      <point x="137" y="464.667"/>
      <point x="137" y="438" type="curve" smooth="yes"/>
      <point x="137" y="228" type="line" smooth="yes"/>
      <point x="137" y="114.667"/>
      <point x="191.667" y="52"/>
      <point x="293" y="52" type="curve" smooth="yes"/>
      <point x="394.333" y="52"/>
      <point x="449" y="114.667"/>
      <point x="449" y="228" type="curve" smooth="yes"/>
    </contour>
  </outline>
</glyph>
<glyph name="paragraph" format="1">
  <advance width="487"/>
  <unicode hex="00B6"/>
  <outline>
    <contour>
      <point x="335" y="20" type="curve" smooth="yes"/>
      <point x="335" y="584" type="line"/>
      <point x="304" y="584" type="line"/>
      <point x="304" y="20" type="line" smooth="yes"/>
      <point x="304" y="-4.66667"/>
      <point x="293.667" y="-17"/>
      <point x="273" y="-17" type="curve" smooth="yes"/>
      <point x="252.333" y="-17"/>
      <point x="242" y="-4.66667"/>
      <point x="242" y="20" type="curve" smooth="yes"/>
      <point x="242" y="327" type="line"/>
      <point x="210" y="327" type="line" smooth="yes"/>
      <point x="100.667" y="327"/>
      <point x="35" y="382"/>
      <point x="35" y="494" type="curve" smooth="yes"/>
      <point x="35" y="606"/>
      <point x="109.333" y="646"/>
      <point x="252" y="646" type="curve" smooth="yes"/>
      <point x="397" y="646" type="line"/>
      <point x="397" y="20" type="line" smooth="yes"/>
      <point x="397" y="-4.66667"/>
      <point x="386.667" y="-17"/>
      <point x="366" y="-17" type="curve" smooth="yes"/>
      <point x="345.333" y="-17"/>
      <point x="335" y="-4.66667"/>
    </contour>
  </outline>
</glyph>
<glyph name="periodcentered" format="1">
  <advance width="245"/>
  <unicode hex="00B7"/>
  <outline>
    <contour>
      <point x="158.5" y="420" type="curve"/>
      <point x="219.147" y="381.634"/>
      <point x="124.814" y="309.856"/>
      <point x="83.5" y="354" type="curve"/>
      <point x="28.6046" y="395.242"/>
      <point x="115.827" y="463.464"/>
    </contour>
  </outline>
</glyph>
<glyph name="cedilla" format="1">
  <advance width="242"/>
  <unicode hex="00B8"/>
  <outline>
    <contour>
      <point x="148" y="10" type="line"/>
      <point x="148" y="-28.9167"/>
      <point x="217" y="-33.3333"/>
      <point x="217" y="-100" type="curve" smooth="yes"/>
      <point x="217" y="-200.595"/>
      <point x="32" y="-201.817"/>
      <point x="32" y="-125" type="curve" smooth="yes"/>
      <point x="32" y="-110.333"/>
      <point x="41" y="-102"/>
      <point x="53" y="-102" type="curve" smooth="yes"/>
      <point x="65" y="-102"/>
      <point x="100" y="-120"/>
      <point x="124" y="-120" type="curve" smooth="yes"/>
      <point x="144.667" y="-120"/>
      <point x="155" y="-113.333"/>
      <point x="155" y="-100" type="curve" smooth="yes"/>
      <point x="155" y="-73.634"/>
      <point x="86" y="-61.8562"/>
      <point x="86" y="10" type="curve"/>
    </contour>
  </outline>
</glyph>
<glyph name="onesuperior" format="1">
  <advance width="168"/>
  <unicode hex="00B9"/>
  <outline>
    <contour>
      <point x="48" y="682" type="line" smooth="yes"/>
      <point x="12.4673" y="646.467"/>
      <point x="-24.6438" y="684.356"/>
      <point x="9" y="718" type="curve" smooth="yes"/>
      <point x="57" y="768" type="line"/>
      <point x="80.7216" y="788.333"/>
      <point x="111" y="781.167"/>
      <point x="111" y="751" type="curve" smooth="yes"/>
      <point x="111" y="480" type="line" smooth="yes"/>
      <point x="111" y="437.333"/>
      <point x="57" y="437.333"/>
      <point x="57" y="480" type="curve" smooth="yes"/>
      <point x="57" y="691" type="line"/>
    </contour>
  </outline>
</glyph>
<glyph name="ordmasculine" format="1">
  <advance width="386"/>
  <unicode hex="00BA"/>
  <outline>
    <contour>
      <point x="188" y="290" type="curve" smooth="yes"/>
      <point x="197" y="290" type="line" smooth="yes"/>
      <point x="241" y="290"/>
      <point x="247" y="294.333"/>
      <point x="247" y="333" type="curve" smooth="yes"/>
      <point x="247" y="377" type="line" smooth="yes"/>
      <point x="247" y="415.667"/>
      <point x="241" y="420"/>
      <point x="197" y="420" type="curve" smooth="yes"/>
      <point x="188" y="420" type="line" smooth="yes"/>
      <point x="145.333" y="420"/>
      <point x="139" y="417"/>
      <point x="139" y="377" type="curve" smooth="yes"/>
      <point x="139" y="333" type="line" smooth="yes"/>
      <point x="139" y="293"/>
      <point x="145.333" y="290"/>
    </contour>
    <contour>
      <point x="88" y="333" type="curve" smooth="yes"/>
      <point x="88" y="377" type="line" smooth="yes"/>
      <point x="88" y="450.333"/>
      <point x="114.667" y="471"/>
      <point x="188" y="471" type="curve" smooth="yes"/>
      <point x="197" y="471" type="line" smooth="yes"/>
      <point x="270.333" y="471"/>
      <point x="298" y="450.333"/>
      <point x="298" y="377" type="curve" smooth="yes"/>
      <point x="298" y="333" type="line" smooth="yes"/>
      <point x="298" y="259.667"/>
      <point x="271.667" y="239"/>
      <point x="197" y="239" type="curve" smooth="yes"/>
      <point x="188" y="239" type="line" smooth="yes"/>
      <point x="114.667" y="239"/>
      <point x="88" y="259.667"/>
    </contour>
    <contour>
      <point x="94" y="209" type="curve"/>
      <point x="290" y="209" type="line" smooth="yes"/>
      <point x="310" y="209"/>
      <point x="323" y="197.333"/>
      <point x="323" y="180" type="curve" smooth="yes"/>
      <point x="323" y="162.667"/>
      <point x="312" y="154"/>
      <point x="290" y="154" type="curve" smooth="yes"/>
      <point x="94" y="154" type="line" smooth="yes"/>
      <point x="83.3333" y="154"/>
      <point x="75.3333" y="156.667"/>
      <point x="70" y="162" type="curve" smooth="yes"/>
      <point x="64.6667" y="168"/>
      <point x="62" y="174.333"/>
      <point x="62" y="181" type="curve" smooth="yes"/>
      <point x="62" y="195.667"/>
      <point x="72.6667" y="207.667"/>
    </contour>
  </outline>
</glyph>
<glyph name="questiondown" format="1">
  <advance width="537"/>
  <unicode hex="00BF"/>
  <outline>
    <contour>
      <point x="285.5" y="404" type="curve" smooth="yes"/>
      <point x="260.833" y="404"/>
      <point x="229" y="424.5"/>
      <point x="229" y="450.5" type="curve" smooth="yes"/>
      <point x="229" y="476.5"/>
      <point x="259.5" y="496"/>
      <point x="285.5" y="496" type="curve" smooth="yes"/>
      <point x="311.5" y="496"/>
      <point x="342" y="475.333"/>
      <point x="342" y="450" type="curve" smooth="yes"/>
      <point x="342" y="424.667"/>
      <point x="310.167" y="404"/>
    </contour>
    <contour>
      <point x="254" y="285" type="line" smooth="yes"/>
      <point x="254" y="310.333"/>
      <point x="264.333" y="323"/>
      <point x="285" y="323" type="curve" smooth="yes"/>
      <point x="305.667" y="323"/>
      <point x="316" y="310.333"/>
      <point x="316" y="285" type="curve" smooth="yes"/>
      <point x="316" y="137" type="line"/>
      <point x="155" y="93" type="line" smooth="yes"/>
      <point x="124.333" y="85"/>
      <point x="99" y="46"/>
      <point x="99" y="-6" type="curve" smooth="yes"/>
      <point x="99" y="-58"/>
      <point x="128.333" y="-113"/>
      <point x="191" y="-113" type="curve" smooth="yes"/>
      <point x="285" y="-113" type="line" smooth="yes"/>
      <point x="396.957" y="-113"/>
      <point x="440" y="-95.8182"/>
      <point x="440" y="-4" type="curve" smooth="yes"/>
      <point x="440" y="29.3333"/>
      <point x="450.5" y="46"/>
      <point x="471.5" y="46" type="curve" smooth="yes"/>
      <point x="492.5" y="46"/>
      <point x="503" y="33.3333"/>
      <point x="503" y="8" type="curve" smooth="yes"/>
      <point x="503" y="-68"/>
      <point x="482.667" y="-118.333"/>
      <point x="442" y="-143" type="curve" smooth="yes"/>
      <point x="400.667" y="-168.333"/>
      <point x="357" y="-175"/>
      <point x="285" y="-175" type="curve" smooth="yes"/>
      <point x="209" y="-175" type="line" smooth="yes"/>
      <point x="87.6667" y="-175"/>
      <point x="37" y="-98"/>
      <point x="37" y="-6" type="curve" smooth="yes"/>
      <point x="37" y="86"/>
      <point x="73" y="133.333"/>
      <point x="169" y="160" type="curve" smooth="yes"/>
      <point x="254" y="184" type="line"/>
    </contour>
  </outline>
</glyph>
<glyph name="AE" format="1">
  <advance width="884"/>
  <unicode hex="00C6"/>
  <outline>
    <contour>
      <point x="465" y="322" type="line"/>
      <point x="465" y="62" type="line"/>
      <point x="797" y="62" type="line" smooth="yes"/>
      <point x="823" y="62"/>
      <point x="836" y="51"/>
      <point x="836" y="29" type="curve" smooth="yes"/>
      <point x="836" y="9.66667"/>
      <point x="823" y="0"/>
      <point x="797" y="0" type="curve" smooth="yes"/>
      <point x="431" y="0" type="line" smooth="yes"/>
      <point x="411.667" y="0"/>
      <point x="402" y="13.3333"/>
      <point x="402" y="40" type="curve" smooth="yes"/>
      <point x="402" y="189" type="line"/>
      <point x="191" y="189" type="line"/>
      <point x="71" y="9" type="line" smooth="yes"/>
      <point x="59.6667" y="-7.66667"/>
      <point x="47.3333" y="-16"/>
      <point x="34" y="-16" type="curve" smooth="yes"/>
      <point x="28.6667" y="-16"/>
      <point x="23.3333" y="-14"/>
      <point x="18" y="-10" type="curve"/>
      <point x="12" y="-7.33333"/>
      <point x="9" y="-1.66667"/>
      <point x="9" y="7" type="curve" smooth="yes"/>
      <point x="9" y="14.3333"/>
      <point x="12" y="22.6667"/>
      <point x="18" y="32" type="curve" smooth="yes"/>
      <point x="408" y="624" type="line" smooth="yes"/>
      <point x="413.333" y="632"/>
      <point x="421" y="636"/>
      <point x="431" y="636" type="curve" smooth="yes"/>
      <point x="797" y="636" type="line" smooth="yes"/>
      <point x="823" y="636"/>
      <point x="836" y="625"/>
      <point x="836" y="603" type="curve" smooth="yes"/>
      <point x="836" y="583.667"/>
      <point x="823" y="574"/>
      <point x="797" y="574" type="curve" smooth="yes"/>
      <point x="465" y="574" type="line"/>
      <point x="465" y="384" type="line"/>
      <point x="677" y="384" type="line" smooth="yes"/>
      <point x="705" y="384"/>
      <point x="719" y="373"/>
      <point x="719" y="351" type="curve" smooth="yes"/>
      <point x="719" y="331.667"/>
      <point x="705" y="322"/>
      <point x="677" y="322" type="curve" smooth="yes"/>
    </contour>
    <contour>
      <point x="232" y="251" type="line"/>
      <point x="402" y="251" type="line"/>
      <point x="402" y="511" type="line"/>
    </contour>
  </outline>
</glyph>
<glyph name="Ccedilla" format="1">
  <advance width="610"/>
  <unicode hex="00C7"/>
  <outline>
    <contour>
      <point x="288" y="0" type="curve"/>
      <point x="136" y="2.66667"/>
      <point x="71" y="43.3333"/>
      <point x="71" y="182" type="curve" smooth="yes"/>
      <point x="71" y="454" type="line" smooth="yes"/>
      <point x="71" y="598"/>
      <point x="141" y="636"/>
      <point x="297" y="636" type="curve" smooth="yes"/>
      <point x="450" y="636" type="line" smooth="yes"/>
      <point x="534" y="636"/>
      <point x="555" y="589.667"/>
      <point x="555" y="519" type="curve" smooth="yes"/>
      <point x="555" y="492.333"/>
      <point x="544.667" y="479"/>
      <point x="524" y="479" type="curve" smooth="yes"/>
      <point x="503.333" y="479"/>
      <point x="493" y="490.833"/>
      <point x="493" y="514.5" type="curve" smooth="yes"/>
      <point x="493" y="561.833"/>
      <point x="481.667" y="574"/>
      <point x="443" y="574" type="curve" smooth="yes"/>
      <point x="297" y="574" type="line" smooth="yes"/>
      <point x="169" y="574"/>
      <point x="133" y="557"/>
      <point x="133" y="453" type="curve" smooth="yes"/>
      <point x="133" y="183" type="line" smooth="yes"/>
      <point x="133" y="77.6667"/>
      <point x="169" y="62"/>
      <point x="309" y="62" type="curve" smooth="yes"/>
      <point x="443" y="62" type="line" smooth="yes"/>
      <point x="462.333" y="62"/>
      <point x="475.5" y="66.1667"/>
      <point x="482.5" y="74.5" type="curve" smooth="yes"/>
      <point x="489.5" y="82.8333"/>
      <point x="493" y="98.6667"/>
      <point x="493" y="122" type="curve" smooth="yes"/>
      <point x="493" y="145.333"/>
      <point x="503.333" y="157"/>
      <point x="524" y="157" type="curve" smooth="yes"/>
      <point x="544.667" y="157"/>
      <point x="555" y="141.5"/>
      <point x="555" y="110.5" type="curve" smooth="yes"/>
      <point x="555" y="48.5"/>
      <point x="534" y="0"/>
      <point x="450" y="0" type="curve" smooth="yes"/>
      <point x="351" y="0" type="line"/>
      <point x="354.333" y="-12"/>
      <point x="366.667" y="-24.6667"/>
      <point x="388" y="-38" type="curve" smooth="yes"/>
      <point x="404" y="-47.3333"/>
      <point x="419" y="-67.3333"/>
      <point x="419" y="-94" type="curve" smooth="yes"/>
      <point x="419" y="-206.634"/>
      <point x="234" y="-199.19"/>
      <point x="234" y="-125" type="curve" smooth="yes"/>
      <point x="234" y="-110.333"/>
      <point x="243" y="-102"/>
      <point x="255" y="-102" type="curve" smooth="yes"/>
      <point x="267" y="-102"/>
      <point x="302" y="-120"/>
      <point x="326" y="-120" type="curve" smooth="yes"/>
      <point x="346.667" y="-120"/>
      <point x="357" y="-113.333"/>
      <point x="357" y="-100" type="curve" smooth="yes"/>
      <point x="357" y="-93.3333"/>
      <point x="351.667" y="-86"/>
      <point x="341" y="-78" type="curve" smooth="yes"/>
      <point x="309" y="-55.3333"/>
      <point x="291.333" y="-29.3333"/>
    </contour>
  </outline>
</glyph>
<glyph name="Eth" format="1">
  <advance width="639"/>
  <unicode hex="00D0"/>
  <outline>
    <contour>
      <point x="506" y="183" type="curve" smooth="yes"/>
      <point x="506" y="453" type="line" smooth="yes"/>
      <point x="506" y="558.333"/>
      <point x="469.667" y="574"/>
      <point x="343" y="574" type="curve" smooth="yes"/>
      <point x="146" y="574" type="line"/>
      <point x="146" y="356" type="line"/>
      <point x="240" y="356" type="line" smooth="yes"/>
      <point x="266" y="356"/>
      <point x="279" y="345.333"/>
      <point x="279" y="324" type="curve" smooth="yes"/>
      <point x="279" y="303.333"/>
      <point x="266.667" y="293"/>
      <point x="242" y="293" type="curve"/>
      <point x="241.333" y="293"/>
      <point x="240.667" y="293"/>
      <point x="240" y="293" type="curve"/>
      <point x="146" y="293" type="line"/>
      <point x="146" y="62" type="line"/>
      <point x="331" y="62" type="line" smooth="yes"/>
      <point x="469.667" y="62"/>
      <point x="506" y="77.6667"/>
    </contour>
    <contour>
      <point x="568" y="454" type="curve" smooth="yes"/>
      <point x="568" y="182" type="line" smooth="yes"/>
      <point x="568" y="36.6667"/>
      <point x="497.667" y="0"/>
      <point x="331" y="0" type="curve" smooth="yes"/>
      <point x="113" y="0" type="line" smooth="yes"/>
      <point x="93.6667" y="0"/>
      <point x="84" y="13.3333"/>
      <point x="84" y="40" type="curve" smooth="yes"/>
      <point x="84" y="293" type="line"/>
      <point x="59.3333" y="293"/>
      <point x="47" y="304"/>
      <point x="47" y="326" type="curve" smooth="yes"/>
      <point x="47" y="346"/>
      <point x="59.3333" y="356"/>
      <point x="84" y="356" type="curve"/>
      <point x="84" y="596" type="line" smooth="yes"/>
      <point x="84" y="622.667"/>
      <point x="93.6667" y="636"/>
      <point x="113" y="636" type="curve" smooth="yes"/>
      <point x="343" y="636" type="line" smooth="yes"/>
      <point x="497.667" y="636"/>
      <point x="568" y="598"/>
    </contour>
  </outline>
</glyph>
